<svg width="26" height="26" viewBox="0 0 26 26" fill="none" xmlns="http://www.w3.org/2000/svg">
<g clip-path="url(#clip0_391_3413)">
<path d="M8.875 15.5C9.91335 15.5 10.9284 15.1921 11.7917 14.6152C12.6551 14.0383 13.328 13.2184 13.7254 12.2591C14.1227 11.2998 14.2267 10.2442 14.0241 9.22578C13.8216 8.20738 13.3215 7.27192 12.5873 6.53769C11.8531 5.80347 10.9176 5.30345 9.89922 5.10088C8.88082 4.89831 7.82522 5.00227 6.86591 5.39963C5.9066 5.79699 5.08666 6.4699 4.50978 7.33326C3.93291 8.19662 3.625 9.21165 3.625 10.25C3.62639 11.642 4.17996 12.9765 5.16422 13.9608C6.14849 14.945 7.48304 15.4986 8.875 15.5ZM8.875 6.75C9.56723 6.75 10.2439 6.95527 10.8195 7.33986C11.3951 7.72444 11.8437 8.27107 12.1086 8.91061C12.3735 9.55015 12.4428 10.2539 12.3077 10.9328C12.1727 11.6118 11.8394 12.2354 11.3499 12.7249C10.8604 13.2144 10.2367 13.5477 9.55782 13.6827C8.87888 13.8178 8.17515 13.7485 7.53561 13.4836C6.89607 13.2187 6.34944 12.7701 5.96486 12.1945C5.58027 11.6189 5.375 10.9422 5.375 10.25C5.375 9.32174 5.74375 8.43151 6.40013 7.77513C7.0565 7.11875 7.94674 6.75 8.875 6.75V6.75Z" fill="black"/>
<path d="M8.875 17.25C6.78713 17.2523 4.78544 18.0827 3.30909 19.5591C1.83274 21.0354 1.00232 23.0371 1 25.125C1 25.3571 1.09219 25.5796 1.25628 25.7437C1.42038 25.9078 1.64294 26 1.875 26C2.10706 26 2.32962 25.9078 2.49372 25.7437C2.65781 25.5796 2.75 25.3571 2.75 25.125C2.75 23.5005 3.39531 21.9426 4.54397 20.794C5.69263 19.6453 7.25055 19 8.875 19C10.4994 19 12.0574 19.6453 13.206 20.794C14.3547 21.9426 15 23.5005 15 25.125C15 25.3571 15.0922 25.5796 15.2563 25.7437C15.4204 25.9078 15.6429 26 15.875 26C16.1071 26 16.3296 25.9078 16.4937 25.7437C16.6578 25.5796 16.75 25.3571 16.75 25.125C16.7477 23.0371 15.9173 21.0354 14.4409 19.5591C12.9646 18.0827 10.9629 17.2523 8.875 17.25V17.25Z" fill="black"/>
<g clip-path="url(#clip1_391_3413)">
<path d="M20 1.83345C20.5527 1.83526 21.0996 1.94667 21.6089 2.16123C22.1183 2.3758 22.5801 2.68925 22.9675 3.08345H21.6667C21.5562 3.08345 21.4502 3.12735 21.372 3.20549C21.2939 3.28363 21.25 3.38961 21.25 3.50012C21.25 3.61062 21.2939 3.7166 21.372 3.79474C21.4502 3.87288 21.5562 3.91678 21.6667 3.91678H23.3929C23.5981 3.91667 23.7948 3.83512 23.9399 3.69003C24.085 3.54495 24.1666 3.34821 24.1667 3.14303V1.41678C24.1667 1.30627 24.1228 1.20029 24.0446 1.12215C23.9665 1.04401 23.8605 1.00011 23.75 1.00011V1.00011C23.6395 1.00011 23.5335 1.04401 23.4554 1.12215C23.3772 1.20029 23.3333 1.30627 23.3333 1.41678V2.28262C22.6447 1.66239 21.7969 1.24612 20.885 1.08043C19.9732 0.914735 19.0332 1.00616 18.1703 1.34447C17.3075 1.68277 16.5558 2.2546 15.9996 2.99592C15.4433 3.73723 15.1044 4.61876 15.0208 5.54178C15.0155 5.59981 15.0222 5.65831 15.0407 5.71358C15.0592 5.76885 15.089 5.81966 15.1282 5.86278C15.1674 5.90589 15.2151 5.94037 15.2684 5.96402C15.3216 5.98767 15.3792 5.99996 15.4375 6.00012V6.00012C15.5394 6.00141 15.6381 5.96463 15.7144 5.89697C15.7906 5.8293 15.8388 5.73563 15.8496 5.63428C15.9423 4.59709 16.4196 3.63207 17.1875 2.9288C17.9555 2.22552 18.9587 1.83482 20 1.83345Z" fill="black"/>
<path d="M24.563 6.00003C24.461 5.99873 24.3623 6.03552 24.2861 6.10318C24.2099 6.17085 24.1617 6.26452 24.1509 6.36587C24.082 7.15888 23.7871 7.9155 23.3011 8.54595C22.8152 9.17641 22.1586 9.65424 21.4093 9.92276C20.6599 10.1913 19.8493 10.2392 19.0735 10.0609C18.2978 9.88259 17.5894 9.48548 17.0325 8.9167H18.3334C18.4439 8.9167 18.5499 8.8728 18.628 8.79466C18.7061 8.71652 18.75 8.61054 18.75 8.50003C18.75 8.38953 18.7061 8.28355 18.628 8.20541C18.5499 8.12727 18.4439 8.08337 18.3334 8.08337H16.6071C16.5055 8.08331 16.4049 8.10329 16.311 8.14215C16.2171 8.18102 16.1317 8.23801 16.0599 8.30987C15.988 8.38173 15.931 8.46705 15.8922 8.56095C15.8533 8.65485 15.8333 8.75549 15.8334 8.85712V10.5834C15.8334 10.6939 15.8773 10.7999 15.9554 10.878C16.0336 10.9561 16.1395 11 16.25 11C16.3605 11 16.4665 10.9561 16.5447 10.878C16.6228 10.7999 16.6667 10.6939 16.6667 10.5834V9.71753C17.3554 10.3378 18.2031 10.754 19.115 10.9197C20.0269 11.0854 20.9669 10.994 21.8297 10.6557C22.6926 10.3174 23.4442 9.74555 24.0005 9.00423C24.5567 8.26292 24.8956 7.38139 24.9792 6.45837C24.9846 6.40034 24.9778 6.34183 24.9593 6.28657C24.9409 6.2313 24.9111 6.18049 24.8719 6.13737C24.8327 6.09425 24.7849 6.05977 24.7317 6.03613C24.6784 6.01248 24.6208 6.00019 24.5625 6.00003H24.563Z" fill="black"/>
</g>
</g>
<defs>
<clipPath id="clip0_391_3413">
<rect width="26" height="26" fill="white"/>
</clipPath>
<clipPath id="clip1_391_3413">
<rect width="10" height="10" fill="white" transform="translate(15 1)"/>
</clipPath>
</defs>
</svg>
