<svg width="24" height="24" viewBox="0 0 24 24" fill="none" xmlns="http://www.w3.org/2000/svg">
<path d="M13.875 14.5C16.4984 14.5 18.625 12.3734 18.625 9.75C18.625 7.12665 16.4984 5 13.875 5C11.2516 5 9.125 7.12665 9.125 9.75C9.125 12.3734 11.2516 14.5 13.875 14.5Z" fill="black"/>
<path d="M13.875 16.083C9.94178 16.0874 6.75438 19.2748 6.75 23.208C6.75 23.6452 7.10443 23.9997 7.54165 23.9997H20.2083C20.6455 23.9997 21 23.6452 21 23.208C20.9956 19.2748 17.8082 16.0873 13.875 16.083Z" fill="black"/>
<g clip-path="url(#clip0_445_3486)">
<path d="M1.15723 4.00653C1.42879 2.16115 3.1449 0.885311 4.99028 1.15687C5.61989 1.24951 6.21051 1.51816 6.6941 1.93186L6.25876 2.36719C6.11285 2.51314 6.11289 2.74975 6.25885 2.89566C6.3289 2.96569 6.42391 3.00505 6.52296 3.00507H8.23667C8.44305 3.00507 8.61035 2.83777 8.61035 2.63139V0.917681C8.6103 0.711304 8.44296 0.54404 8.23658 0.544075C8.13753 0.544093 8.04252 0.583452 7.97247 0.653482L7.48666 1.13926C5.63413 -0.51209 2.79366 -0.349013 1.14231 1.50352C0.557282 2.1598 0.177633 2.97329 0.0503942 3.84323C0.000227358 4.15164 0.209565 4.44232 0.517958 4.49249C0.545739 4.497 0.5738 4.49944 0.601949 4.49979C0.884102 4.49674 1.12094 4.28635 1.15723 4.00653Z" fill="black"/>
<path d="M8.39801 4.5C8.11586 4.50305 7.87902 4.71344 7.84273 4.99326C7.57117 6.83864 5.85506 8.11448 4.00968 7.84294C3.38007 7.7503 2.78946 7.48165 2.30587 7.06795L2.7412 6.63261C2.88711 6.48667 2.88708 6.25006 2.74111 6.10415C2.67106 6.03412 2.57606 5.99476 2.477 5.99474H0.763325C0.556947 5.99474 0.389648 6.16204 0.389648 6.36842V8.08213C0.389701 8.2885 0.557035 8.45577 0.763412 8.45573C0.862467 8.45571 0.957476 8.41636 1.02752 8.34633L1.5133 7.86055C3.36539 9.51207 6.20565 9.3495 7.8572 7.4974C8.44254 6.84097 8.82236 6.0272 8.94957 5.15695C8.99995 4.84858 8.7908 4.55775 8.48244 4.50737C8.45452 4.5028 8.4263 4.50033 8.39801 4.5Z" fill="black"/>
</g>
<defs>
<clipPath id="clip0_445_3486">
<rect width="9" height="9" fill="white"/>
</clipPath>
</defs>
</svg>
