<svg width="26" height="26" viewBox="0 0 26 26" fill="none" xmlns="http://www.w3.org/2000/svg">
<g clip-path="url(#clip0_159_1500)">
<path d="M9.75 13C11.0356 13 12.2923 12.6188 13.3612 11.9046C14.4301 11.1903 15.2632 10.1752 15.7552 8.98745C16.2472 7.79973 16.3759 6.49279 16.1251 5.23192C15.8743 3.97104 15.2552 2.81285 14.3462 1.90381C13.4372 0.994768 12.279 0.375703 11.0181 0.124899C9.75721 -0.125905 8.45028 0.00281636 7.26256 0.494786C6.07484 0.986756 5.05968 1.81988 4.34545 2.8888C3.63122 3.95772 3.25 5.21442 3.25 6.5C3.25172 8.22338 3.93709 9.87568 5.15571 11.0943C6.37432 12.3129 8.02662 12.9983 9.75 13ZM9.75 2.16667C10.6071 2.16667 11.4449 2.42082 12.1575 2.89697C12.8701 3.37312 13.4255 4.0499 13.7535 4.84171C14.0815 5.63352 14.1673 6.50481 14.0001 7.34539C13.8329 8.18598 13.4202 8.95811 12.8141 9.56413C12.2081 10.1702 11.436 10.5829 10.5954 10.7501C9.75481 10.9173 8.88352 10.8315 8.09171 10.5035C7.29989 10.1755 6.62312 9.62009 6.14697 8.90747C5.67081 8.19486 5.41667 7.35706 5.41667 6.5C5.41667 5.35073 5.87321 4.24853 6.68587 3.43587C7.49853 2.62322 8.60073 2.16667 9.75 2.16667ZM19.5 24.9167C19.5 25.204 19.3859 25.4795 19.1827 25.6827C18.9795 25.8859 18.704 26 18.4167 26C18.1293 26 17.8538 25.8859 17.6506 25.6827C17.4475 25.4795 17.3333 25.204 17.3333 24.9167C17.3333 22.9054 16.5344 20.9766 15.1122 19.5544C13.6901 18.1323 11.7612 17.3333 9.75 17.3333C7.73878 17.3333 5.80992 18.1323 4.38777 19.5544C2.96562 20.9766 2.16667 22.9054 2.16667 24.9167C2.16667 25.204 2.05253 25.4795 1.84937 25.6827C1.6462 25.8859 1.37065 26 1.08333 26C0.796016 26 0.520465 25.8859 0.317301 25.6827C0.114137 25.4795 0 25.204 0 24.9167C0 22.3308 1.02723 19.8509 2.85571 18.0224C4.68419 16.1939 7.16414 15.1667 9.75 15.1667C12.3359 15.1667 14.8158 16.1939 16.6443 18.0224C18.4728 19.8509 19.5 22.3308 19.5 24.9167ZM25.6826 15.4841C25.7861 15.584 25.8686 15.7036 25.9254 15.8357C25.9821 15.9679 26.012 16.1101 26.0133 16.2539C26.0145 16.3977 25.9871 16.5404 25.9326 16.6735C25.8782 16.8067 25.7977 16.9276 25.696 17.0293C25.5943 17.1311 25.4733 17.2115 25.3402 17.266C25.2071 17.3204 25.0644 17.3479 24.9206 17.3466C24.7767 17.3454 24.6346 17.3155 24.5024 17.2587C24.3702 17.2019 24.2507 17.1194 24.1507 17.0159L22.2083 15.0735L20.2659 17.0159C20.0616 17.2133 19.7879 17.3225 19.5039 17.32C19.2199 17.3175 18.9481 17.2036 18.7473 17.0027C18.5464 16.8019 18.4325 16.5302 18.43 16.2461C18.4276 15.9621 18.5367 15.6884 18.7341 15.4841L20.6765 13.5417L18.7341 11.5993C18.5367 11.3949 18.4276 11.1213 18.43 10.8372C18.4325 10.5532 18.5464 10.2815 18.7473 10.0806C18.9481 9.87976 19.2199 9.76583 19.5039 9.76336C19.7879 9.76089 20.0616 9.87008 20.2659 10.0674L22.2083 12.0098L24.1507 10.0674C24.3551 9.87008 24.6287 9.76089 24.9128 9.76336C25.1968 9.76583 25.4685 9.87976 25.6694 10.0806C25.8702 10.2815 25.9842 10.5532 25.9866 10.8372C25.9891 11.1213 25.8799 11.3949 25.6826 11.5993L23.7402 13.5417L25.6826 15.4841Z" fill="black"/>
</g>
<defs>
<clipPath id="clip0_159_1500">
<rect width="26" height="26" fill="white"/>
</clipPath>
</defs>
</svg>
