<svg viewBox="0 0 2860.76 1893.85" xmlns="http://www.w3.org/2000/svg" xmlns:xlink="http://www.w3.org/1999/xlink"><clipPath id="a" transform="translate(-83.02 -63.18)"><path d="m2423.15 1656.34c-110 181.84-256.23 141.59-365.28 144-144.62 3.24-266-48.48-361-55a402.13 402.13 0 0 0 -76.94 2.42c-66.84 8.23-134.12 31-201.87 57.38-75.85 29.5-152.27 63.5-229.27 86.59-60.49 18.16-172 19-290.23-5.48-218.38-45.33-491.47-185.12-494.7-456.11-6.09-511.58 431.86-307.7 228.05-726.8-142.18-292.47 68.09-757.61 513.87-525.34 203.8 106.21 376 195.2 637.25 112 155.58-49.57 422-86.11 522.43 137.79s-4.54 366.53 5.74 473.63c29.41 306.42 292.8 455.84 111.95 754.92z"/></clipPath><path d="m919.29 85.18c75.13 0 156 22.29 240.34 66.25 145.57 75.86 271.29 141.38 424.94 141.38 61.08 0 123-10.28 189.34-31.41 55.57-17.71 140.6-38.82 230.1-38.82 71.57 0 134.43 13.57 186.82 40.34 63.3 32.33 111.07 83.66 142 152.57 32 71.36 47.22 141.24 46.46 213.63-.65 62.12-12.77 115.31-23.47 162.24-9.46 41.49-17.63 77.32-14.76 107.17 10.51 109.51 52.49 198.37 93.08 284.3 35.28 74.66 68.6 145.18 78.81 223.51a355.08 355.08 0 0 1 -5.7 126.07c-10.32 45.88-29.44 91.5-58.43 139.45-38.82 64.24-84.82 107.82-140.62 133.24-53.39 24.33-106.9 27.45-147.55 27.45-206.57 0-256.83-14.72-346.51-35.41-73.54-17-118.85-28.45-190.51-19.62-66.88 8.24-135.94 32.71-194.66 55.56-20.83 8.11-42.17 16.74-62.8 25.08-54.93 22.22-111.72 45.2-168.73 62.3-31.78 9.53-74.66 14.57-124 14.57-57.14 0-119.71-6.71-180.94-19.42-75.56-15.68-220.25-55.91-340.33-149.1-54.1-42-96.64-89.89-126.41-142.35-33.59-59.18-51-124.34-51.86-193.67-1.38-116.24 19.18-208.19 62.86-281.1 38.21-63.8 86.8-101.82 129.66-135.36 41.24-32.27 73.82-57.76 85.11-96.6 13.06-44.94-1.73-108.8-46.56-201-70.3-144.58-61.05-332 23-466.38 66.55-106.31 170.03-164.87 291.32-164.87zm0-22c-64.22 0-123.79 15.29-177 45.43s-97.88 73.73-132.95 129.79a469.48 469.48 0 0 0 -51.34 114.6 528.18 528.18 0 0 0 -21.35 125.36 534.42 534.42 0 0 0 8.86 127.29 484.92 484.92 0 0 0 39.71 120.43c21.89 45 36.06 82.16 43.34 113.55 6.77 29.25 7.39 52.7 1.87 71.67-9.31 32-37.93 54.42-77.54 85.42-44.37 34.72-94.66 74.07-135 141.37-45.83 76.51-67.41 172.24-66 292.67.87 73.1 19.28 141.82 54.72 204.26 31.22 55 75.65 105.1 132.07 148.88 123.58 95.9 271.92 137.18 349.32 153.25 62.68 13 126.79 19.88 185.4 19.88 51.47 0 96.54-5.36 130.34-15.5 58-17.39 115.26-40.56 170.64-63 20.54-8.3 41.76-16.89 62.54-25 57.47-22.36 124.9-46.29 189.38-54.23 67.69-8.35 110 2.4 182.86 19.21 91.24 21 144.12 36 351.47 36 42.88 0 99.43-3.34 156.68-29.43 59.93-27.32 109.1-73.72 150.3-141.87 30.24-50 50.22-97.78 61.08-146a376.82 376.82 0 0 0 6.05-133.74c-10.67-81.76-44.7-153.8-80.73-230.07-39.8-84.22-80.94-171.31-91.08-277-2.53-26.31 5.27-60.53 14.31-100.16 10.94-48 23.35-102.44 24-166.92.8-75.64-15-148.54-48.39-222.87-33-73.59-84.18-128.49-152-163.16-55.53-28.29-121.76-42.71-196.85-42.71-92.33 0-179.72 21.67-236.78 39.85-64.14 20.44-123.88 30.38-182.66 30.38-148.26 0-271.76-64.36-414.76-138.89-87.52-45.61-171.8-68.74-250.51-68.74z" fill="#fff" transform="translate(-83.02 -63.18)"/><path d="m693 1306.83c-14.51-6.73-36.83-37.54-24.35-61.65 7.58-12.82 32.4-9.2 43.33-17.22s2.19-32.32-5.11-45.76 1.35-32.26 29.31-35.41c21.45-2.41 29.47-4.89 30.68-21.38s-10.09-46.6 22.28-46.6c16.56 1.88 27.53 4.7 19.78 8.18s-23.67-7.65-29.44 7.52 7.16 33.77-2.38 48.28c-16 24.29-50.55 8.21-57.59 24.46s21.62 47.3 7.24 63-41.89 3.65-48.65 23.4 20.37 44.11 14.9 53.18z" fill="#516eb4" transform="translate(-83.02 -63.18)"/><path d="m2098.15 1197.29c11.23-8.77 44.72-14 58.77 5.74 7.08 11.22-5.87 29.43-4 41.34s24.73 14.87 38.35 14.54 25 14.18 16.16 37.62c-6.8 18-8.09 25.36 4.49 33s41 10.93 27.89 36.59c-8.22 12.36-14.91 19.91-14.53 12.36s15.68-15.66 6-26.39-29.68-8-37.31-21.51c-12.76-22.53 14-43.4 4-55.58s-46.28-2.08-52.86-19.85 14.12-34.69 1.21-48.07-43.2-1.76-48.17-9.79z" fill="#516eb4" transform="translate(-83.02 -63.18)"/><g clip-path="url(#a)"><path d="m1230.28 1138.46s-166.11 173.64-222 321.77c65.57-19.43 202.62-22.25 202.62-22.25l150.56-167.56z" fill="#de623c" transform="translate(-83.02 -63.18)"/><path d="m1338.66 1175.63c-108.39-17.06-344.85-87.23-268.91-253.32s130.72-112.19 59.14-282.41 27.72-334.08 154.79-321.9 176.49 103.6 319.18 50.6 291.76 61.31 259.27 191.55-45.13 192.39 19.52 248.59 312.15 82.51 245.14 259.84-113.57 176.2-64.06 251-10.81 182.33-148.79 195.78-270.55-14.2-349.39-156-225.89-183.73-225.89-183.73z" fill="#062440" transform="translate(-83.02 -63.18)"/><path d="m1639.73 866.67-7 194.24s-101.14 72.25-179.34 24.13c12-60.16 28.41-159.12 28.41-159.12z" fill="#de623c" transform="translate(-83.02 -63.18)"/><path d="m1452.15 995.82s-126.63 16.17-262.54 188.33c19.05 13.19 104.39 91.85 104.39 91.85z" fill="#5578e6" transform="translate(-83.02 -63.18)"/><ellipse cx="1465.15" cy="711.04" fill="#f37a50" rx="204.29" ry="274.61" transform="matrix(.98400963 -.17811529 .17811529 .98400963 -186.25 209.19)"/><path d="m1679.54 672.23c-113.54 5.9-227.91-37.23-300.65-106.61-20.74 100.21-114.76 181.81-114.76 181.81s-111.28-164.35 14.87-286.72c120.3-116.71 458.47-113.08 400.54 211.52z" fill="#062440" transform="translate(-83.02 -63.18)"/><path d="m1529.07 756.43a21.71 21.71 0 1 0 -25.23-17.49 21.7 21.7 0 0 0 25.23 17.49z" transform="translate(-83.02 -63.18)"/><path d="m1366.64 785.84a21.71 21.71 0 1 0 -25.23-17.5 21.7 21.7 0 0 0 25.23 17.5z" transform="translate(-83.02 -63.18)"/><path d="m1437.21 771.84c-14.67 38.46-19.71 54.89-28 64.58 14.66 21.67 55.9 21.76 65.7 15.65-30.17-4.67-39.34-21-39.34-21z" fill="#de623c" transform="translate(-83.02 -63.18)"/><path d="m1639.92 700.93c-17.76 33.35-12.12 71.05 12.6 84.2s59.13-3.2 76.89-36.55 12.11-71-12.6-84.2-59.14 3.21-76.89 36.55z" fill="#f37a50" transform="translate(-83.02 -63.18)"/><path d="m1671.54 760.3a7 7 0 0 0 4.58-10.64c-7-10.68-8.77-20-5.33-27.59 5.3-11.78 21.72-18.1 34.14-19.92a7 7 0 0 0 -2-13.76c-16.67 2.45-37.2 11.08-44.8 28-3.79 8.41-5.76 22.33 6.37 40.9a7 7 0 0 0 7.04 3.01z" fill="#de623c" transform="translate(-83.02 -63.18)"/><path d="m1317.65 740.12a10.72 10.72 0 0 0 2.41-.72c34.43-14.8 48.18-37.24 48.74-38.19a11 11 0 0 0 -18.91-11.42c-.3.46-11.33 17.6-38.56 29.3a11.05 11.05 0 0 0 6.32 21z" fill="#062440" transform="translate(-83.02 -63.18)"/><path d="m1562.26 695.84a11 11 0 0 1 -2.51.16c-37.44-1.78-58.18-18-59-18.67a11 11 0 0 1 13.67-17.33c.44.33 16.78 12.51 46.38 13.93a11.05 11.05 0 0 1 1.46 21.91z" fill="#062440" transform="translate(-83.02 -63.18)"/><path d="m1480.86 881c21.81-2.54 40.94 7.73 42.72 22.94s-19.92 19.46-41.74 22-35.49 2.43-37.27-12.78 14.43-29.64 36.29-32.16z" fill="#fff" transform="translate(-83.02 -63.18)"/><path d="m1754.48 1688.56c-7.26-41-12.38-97.26-5.9-169.74q1.49-6 3.06-12.37c8.25-33.1 18.28-71.73 28.34-112.57q3.07-12.51 6.15-25.27c26.62-110.62 51-232 40.74-301.59-2-13.28-5.18-24.68-9.9-33.76 0-4.15-8.16-10.83-21.17-18.47-39.54-23.22-123.67-55.28-157.25-52.07 0 0-.83 2.39-2.49 6.46-9.93 24.32-49.67 108.83-120.6 103.14-40.4-3.24-44.53-72.07-44.88-80.41 0-.53 0-.82 0-.82a98.87 98.87 0 0 0 -18.41 4.75c-57.89 20.85-106.21 94.5-139.33 175.14-5 12.08-9.58 24.32-13.84 36.56q-3.15 9-6 18a190.56 190.56 0 0 0 -8.06 42.09c-2.22 26.27-.28 54.52 3.42 84.22 1.77 14.28 4 28.91 6.27 43.81 11.42 73.64 25.61 151 12.45 229.76-6.21 36.94-41.43 164-62.84 248h600.29c-32.07-73.42-87.36-176.18-90.05-184.86z" fill="#7a94e6" transform="translate(-83.02 -63.18)"/><path d="m1857.08 1240.42c-49.39 109.33-213.73 361.89-301.31 391.6l-114.94-135s38.24-63.24 76.23-140.91c52.63-107.59 140.23-229.28 161.51-261.63 63.58-97.17 259.43-32.4 178.51 145.94z" fill="#f37a50" transform="translate(-83.02 -63.18)"/><path d="m999.87 1716.25s6.77 1.14 19 2.71c75.22 9.69 356.94 35.77 536.91-86.93 9.57-11.48-103.57-141.2-103.57-141.2q-5.29 2.46-10.6 4.9c-26.27 12-52.88 23.45-79.35 34.2-81.51 33.1-161.63 59.92-226 79.61-71 21.74-122.92 34.81-136.35 38.12l-3.43.83z" fill="#f37a50" transform="translate(-83.02 -63.18)"/><path d="m1028.63 1707.05c-31 47.61-139.5 74.8-207.46 45.91s-14.51-81.32 19.64-84.52 79.59-.52 77-18.13-20.73-22.62-24.67-43.71c-3.52-18.83 61.16-19.3 106.59 40.78z" fill="#f37a50" transform="translate(-83.02 -63.18)"/><path d="m1805.91 1016c19.4 6.59 103.18 18.4 60.22 213.51-18.84 75.69-81.29 167.21-81.29 167.21s-131.44-73.85-207.23-180.32c13.22-38.08 129.01-218.77 228.3-200.4z" fill="#5578e6" transform="translate(-83.02 -63.18)"/><path d="m1408.54 1382.13c-73.31 6.83-148.65-21.07-309.13 18.53-145.65 35.94-99.94 142.14-26 149.31 105.3 10.22 352.76-108.41 352.76-108.41z" fill="#de623c" transform="translate(-83.02 -63.18)"/><path d="m1560 1343.31c5.72-34.88 2.62-66 36.37-52.16s24.56 61.54 21.25 85.15-8.26 41.17 8.34 35.2 23.43 22.38 4.62 32.19-48.26-5.11-56.31 28.62-34.85 100.52-47.82 74.63 12.41-58.85-1.9-63.35-35.15-15.72-14.84-30.3 32.84-21.12 30.7-41.34 19.59-68.64 19.59-68.64z" fill="#fa897a" transform="translate(-83.02 -63.18)"/><path d="m1269.35 1581.3c35.88-6.59 62.67 36.15 26.52 43.38s-51.93-15-75.92 3.62-80.82 45.44-66.28 20.48 56.64-56.63 115.68-67.48z" fill="#fa897a" transform="translate(-83.02 -63.18)"/><g fill="#fa0c44"><circle cx="1573.57" cy="1442.83" r="13.76" transform="matrix(.70710678 -.70710678 .70710678 .70710678 -642.37 1472.09)"/><path d="m1573.54 1504.67a10.76 10.76 0 1 0 0-15.21 10.76 10.76 0 0 0 0 15.21z" transform="translate(-83.02 -63.18)"/><path d="m1576.81 1343.27a13.76 13.76 0 1 0 13.76-13.76 13.76 13.76 0 0 0 -13.76 13.76z" transform="translate(-83.02 -63.18)"/><path d="m1519.52 1435.1a8.76 8.76 0 1 0 8.75-8.76 8.76 8.76 0 0 0 -8.75 8.76z" transform="translate(-83.02 -63.18)"/><path d="m1515.43 1521.35a8.76 8.76 0 1 0 8.76-8.76 8.76 8.76 0 0 0 -8.76 8.76z" transform="translate(-83.02 -63.18)"/><path d="m1611 1422.6a8.76 8.76 0 1 0 8.76-8.76 8.76 8.76 0 0 0 -8.76 8.76z" transform="translate(-83.02 -63.18)"/><path d="m1512.86 1468.81a6.41 6.41 0 1 0 6.4-6.4 6.41 6.41 0 0 0 -6.4 6.4z" transform="translate(-83.02 -63.18)"/><path d="m1546.05 1478.15a5.23 5.23 0 1 0 5.22-5.22 5.23 5.23 0 0 0 -5.22 5.22z" transform="translate(-83.02 -63.18)"/><path d="m1633.1 1405.6a5.23 5.23 0 1 0 5.23-5.23 5.23 5.23 0 0 0 -5.23 5.23z" transform="translate(-83.02 -63.18)"/><path d="m1532.73 1544.46a5.23 5.23 0 1 0 5.22-5.23 5.22 5.22 0 0 0 -5.22 5.23z" transform="translate(-83.02 -63.18)"/><path d="m1591.18 1306.55a5.23 5.23 0 1 0 5.23-5.23 5.22 5.22 0 0 0 -5.23 5.23z" transform="translate(-83.02 -63.18)"/><path d="m1538.76 1518.18a6.41 6.41 0 1 0 6.41-6.4 6.41 6.41 0 0 0 -6.41 6.4z" transform="translate(-83.02 -63.18)"/><path d="m1226.31 1607.15a10.76 10.76 0 1 0 0-15.21 10.76 10.76 0 0 0 0 15.21z" transform="translate(-83.02 -63.18)"/><path d="m1143.12 1663.81a14.4 14.4 0 1 0 0-20.37 14.39 14.39 0 0 0 0 20.37z" transform="translate(-83.02 -63.18)"/><circle cx="1093.95" cy="1560.65" r="8.76"/><path d="m1280.07 1599.43a8.76 8.76 0 1 0 8.76-8.76 8.76 8.76 0 0 0 -8.76 8.76z" transform="translate(-83.02 -63.18)"/><path d="m1185.51 1646.94a5.23 5.23 0 1 0 5.22-5.23 5.22 5.22 0 0 0 -5.22 5.23z" transform="translate(-83.02 -63.18)"/><path d="m1271.15 1619.24a5.23 5.23 0 1 0 5.22-5.22 5.23 5.23 0 0 0 -5.22 5.22z" transform="translate(-83.02 -63.18)"/><circle cx="1114.92" cy="1557.48" r="6.4"/></g><path d="m1396.36 1385c10.62-39 9.34-65.67 39.23-98.1 25.5-27.66 98.38-39 129.32-7.39 10.63 10.86 13.3 25.44-2.13 30.28-10.7 3.36-44.13.93-70.59 23.53-21.46 18.33-18.24 38.74-15.9 66.77 3 35.85-61.55 42.35-61.55 42.35z" fill="#de623c" transform="translate(-83.02 -63.18)"/><path d="m1255.43 1392.49c21.93-1.24 51.08 5.19 62 20s-17.66 12.55-37.57 5.73-32.36 1.29-56.23 8.51-28.01-30.86 31.8-34.24z" fill="#fa7c6c" transform="translate(-83.02 -63.18)"/><path d="m1280.39 1412.61a10.75 10.75 0 1 0 10-11.42 10.75 10.75 0 0 0 -10 11.42z" fill="#e01947" transform="translate(-83.02 -63.18)"/><path d="m1209.75 1416.88a9.32 9.32 0 1 0 8.7-9.9 9.33 9.33 0 0 0 -8.7 9.9z" fill="#e01947" transform="translate(-83.02 -63.18)"/><path d="m1256 1401.66a6.5 6.5 0 1 0 -.6-9.17 6.49 6.49 0 0 0 .6 9.17z" fill="#e01947" transform="translate(-83.02 -63.18)"/><path d="m1318 1421.61a6.5 6.5 0 1 0 -.6-9.17 6.49 6.49 0 0 0 .6 9.17z" fill="#e01947" transform="translate(-83.02 -63.18)"/><path d="m1242.52 1407.73a4.72 4.72 0 1 0 -.43-6.65 4.72 4.72 0 0 0 .43 6.65z" fill="#e01947" transform="translate(-83.02 -63.18)"/><path d="m1209.36 1401.64a4.72 4.72 0 1 0 -.43-6.65 4.72 4.72 0 0 0 .43 6.65z" fill="#e01947" transform="translate(-83.02 -63.18)"/><path d="m1164.18 1215.57c17.59-11 51.23-8.09 44.65 22.22s-33.39 23.45-36.69 42.14 6 35.27-8.09 49.84-28.35-22.1-38.87-1.84-35-12.21-23.48-31.23c13-21.38 62.48-81.13 62.48-81.13z" fill="#fa7c6c" transform="translate(-83.02 -63.18)"/><path d="m1176.41 1235.8a11.75 11.75 0 1 0 11.75-11.75 11.75 11.75 0 0 0 -11.75 11.75z" fill="#e01947" transform="translate(-83.02 -63.18)"/><path d="m1152.3 1318a11.75 11.75 0 1 0 11.75-11.74 11.75 11.75 0 0 0 -11.75 11.74z" fill="#e01947" transform="translate(-83.02 -63.18)"/><path d="m1184.92 1261.41a8 8 0 1 0 8-8 8 8 0 0 0 -8 8z" fill="#e01947" transform="translate(-83.02 -63.18)"/><path d="m1138.22 1271.81a8 8 0 1 0 8-8 8 8 0 0 0 -8 8z" fill="#e01947" transform="translate(-83.02 -63.18)"/><path d="m1157 1260.9a5.19 5.19 0 1 0 5.19-5.19 5.19 5.19 0 0 0 -5.19 5.19z" fill="#e01947" transform="translate(-83.02 -63.18)"/><path d="m1161.44 1342.17a4.24 4.24 0 1 0 4.24-4.24 4.24 4.24 0 0 0 -4.24 4.24z" fill="#e01947" transform="translate(-83.02 -63.18)"/><path d="m1117.79 1319.84a4.24 4.24 0 1 0 4.24-4.24 4.24 4.24 0 0 0 -4.24 4.24z" fill="#e01947" transform="translate(-83.02 -63.18)"/><path d="m1132.64 1315a5.19 5.19 0 1 0 5.19-5.19 5.19 5.19 0 0 0 -5.19 5.19z" fill="#e01947" transform="translate(-83.02 -63.18)"/><path d="m1129.72 1338.37a8.81 8.81 0 1 0 8.81-8.81 8.81 8.81 0 0 0 -8.81 8.81z" fill="#e01947" transform="translate(-83.02 -63.18)"/><path d="m1525.61 781c2.28 9.26 19.15 13.06 37.67 8.49s31.68-15.78 29.39-25-19.15-13.08-37.67-8.49-31.68 15.76-29.39 25z" fill="#fa897a" transform="translate(-83.02 -63.18)"/><path d="m1327.92 823.27c2.29 9.26 19.15 13.06 37.67 8.49s31.68-15.78 29.4-25-19.15-13.06-37.67-8.49-31.68 15.73-29.4 25z" fill="#fa897a" transform="translate(-83.02 -63.18)"/></g><g transform="translate(-83.02 -63.18)"><path d="m2034.6 390c9.37-10.73 41.29-22.14 58.8-5.46 9.07 9.68-.21 30 3.92 41.35s27.09 9.92 40.41 7 27.25 9.2 23 33.89c-3.28 18.95-3.16 26.43 10.64 31.57s42.37 3 34.3 30.67c-5.74 13.69-10.88 22.37-11.93 14.88s12.44-18.34.91-27-30.66-2.3-40.69-14.08c-16.79-19.72 5.58-45.27-6.57-55.34s-45.84 6.7-55.66-9.51 7.32-36.73-7.89-47.43-42.84 6.4-49.24-.54z" fill="#516eb4"/><path d="m870.75 448a50.19 50.19 0 0 1 3.92-4.69c.61-.65-.51.51-.51.51l.57-.56c.32-.3.64-.6 1-.89s.65-.57 1-.85c.48-.4 2.08-1.47.09-.11.73-.5 1.43-1 2.17-1.53.35-.23.71-.44 1.06-.66s1.16-.56-.69.39c.26-.13.5-.28.76-.42q1.13-.61 2.31-1.14c.48-.22 2-.76-.07 0l1.37-.53c.76-.27 1.53-.52 2.3-.74.39-.12.78-.22 1.17-.32s1.27-.19-.37.08c.24 0 .47-.1.71-.15a40.94 40.94 0 0 1 5.28-.76l1.22-.07c1.23-.08-.91 0 .32 0h2.7a49.89 49.89 0 0 1 5.32.52c1.79.27 3.56.64 5.32 1.07.06 0 .88.24.28.07s.22.07.28.08l1.22.36c.91.28 1.8.58 2.69.9a66 66 0 0 1 10.19 4.67 70.1 70.1 0 0 1 9.38 6.38l1 .84c.08.07.76.65.18.14l.39.35c.73.64 1.44 1.29 2.14 2 1.39 1.33 2.73 2.71 4 4.16a58.11 58.11 0 0 1 11 18.57c.29.79-.19-.65.06.16l.18.59c.13.44.26.88.37 1.32.24.88.45 1.76.63 2.65a42.51 42.51 0 0 1 .71 5.15 39.8 39.8 0 0 1 0 5.35c-.06.88-.15 1.75-.25 2.63.12-1.06-.06.31-.1.56-.09.5-.18 1-.29 1.51a40.26 40.26 0 0 1 -1.51 5.28 16.49 16.49 0 0 0 -1.11 2.75c0-.07.46-1 .13-.29-.12.25-.23.5-.36.75-.24.5-.5 1-.77 1.49-.93 1.73-1.94 3.43-2.95 5.1-.23.38-.47.76-.71 1.13-.15.21-.31.43-.45.65.8-1.28.49-.67.25-.35-.63.79-1.26 1.56-1.95 2.29-1 1 1-1 0 0-.32.3-.63.6-1 .89l-1 .84-.51.4c-.42.35 1.54-1.12.39-.3-.71.5-1.43 1-2.17 1.44l-.67.41c1.75-1.08 1.16-.66.76-.45l-1.38.74c-.86.43-1.75.8-2.62 1.2 0 0 1.51-.6.68-.29l-.73.28c-.5.19-1 .36-1.49.52-.83.27-1.66.52-2.51.74l-.76.19s1.35-.29.55-.13l-1.53.31a44.06 44.06 0 0 1 -5.61.68h-.51c-.93.06 1.07 0 .14 0h-1.26c-.9 0-1.81 0-2.72-.11a37.9 37.9 0 0 1 -5-.72l-.68-.16c-.08 0-.83-.21-.21-.05s-.65-.19-.85-.25c-.77-.24-1.54-.52-2.29-.83a22.46 22.46 0 0 1 -3.91-2.06c-.28-.18-.55-.38-.82-.58s-1-.81-.62-.47-.43-.4-.56-.53-.54-.55-.79-.85a13.79 13.79 0 0 1 -2.18-3.35c-.13-.29-.24-.59-.36-.88-.34-.83.11.54-.1-.32a17.9 17.9 0 0 1 -.42-2.16 16.35 16.35 0 0 1 -.07-2.32c0-.37.06-.74.08-1.11 0-.61 0 .19 0 .27 0-.31.1-.62.16-.93a22.25 22.25 0 0 1 .62-2.4 25.11 25.11 0 0 0 1.06-2.8c.1.11-.44.92 0 0l.27-.53c.26-.51.52-1 .81-1.5.63-1.12 1.32-2.2 2.05-3.26.13-.2.27-.39.41-.58.72-1-.71.93.07-.09.38-.51.76-1 1.17-1.51.9-1.1 1.9-2.13 2.88-3.17s1.73-1.81 2.61-2.7-1 1 0 0l.52-.52 1.55-1.49q2.73-2.61 5.59-5c.82-.7 1.66-1.39 2.5-2.06.41-.33.82-.66 1.24-1s1.36-1-.34.26l.74-.55q2.6-1.94 5.32-3.68c.78-.49 1.58-1 2.37-1.45s-1.31.74-.62.36l.59-.33 1.39-.76c1.57-.83 3.17-1.61 4.8-2.3l.67-.29c-1.71.79-1.06.43-.63.26l1.22-.46c.79-.3 1.6-.57 2.41-.83s1.43-.43 2.15-.62c.45-.12 1.81-.35 0 0 .42-.08.83-.19 1.26-.28a40 40 0 0 1 4.5-.66l1-.07c.4 0 1.62 0 0 0h2.14a32.41 32.41 0 0 1 3.93.35c.67.1 1.33.22 2 .36l.89.2.35.09c.62.15-1-.28-.05 0a33.29 33.29 0 0 1 7 3 32.24 32.24 0 0 1 3.12 2.05c.48.35.95.72 1.42 1.1l.41.35c-.69-.55-.37-.32-.22-.19l.81.73a43.81 43.81 0 0 1 9.46 13.21c.61 1.28 1.17 2.59 1.69 3.92.27.71.53 1.42.78 2.14 0 .14.09.27.13.4.25.7-.21-.7 0 0 .12.41.25.81.37 1.22a66.86 66.86 0 0 1 2 9.18 82.37 82.37 0 0 1 .51 20c-.08.87-.17 1.73-.28 2.6 0 .2-.05.41-.08.62-.1.87.13-.82 0 .05-.08.5-.15 1-.22 1.5q-.42 2.65-1 5.28a96.14 96.14 0 0 1 -3 10.93c-.61 1.8-1.28 3.58-2 5.34-.37.9-.74 1.79-1.13 2.67l-.28.63c-.15.33-.63.94 0 0a13.23 13.23 0 0 0 -.72 1.52 103.11 103.11 0 0 1 -5.81 10.49c-1.1 1.74-2.26 3.45-3.45 5.13-.61.86.61-.82.18-.25l-.44.6c-.3.41-.6.81-.91 1.2-.67.89-1.36 1.76-2.06 2.62-1.1 1.36-2.46 4.44.41 4.66s6-1.78 7.72-3.86c10.92-13.45 19-29.34 22.43-46.39 2.84-14.08 2.74-28.78-1.81-42.49-3.59-10.79-10.49-21-21-26.07-12.49-6.06-26.9-3.24-38.91 2.55a103.08 103.08 0 0 0 -23.82 16.48 120.89 120.89 0 0 0 -12.38 12.64 45.88 45.88 0 0 0 -8.24 14c-2.16 6.39-1.54 13.66 3.63 18.42s12.56 6.72 19.56 6.91a50.12 50.12 0 0 0 25.3-6 47.58 47.58 0 0 0 12.36-9.53 53 53 0 0 0 7.26-11 43.66 43.66 0 0 0 5.3-23.77 49 49 0 0 0 -7.18-21.48 68.16 68.16 0 0 0 -36.41-28.55 55.19 55.19 0 0 0 -23.61-2.65 48.92 48.92 0 0 0 -24.58 10.54 48.37 48.37 0 0 0 -8.89 9.3c-.6.82-1.52 2-1.4 3.08a1.84 1.84 0 0 0 1.81 1.58c2.66.2 6.18-1.74 7.72-3.86z" fill="#516eb4"/><path d="m2602.65 1014.82a77.72 77.72 0 1 1 -58.38-93.13 77.73 77.73 0 0 1 58.38 93.13z" fill="#516eb4"/><path d="m2550.29 862.19a30 30 0 1 1 -22.5-35.9 30 30 0 0 1 22.5 35.9z" fill="#516eb4"/><path d="m2686.7 931.08a30 30 0 1 1 -22.51-35.89 30 30 0 0 1 22.51 35.89z" fill="#516eb4"/><path d="m2703.15 1107.48a30 30 0 1 1 -22.5-35.9 29.94 29.94 0 0 1 22.5 35.9z" fill="#516eb4"/><path d="m2505.57 1131.28a30 30 0 1 1 -22.5-35.9 30 30 0 0 1 22.5 35.9z" fill="#516eb4"/><path d="m2389.51 965.88a30 30 0 1 1 -22.51-35.88 30 30 0 0 1 22.51 35.88z" fill="#516eb4"/><path d="m2527.37 970a6.78 6.78 0 0 1 -7.1-6.42l-5.63-112a6.76 6.76 0 0 1 6.42-7.09 6.75 6.75 0 0 1 7.09 6.41l5.63 112a6.76 6.76 0 0 1 -6.41 7.1z" fill="#516eb4"/><path d="m2476.23 1124.65a6.77 6.77 0 0 1 -3.93-8.72l39.7-104.87a6.77 6.77 0 0 1 8.72-3.93 6.76 6.76 0 0 1 3.93 8.72l-39.65 104.87a6.77 6.77 0 0 1 -8.77 3.93z" fill="#516eb4"/><path d="m2547.53 986.73a6.76 6.76 0 0 1 2.69-9.18l98.38-53.82a6.76 6.76 0 0 1 9.18 2.69 6.76 6.76 0 0 1 -2.68 9.18l-98.39 53.82a6.77 6.77 0 0 1 -9.18-2.69z" fill="#516eb4"/><path d="m2659.42 1085.89a6.76 6.76 0 0 1 -9.54.67l-84.64-73.56a6.77 6.77 0 0 1 -.67-9.55 6.75 6.75 0 0 1 9.54-.66l84.64 73.56a6.76 6.76 0 0 1 .67 9.54z" fill="#516eb4"/><path d="m2483.31 982.57a6.78 6.78 0 0 1 -7.8 5.54l-110.57-18.72a6.78 6.78 0 0 1 -5.54-7.8 6.78 6.78 0 0 1 7.8-5.54l110.57 18.72a6.77 6.77 0 0 1 5.54 7.8z" fill="#516eb4"/><path d="m2649.85 1798.31a43.75 43.75 0 1 1 37.34-49.34 43.76 43.76 0 0 1 -37.34 49.34z" fill="#fff"/><path d="m2737.84 1715.34a20 20 0 1 1 8.37-27 20 20 0 0 1 -8.37 27z" fill="#fff"/><path d="m2725.07 1859.43a20 20 0 1 1 -11.12-26 20 20 0 0 1 11.12 26z" fill="#fff"/><path d="m2550.58 1783.86a20 20 0 1 1 17.07-22.55 20 20 0 0 1 -17.07 22.55z" fill="#fff"/><path d="m2626.28 1672.25a20 20 0 1 1 17.07-22.55 20 20 0 0 1 -17.07 22.55z" fill="#fff"/><path d="m2673.32 1750.69a4.54 4.54 0 0 1 .16-6.39l54.21-51.61a4.51 4.51 0 0 1 6.38.16 4.52 4.52 0 0 1 -.15 6.38l-54.21 51.61a4.53 4.53 0 0 1 -6.39-.15z" fill="#fff"/><path d="m2547.77 1764a4.52 4.52 0 0 1 4.51-4.52l74.84-.06a4.51 4.51 0 0 1 4.52 4.51 4.51 4.51 0 0 1 -4.51 4.52l-74.84.06a4.51 4.51 0 0 1 -4.52-4.51z" fill="#fff"/><path d="m2698.47 1840.67a4.51 4.51 0 0 1 -6.36-.55l-48.21-57.25a4.51 4.51 0 0 1 .55-6.36 4.51 4.51 0 0 1 6.36.54l48.2 57.26a4.51 4.51 0 0 1 -.54 6.36z" fill="#fff"/><path d="m2638.1 1734.72a4.51 4.51 0 0 1 -5.31-3.55l-14.52-73.42a4.53 4.53 0 0 1 3.55-5.31 4.53 4.53 0 0 1 5.31 3.56l14.52 73.42a4.51 4.51 0 0 1 -3.55 5.3z" fill="#fff"/><path d="m2619.72 446.69a62.59 62.59 0 1 1 86.69 17.87 62.59 62.59 0 0 1 -86.69-17.87z" fill="#fff"/><path d="m2781 509.29a28.61 28.61 0 1 1 40-5.83 28.61 28.61 0 0 1 -40 5.83z" fill="#fff"/><path d="m2587.06 581.46a28.61 28.61 0 1 1 26.73-30.37 28.62 28.62 0 0 1 -26.73 30.37z" fill="#fff"/><path d="m2577.29 309.59a28.61 28.61 0 1 1 39.62 8.17 28.61 28.61 0 0 1 -39.62-8.17z" fill="#fff"/><path d="m2768 338.68a28.6 28.6 0 1 1 39.62 8.17 28.6 28.6 0 0 1 -39.62-8.17z" fill="#fff"/><path d="m2695.67 447.71a6.46 6.46 0 0 1 8.33-3.71l100 38.25a6.47 6.47 0 0 1 3.73 8.34 6.47 6.47 0 0 1 -8.34 3.73l-100-38.25a6.46 6.46 0 0 1 -3.72-8.36z" fill="#fff"/><path d="m2601.23 293.73a6.45 6.45 0 0 1 8.61 3l46.16 96.67a6.46 6.46 0 0 1 -3 8.61 6.46 6.46 0 0 1 -8.62-3l-46.13-96.63a6.45 6.45 0 0 1 2.98-8.65z" fill="#fff"/><path d="m2594.92 535.55a6.46 6.46 0 0 1 -3.21-8.55l44.29-97.49a6.45 6.45 0 0 1 8.55-3.21 6.47 6.47 0 0 1 3.21 8.55l-44.29 97.49a6.45 6.45 0 0 1 -8.55 3.21z" fill="#fff"/><path d="m2694.6 392.39a6.46 6.46 0 0 1 1.33-9l85.89-63.94a6.46 6.46 0 0 1 9 1.33 6.45 6.45 0 0 1 -1.33 9l-85.89 63.94a6.46 6.46 0 0 1 -9-1.33z" fill="#fff"/><path d="m298.41 533.17a77.72 77.72 0 1 1 -36.63 103.63 77.72 77.72 0 0 1 36.63-103.63z" fill="#516eb4"/><path d="m211.44 669.09a30 30 0 1 1 -14.12 39.91 30 30 0 0 1 14.12-39.91z" fill="#516eb4"/><path d="m180.56 519.43a30 30 0 1 1 -14.12 39.94 30 30 0 0 1 14.12-39.94z" fill="#516eb4"/><path d="m308.47 396.84a30 30 0 1 1 -14.12 39.94 29.95 29.95 0 0 1 14.12-39.94z" fill="#516eb4"/><path d="m450 536.76a30 30 0 1 1 -14.12 40 30 30 0 0 1 14.12-40z" fill="#516eb4"/><path d="m392.63 730.51a30 30 0 1 1 -14.12 40 30 30 0 0 1 14.12-40z" fill="#516eb4"/><path d="m310.12 620a6.76 6.76 0 0 1 -.61 9.54l-84.21 74.06a6.77 6.77 0 0 1 -9.55-.61 6.77 6.77 0 0 1 .62-9.55l84.21-74.05a6.75 6.75 0 0 1 9.54.61z" fill="#516eb4"/><path d="m463 563.87a6.76 6.76 0 0 1 -4.38 8.5l-106.84 34.1a6.77 6.77 0 0 1 -8.5-4.39 6.77 6.77 0 0 1 4.39-8.5l106.83-34.1a6.77 6.77 0 0 1 8.5 4.39z" fill="#516eb4"/><path d="m310.68 593.8a6.77 6.77 0 0 1 -8.86 3.61l-103.32-43.58a6.76 6.76 0 0 1 -3.61-8.86 6.77 6.77 0 0 1 8.86-3.61l103.33 43.58a6.76 6.76 0 0 1 3.6 8.86z" fill="#516eb4"/><path d="m325 439.84a6.77 6.77 0 0 1 7.18 6.32l7.11 111.92a6.76 6.76 0 0 1 -6.32 7.18 6.77 6.77 0 0 1 -7.18-6.32l-7.13-111.94a6.76 6.76 0 0 1 6.34-7.16z" fill="#516eb4"/><path d="m347.37 646.68a6.75 6.75 0 0 1 9.18 2.67l54.1 98.22a6.76 6.76 0 0 1 -2.66 9.19 6.77 6.77 0 0 1 -9.19-2.66l-54.1-98.23a6.77 6.77 0 0 1 2.67-9.19z" fill="#516eb4"/><path d="m530.82 1737c17.8 28.25 10 65.82-17.34 83.9s-64 9.85-81.8-18.4-10-65.81 17.34-83.9 63.98-9.89 81.8 18.4z" fill="#516eb4"/><path d="m419.67 1682.64a23.71 23.71 0 0 1 -6.67 32.36 22.51 22.51 0 0 1 -31.53-7.1 23.72 23.72 0 0 1 6.69-32.34 22.51 22.51 0 0 1 31.51 7.08z" fill="#516eb4"/><path d="m529.49 1644.25a23.72 23.72 0 0 1 -6.68 32.34 22.52 22.52 0 0 1 -31.54-7.1 23.72 23.72 0 0 1 6.69-32.34 22.51 22.51 0 0 1 31.53 7.1z" fill="#516eb4"/><path d="m634.65 1731.6a23.73 23.73 0 0 1 -6.65 32.4 22.51 22.51 0 0 1 -31.53-7.1 23.71 23.71 0 0 1 6.69-32.34 22.51 22.51 0 0 1 31.49 7.04z" fill="#516eb4"/><path d="m543.15 1854.85a23.71 23.71 0 0 1 -6.69 32.34 22.51 22.51 0 0 1 -31.53-7.09 23.72 23.72 0 0 1 6.69-32.34 22.51 22.51 0 0 1 31.53 7.09z" fill="#516eb4"/><path d="m391.32 1829.07a23.73 23.73 0 0 1 -6.68 32.35 22.51 22.51 0 0 1 -31.53-7.1 23.72 23.72 0 0 1 6.68-32.34 22.52 22.52 0 0 1 31.53 7.09z" fill="#516eb4"/><path d="m466.49 1754.43a5 5 0 0 1 -7.26.44l-64.23-58.15a5.4 5.4 0 0 1 -.49-7.47 5 5 0 0 1 7.26-.44l64.23 58.19a5.4 5.4 0 0 1 .49 7.43z" fill="#516eb4"/><path d="m524 1867.59a5.12 5.12 0 0 1 -6.85-2.58l-36.32-79.56a5.31 5.31 0 0 1 2.47-7 5.1 5.1 0 0 1 6.84 2.58l36.33 79.55a5.33 5.33 0 0 1 -2.47 7.01z" fill="#516eb4"/><path d="m486.3 1752.33a5.33 5.33 0 0 1 -3.59-6.52l22.61-84.34a5.1 5.1 0 0 1 6.33-3.65 5.34 5.34 0 0 1 3.59 6.53l-22.61 84.33a5.09 5.09 0 0 1 -6.33 3.65z" fill="#516eb4"/><path d="m603.85 1748.56a5.24 5.24 0 0 1 -4.06 6.18l-83.7 16.32a5.21 5.21 0 0 1 -6.05-4.21 5.25 5.25 0 0 1 4.06-6.18l83.71-16.32a5.2 5.2 0 0 1 6.04 4.21z" fill="#516eb4"/><path d="m450.06 1785.88a5.38 5.38 0 0 1 -1.1 7.39l-68.72 51.43a5.06 5.06 0 0 1 -7.19-1.18 5.37 5.37 0 0 1 1.1-7.38l68.72-51.43a5.06 5.06 0 0 1 7.19 1.17z" fill="#516eb4"/><path d="m1938.64 183.84c25.11 9.16 38.6 36.73 30.14 61.59s-35.67 37.57-60.78 28.44-38.6-36.73-30.14-61.59 35.67-37.59 60.78-28.44z" fill="#516eb4"/><path d="m1841.29 178.88a21.6 21.6 0 0 1 5.55 29.56 20.49 20.49 0 0 1 -29 4.92 21.58 21.58 0 0 1 -5.55-29.55 20.5 20.5 0 0 1 29-4.93z" fill="#516eb4"/><path d="m2007.7 112.77a23.71 23.71 0 0 1 14.51 29.66 22.5 22.5 0 0 1 -29.27 13.7 23.73 23.73 0 0 1 -14.52-29.67 22.52 22.52 0 0 1 29.28-13.69z" fill="#516eb4"/><path d="m2003.05 209.08a23.7 23.7 0 0 1 16.68-28.5 22.51 22.51 0 0 1 27.6 16.81 23.71 23.71 0 0 1 -16.68 28.5 22.51 22.51 0 0 1 -27.6-16.81z" fill="#516eb4"/><path d="m1905.56 223.17a4.58 4.58 0 0 1 -6 2.88l-74.21-26.78a4.92 4.92 0 0 1 -3-6.12 4.59 4.59 0 0 1 6-2.89l74.21 26.79a4.91 4.91 0 0 1 3 6.12z" fill="#516eb4"/><path d="m1993.73 145a5.23 5.23 0 0 1 .57 7.37l-56.19 64.15a5.19 5.19 0 0 1 -7.35.37 5.23 5.23 0 0 1 -.58-7.36l56.19-64.16a5.21 5.21 0 0 1 7.36-.37z" fill="#516eb4"/><path d="m1933.57 231.19a5.37 5.37 0 0 1 3.4-6.64l81.57-26.73a5.07 5.07 0 0 1 6.44 3.42 5.36 5.36 0 0 1 -3.4 6.64l-81.58 26.73a5.07 5.07 0 0 1 -6.43-3.42z" fill="#516eb4"/><path d="m180.75 1636.31c-15.63 24.82-48.34 32.93-73.06 18.1s-32.1-47-16.46-71.81 48.34-32.93 73.06-18.1 32.09 46.98 16.46 71.81z" fill="#fff"/><path d="m208.59 1533a23.7 23.7 0 0 1 -33-.89 22.5 22.5 0 0 1 1.42-32.27 23.7 23.7 0 0 1 33 .88 22.5 22.5 0 0 1 -1.42 32.28z" fill="#fff"/><path d="m241.05 1726.85c-7.53 12-23.28 15.86-35.19 8.72a24.72 24.72 0 0 1 -7.93-34.58c7.53-12 23.29-15.86 35.19-8.72a24.7 24.7 0 0 1 7.93 34.58z" fill="#fff"/><path d="m138.78 1699.59c14.12-.34 26.09 10.62 26.72 24.49a24.71 24.71 0 0 1 -24.43 25.73c-14.12.34-26.09-10.62-26.72-24.49a24.71 24.71 0 0 1 24.43-25.73z" fill="#fff"/><path d="m146.2 1591.71a5 5 0 0 1 -1.72-7.07l45.91-73.43a5.4 5.4 0 0 1 7.26-1.8 5 5 0 0 1 1.72 7.07l-45.91 73.43a5.4 5.4 0 0 1 -7.26 1.8z" fill="#fff"/><path d="m209.66 1704.4a5.76 5.76 0 0 1 -8-1.09l-55.85-75.14a5.7 5.7 0 0 1 1.3-8 5.75 5.75 0 0 1 8 1.08l55.89 75.17a5.7 5.7 0 0 1 -1.34 7.98z" fill="#fff"/><path d="m131.11 1619.92a5.88 5.88 0 0 1 6.34 5.18l9.82 93.72a5.57 5.57 0 0 1 -5.15 6.12 5.9 5.9 0 0 1 -6.35-5.19l-9.77-93.75a5.57 5.57 0 0 1 5.11-6.08z" fill="#fff"/><path d="m407 1134c-21.65 15.67-52 11.41-67.91-9.53s-11.17-50.61 10.48-66.28 52.05-11.41 67.91 9.52 11.18 50.63-10.48 66.29z" fill="#516eb4"/><path d="m465.64 1056.14a21.59 21.59 0 0 1 -27.59-12 20.5 20.5 0 0 1 12.17-26.8 21.59 21.59 0 0 1 27.59 11.95 20.5 20.5 0 0 1 -12.17 26.85z" fill="#516eb4"/><path d="m427.22 1231a23.71 23.71 0 0 1 -32.7-4.59 22.5 22.5 0 0 1 5.05-31.92 23.71 23.71 0 0 1 32.7 4.59 22.5 22.5 0 0 1 -5.05 31.92z" fill="#516eb4"/><path d="m354.86 1027.07a23.72 23.72 0 0 1 -29.08-15.65 22.52 22.52 0 0 1 15.82-28.19 23.71 23.71 0 0 1 29.07 15.66 22.5 22.5 0 0 1 -15.81 28.18z" fill="#516eb4"/><path d="m393 1084.58a4.59 4.59 0 0 1 1-6.55l63.75-46.48a4.91 4.91 0 0 1 6.74 1 4.59 4.59 0 0 1 -.95 6.56l-63.75 46.47a4.9 4.9 0 0 1 -6.79-1z" fill="#516eb4"/><path d="m408.32 1201.39a5.24 5.24 0 0 1 -6.43-3.65l-21.68-82.48a5.2 5.2 0 0 1 3.79-6.26 5.24 5.24 0 0 1 6.43 3.65l21.68 82.48a5.2 5.2 0 0 1 -3.79 6.26z" fill="#516eb4"/><path d="m379.44 1095.71a5.37 5.37 0 0 1 -6.76-3.16l-29.63-80.55a5.08 5.08 0 0 1 3.19-6.56 5.37 5.37 0 0 1 6.76 3.16l29.63 80.56a5.08 5.08 0 0 1 -3.19 6.55z" fill="#516eb4"/><path d="m236.62 128.18a40.41 40.41 0 1 1 -40.41-40.41 40.41 40.41 0 0 1 40.41 40.41z" fill="#fff"/><path d="m247.49 189a18.64 18.64 0 1 1 -18.64 18.64 18.66 18.66 0 0 1 18.64-18.64zm0-11a29.64 29.64 0 1 0 29.64 29.64 29.64 29.64 0 0 0 -29.64-29.64z" fill="#fff"/><path d="m2258 80a18.64 18.64 0 1 1 -18.63 18.63 18.66 18.66 0 0 1 18.63-18.63zm0-11a29.65 29.65 0 1 0 29.65 29.64 29.65 29.65 0 0 0 -29.65-29.64z" fill="#516eb4"/><path d="m231.81 1252a18.64 18.64 0 1 1 -18.64 18.64 18.66 18.66 0 0 1 18.64-18.64zm0-11a29.64 29.64 0 1 0 29.64 29.64 29.64 29.64 0 0 0 -29.64-29.64z" fill="#fff"/><path d="m1568.57 117.23a29.64 29.64 0 1 1 -29.64-29.64 29.64 29.64 0 0 1 29.64 29.64z" fill="#fff"/><path d="m2943.79 1313.85a29.65 29.65 0 1 1 -29.65-29.64 29.65 29.65 0 0 1 29.65 29.64z" fill="#fff"/><path d="m2850.38 1158.32a39.3 39.3 0 1 1 -14.9 3 39.09 39.09 0 0 1 14.9-3zm0-23.14a62.36 62.36 0 1 0 57.67 38.63 62.26 62.26 0 0 0 -57.67-38.63z" fill="#fff"/></g></svg>