<svg width="26" height="26" viewBox="0 0 26 26" fill="none" xmlns="http://www.w3.org/2000/svg">
<g clip-path="url(#clip0_18_372)">
<path d="M26 9.75C26.0025 9.15361 25.8408 8.56803 25.5326 8.0574C25.2245 7.54677 24.7818 7.13077 24.253 6.85496C23.7242 6.57915 23.1297 6.45417 22.5346 6.49369C21.9396 6.53322 21.3668 6.73573 20.8791 7.07905C20.3915 7.42237 20.0077 7.89326 19.7698 8.44016C19.5319 8.98705 19.4491 9.58887 19.5304 10.1797C19.6117 10.7705 19.854 11.3276 20.2308 11.7899C20.6076 12.2522 21.1044 12.6019 21.6667 12.8007V17.3333C21.6667 19.0572 20.9818 20.7105 19.7629 21.9295C18.5439 23.1485 16.8906 23.8333 15.1667 23.8333C13.4428 23.8333 11.7895 23.1485 10.5705 21.9295C9.35149 20.7105 8.66667 19.0572 8.66667 17.3333V17.2467C10.4694 16.9851 12.118 16.0839 13.3113 14.7076C14.5047 13.3312 15.1632 11.5716 15.1667 9.75V5.41667C15.1649 3.98061 14.5937 2.60385 13.5783 1.5884C12.5628 0.572955 11.1861 0.00172018 9.75 0C9.46268 0 9.18713 0.114137 8.98397 0.317301C8.7808 0.520465 8.66667 0.796015 8.66667 1.08333C8.66667 1.37065 8.7808 1.6462 8.98397 1.84937C9.18713 2.05253 9.46268 2.16667 9.75 2.16667C10.612 2.16667 11.4386 2.50908 12.0481 3.11857C12.6576 3.72806 13 4.55471 13 5.41667V9.75C13 11.1866 12.4293 12.5643 11.4135 13.5802C10.3977 14.596 9.01992 15.1667 7.58333 15.1667C6.14674 15.1667 4.76899 14.596 3.75317 13.5802C2.73735 12.5643 2.16667 11.1866 2.16667 9.75V5.41667C2.16667 4.55471 2.50908 3.72806 3.11857 3.11857C3.72806 2.50908 4.55471 2.16667 5.41667 2.16667C5.70398 2.16667 5.97953 2.05253 6.1827 1.84937C6.38586 1.6462 6.5 1.37065 6.5 1.08333C6.5 0.796015 6.38586 0.520465 6.1827 0.317301C5.97953 0.114137 5.70398 0 5.41667 0C3.98061 0.00172018 2.60385 0.572955 1.5884 1.5884C0.572955 2.60385 0.00172018 3.98061 0 5.41667L0 9.75C0.00348395 11.5716 0.662016 13.3312 1.85536 14.7076C3.0487 16.0839 4.69725 16.9851 6.5 17.2467V17.3333C6.5 19.6319 7.41309 21.8363 9.03841 23.4616C10.6637 25.0869 12.8681 26 15.1667 26C17.4652 26 19.6696 25.0869 21.2949 23.4616C22.9202 21.8363 23.8333 19.6319 23.8333 17.3333V12.8007C24.4648 12.5774 25.0119 12.1645 25.3997 11.6184C25.7876 11.0723 25.9972 10.4198 26 9.75V9.75ZM22.75 10.8333C22.5357 10.8333 22.3263 10.7698 22.1481 10.6508C21.97 10.5317 21.8311 10.3625 21.7491 10.1646C21.6671 9.96662 21.6457 9.7488 21.6875 9.53865C21.7293 9.32851 21.8325 9.13548 21.984 8.98397C22.1355 8.83246 22.3285 8.72928 22.5387 8.68748C22.7488 8.64568 22.9666 8.66714 23.1646 8.74913C23.3625 8.83113 23.5317 8.96998 23.6508 9.14813C23.7698 9.32629 23.8333 9.53574 23.8333 9.75C23.8333 10.0373 23.7192 10.3129 23.516 10.516C23.3129 10.7192 23.0373 10.8333 22.75 10.8333Z" fill="black"/>
</g>
<defs>
<clipPath id="clip0_18_372">
<rect width="26" height="26" fill="white"/>
</clipPath>
</defs>
</svg>
