<svg width="21" height="21" viewBox="0 0 21 21" fill="none" xmlns="http://www.w3.org/2000/svg">
<g clip-path="url(#clip0_157_6331)">
<path d="M10.5 0C8.4233 0 6.39323 0.615814 4.66652 1.76957C2.9398 2.92332 1.59399 4.5632 0.79927 6.48182C0.0045495 8.40045 -0.203386 10.5116 0.201759 12.5484C0.606904 14.5852 1.60693 16.4562 3.07538 17.9246C4.54383 19.3931 6.41476 20.3931 8.45156 20.7982C10.4884 21.2034 12.5996 20.9955 14.5182 20.2007C16.4368 19.406 18.0767 18.0602 19.2304 16.3335C20.3842 14.6068 21 12.5767 21 10.5C20.997 7.71615 19.8898 5.04718 17.9213 3.0787C15.9528 1.11022 13.2839 0.00301095 10.5 0V0ZM10.5 19.25C8.76942 19.25 7.07769 18.7368 5.63876 17.7754C4.19983 16.8139 3.07833 15.4473 2.41606 13.8485C1.75379 12.2496 1.58051 10.4903 1.91813 8.79296C2.25575 7.09563 3.08911 5.53653 4.31282 4.31282C5.53653 3.08911 7.09563 2.25575 8.79296 1.91813C10.4903 1.58051 12.2496 1.75379 13.8485 2.41605C15.4473 3.07832 16.8139 4.19983 17.7754 5.63876C18.7368 7.07769 19.25 8.76941 19.25 10.5C19.2475 12.8199 18.3248 15.044 16.6844 16.6844C15.044 18.3248 12.8199 19.2475 10.5 19.25Z" fill="white"/>
<path d="M10.5 4.375C10.2679 4.375 10.0454 4.46719 9.88128 4.63128C9.71719 4.79538 9.625 5.01794 9.625 5.25V12.25C9.625 12.4821 9.71719 12.7046 9.88128 12.8687C10.0454 13.0328 10.2679 13.125 10.5 13.125C10.7321 13.125 10.9546 13.0328 11.1187 12.8687C11.2828 12.7046 11.375 12.4821 11.375 12.25V5.25C11.375 5.01794 11.2828 4.79538 11.1187 4.63128C10.9546 4.46719 10.7321 4.375 10.5 4.375Z" fill="white"/>
<path d="M11.375 15.75C11.375 15.2668 10.9832 14.875 10.5 14.875C10.0168 14.875 9.625 15.2668 9.625 15.75C9.625 16.2332 10.0168 16.625 10.5 16.625C10.9832 16.625 11.375 16.2332 11.375 15.75Z" fill="white"/>
</g>
<defs>
<clipPath id="clip0_157_6331">
<rect width="21" height="21" fill="white"/>
</clipPath>
</defs>
</svg>
