<svg width="18" height="19" viewBox="0 0 18 19" fill="none" xmlns="http://www.w3.org/2000/svg">
<g clip-path="url(#clip0_50_848)">
<path d="M17.7109 9.71583C17.7109 9.108 17.6519 8.48056 17.5535 7.89233H9.03015V11.3629H13.9119C13.715 12.4805 13.0654 13.4609 12.1009 14.0883L15.0142 16.3432C16.7267 14.7549 17.7109 12.4413 17.7109 9.71583Z" fill="#4280EF"/>
<path d="M9.03018 18.5C11.471 18.5 13.5182 17.6961 15.0142 16.3236L12.1009 14.0883C11.2939 14.6373 10.2506 14.9511 9.03018 14.9511C6.66806 14.9511 4.67994 13.3628 3.95162 11.2452L0.959595 13.5393C2.49498 16.5785 5.60511 18.5 9.03018 18.5Z" fill="#34A353"/>
<path d="M3.95164 11.2257C3.57763 10.108 3.57763 8.89237 3.95164 7.77474L0.959613 5.46106C-0.319871 8.01003 -0.319871 11.01 0.959613 13.5393L3.95164 11.2257Z" fill="#F6B704"/>
<path d="M9.03018 4.0689C10.3097 4.0493 11.5695 4.53948 12.4946 5.42182L15.0733 2.83363C13.4395 1.30425 11.2742 0.480735 9.03018 0.500342C5.6051 0.500342 2.49498 2.42188 0.959595 5.46103L3.95162 7.77472C4.67994 5.6375 6.66806 4.0689 9.03018 4.0689Z" fill="#E54335"/>
</g>
<defs>
<clipPath id="clip0_50_848">
<rect width="18" height="18" fill="white" transform="translate(0 0.5)"/>
</clipPath>
</defs>
</svg>
