<svg width="26" height="26" viewBox="0 0 26 26" fill="none" xmlns="http://www.w3.org/2000/svg">
<g clip-path="url(#clip0_157_1290)">
<path d="M13 0C10.4288 0 7.91543 0.762437 5.77759 2.1909C3.63975 3.61935 1.97351 5.64968 0.989572 8.02512C0.00563272 10.4006 -0.251811 13.0144 0.249797 15.5362C0.751405 18.0579 1.98954 20.3743 3.80762 22.1924C5.6257 24.0105 7.94208 25.2486 10.4638 25.7502C12.9856 26.2518 15.5995 25.9944 17.9749 25.0104C20.3503 24.0265 22.3807 22.3603 23.8091 20.2224C25.2376 18.0846 26 15.5712 26 13C25.9963 9.55333 24.6254 6.24889 22.1883 3.81173C19.7511 1.37456 16.4467 0.00372784 13 0V0ZM13 23.8333C10.8574 23.8333 8.76286 23.198 6.98133 22.0076C5.1998 20.8172 3.81126 19.1253 2.99131 17.1457C2.17136 15.1662 1.95683 12.988 2.37483 10.8865C2.79284 8.78506 3.82461 6.85475 5.33968 5.33968C6.85475 3.82461 8.78507 2.79283 10.8865 2.37483C12.988 1.95682 15.1662 2.17136 17.1457 2.99131C19.1253 3.81125 20.8172 5.19979 22.0076 6.98132C23.198 8.76286 23.8333 10.8574 23.8333 13C23.8302 15.8722 22.6878 18.6259 20.6568 20.6568C18.6259 22.6878 15.8722 23.8302 13 23.8333Z" fill="black"/>
<path d="M13.7768 5.48498C13.1521 5.37115 12.51 5.39602 11.8959 5.55782C11.2819 5.71963 10.7109 6.01441 10.2234 6.42131C9.73587 6.82821 9.34374 7.33729 9.07474 7.91251C8.80575 8.48774 8.66646 9.11505 8.66675 9.75006C8.66675 10.0374 8.78089 10.3129 8.98405 10.5161C9.18721 10.7193 9.46276 10.8334 9.75008 10.8334C10.0374 10.8334 10.3129 10.7193 10.5161 10.5161C10.7193 10.3129 10.8334 10.0374 10.8334 9.75006C10.8331 9.43132 10.9032 9.11644 11.0386 8.82788C11.174 8.53932 11.3714 8.28419 11.6167 8.08068C11.862 7.87716 12.1492 7.73028 12.4578 7.6505C12.7664 7.57073 13.0888 7.56002 13.402 7.61915C13.83 7.70222 14.2234 7.91098 14.5322 8.21876C14.8409 8.52654 15.0509 8.91937 15.1353 9.34706C15.2206 9.796 15.1617 10.2604 14.9671 10.6739C14.7726 11.0873 14.4523 11.4287 14.052 11.6491C13.3892 12.0332 12.8415 12.5879 12.4659 13.2555C12.0904 13.9232 11.9007 14.6793 11.9167 15.4451V16.2501C11.9167 16.5374 12.0309 16.8129 12.234 17.0161C12.4372 17.2193 12.7128 17.3334 13.0001 17.3334C13.2874 17.3334 13.5629 17.2193 13.7661 17.0161C13.9693 16.8129 14.0834 16.5374 14.0834 16.2501V15.4451C14.0698 15.0682 14.1558 14.6942 14.3327 14.361C14.5095 14.0278 14.7711 13.7471 15.0909 13.5471C15.8758 13.1161 16.5079 12.4524 16.9002 11.6474C17.2925 10.8424 17.4258 9.9357 17.2817 9.05188C17.1377 8.16806 16.7233 7.35058 16.0957 6.71185C15.4681 6.07312 14.658 5.64452 13.7768 5.48498Z" fill="black"/>
<path d="M14.0834 19.5001C14.0834 18.9018 13.5984 18.4167 13.0001 18.4167C12.4018 18.4167 11.9167 18.9018 11.9167 19.5001C11.9167 20.0984 12.4018 20.5834 13.0001 20.5834C13.5984 20.5834 14.0834 20.0984 14.0834 19.5001Z" fill="black"/>
</g>
<defs>
<clipPath id="clip0_157_1290">
<rect width="26" height="26" fill="white"/>
</clipPath>
</defs>
</svg>
