<svg width="26" height="26" viewBox="0 0 26 26" fill="none" xmlns="http://www.w3.org/2000/svg">
<g clip-path="url(#clip0_157_2024)">
<path d="M20.5832 9.126V7.58333C20.5832 5.57211 19.7842 3.64326 18.3621 2.22111C16.9399 0.798956 15.0111 0 12.9998 0C10.9886 0 9.05976 0.798956 7.63761 2.22111C6.21546 3.64326 5.4165 5.57211 5.4165 7.58333V9.126C4.45164 9.5471 3.6304 10.2402 3.05321 11.1206C2.47602 12.0011 2.16789 13.0306 2.1665 14.0833V20.5833C2.16822 22.0194 2.73946 23.3961 3.75491 24.4116C4.77036 25.427 6.14711 25.9983 7.58317 26H18.4165C19.8526 25.9983 21.2293 25.427 22.2448 24.4116C23.2602 23.3961 23.8315 22.0194 23.8332 20.5833V14.0833C23.8318 13.0306 23.5237 12.0011 22.9465 11.1206C22.3693 10.2402 21.548 9.5471 20.5832 9.126ZM7.58317 7.58333C7.58317 6.14674 8.15385 4.76899 9.16968 3.75317C10.1855 2.73735 11.5632 2.16667 12.9998 2.16667C14.4364 2.16667 15.8142 2.73735 16.83 3.75317C17.8458 4.76899 18.4165 6.14674 18.4165 7.58333V8.66667H7.58317V7.58333ZM21.6665 20.5833C21.6665 21.4453 21.3241 22.2719 20.7146 22.8814C20.1051 23.4909 19.2785 23.8333 18.4165 23.8333H7.58317C6.72122 23.8333 5.89457 23.4909 5.28507 22.8814C4.67558 22.2719 4.33317 21.4453 4.33317 20.5833V14.0833C4.33317 13.2214 4.67558 12.3947 5.28507 11.7852C5.89457 11.1757 6.72122 10.8333 7.58317 10.8333H18.4165C19.2785 10.8333 20.1051 11.1757 20.7146 11.7852C21.3241 12.3947 21.6665 13.2214 21.6665 14.0833V20.5833Z" fill="black"/>
<path d="M12.9998 15.1667C12.7125 15.1667 12.437 15.2809 12.2338 15.484C12.0306 15.6872 11.9165 15.9628 11.9165 16.2501V18.4167C11.9165 18.7041 12.0306 18.9796 12.2338 19.1828C12.437 19.3859 12.7125 19.5001 12.9998 19.5001C13.2872 19.5001 13.5627 19.3859 13.7659 19.1828C13.969 18.9796 14.0832 18.7041 14.0832 18.4167V16.2501C14.0832 15.9628 13.969 15.6872 13.7659 15.484C13.5627 15.2809 13.2872 15.1667 12.9998 15.1667Z" fill="black"/>
</g>
<defs>
<clipPath id="clip0_157_2024">
<rect width="26" height="26" fill="white"/>
</clipPath>
</defs>
</svg>
