<svg width="26" height="26" viewBox="0 0 26 26" fill="none" xmlns="http://www.w3.org/2000/svg">
<g clip-path="url(#clip0_157_1294)">
<path d="M20.475 -2.39776e-05H5.525C4.07445 -0.0130226 2.678 0.550035 1.64216 1.56556C0.606322 2.58109 0.0157248 3.96612 0 5.41664L0 8.66664C0 8.95396 0.114137 9.22951 0.317301 9.43268C0.520465 9.63584 0.796016 9.74998 1.08333 9.74998C1.37065 9.74998 1.6462 9.63584 1.84937 9.43268C2.05253 9.22951 2.16667 8.95396 2.16667 8.66664V5.41664C2.18206 4.54066 2.54427 3.70654 3.17385 3.09726C3.80344 2.48799 4.64898 2.15331 5.525 2.16664H20.475C21.351 2.15331 22.1966 2.48799 22.8261 3.09726C23.4557 3.70654 23.8179 4.54066 23.8333 5.41664V20.5833C23.8179 21.4593 23.4557 22.2934 22.8261 22.9027C22.1966 23.512 21.351 23.8466 20.475 23.8333H5.525C4.64898 23.8466 3.80344 23.512 3.17385 22.9027C2.54427 22.2934 2.18206 21.4593 2.16667 20.5833V17.3333C2.16667 17.046 2.05253 16.7704 1.84937 16.5673C1.6462 16.3641 1.37065 16.25 1.08333 16.25C0.796016 16.25 0.520465 16.3641 0.317301 16.5673C0.114137 16.7704 0 17.046 0 17.3333L0 20.5833C0.0157248 22.0338 0.606322 23.4189 1.64216 24.4344C2.678 25.4499 4.07445 26.013 5.525 26H20.475C21.9256 26.013 23.322 25.4499 24.3578 24.4344C25.3937 23.4189 25.9843 22.0338 26 20.5833V5.41664C25.9843 3.96612 25.3937 2.58109 24.3578 1.56556C23.322 0.550035 21.9256 -0.0130226 20.475 -2.39776e-05Z" fill="black"/>
<path d="M3.25 13C3.25 13.2873 3.36414 13.5628 3.5673 13.766C3.77047 13.9691 4.04602 14.0833 4.33333 14.0833L18.6203 14.0508L13.9371 18.734C13.8336 18.834 13.7511 18.9535 13.6943 19.0857C13.6375 19.2179 13.6076 19.36 13.6064 19.5039C13.6051 19.6477 13.6326 19.7903 13.687 19.9235C13.7415 20.0566 13.8219 20.1776 13.9237 20.2793C14.0254 20.381 14.1463 20.4615 14.2795 20.5159C14.4126 20.5704 14.5553 20.5978 14.6991 20.5966C14.8429 20.5953 14.9851 20.5654 15.1173 20.5086C15.2494 20.4519 15.369 20.3693 15.4689 20.2659L20.4371 15.2977C21.0464 14.6882 21.3886 13.8617 21.3886 13C21.3886 12.1382 21.0464 11.3117 20.4371 10.7022L15.4711 5.73404C15.2668 5.5367 14.9931 5.4275 14.7091 5.42997C14.425 5.43244 14.1533 5.54637 13.9524 5.74723C13.7516 5.94809 13.6377 6.21981 13.6352 6.50385C13.6327 6.7879 13.7419 7.06155 13.9392 7.26587L18.5564 11.8841L4.33333 11.9166C4.04602 11.9166 3.77047 12.0308 3.5673 12.2339C3.36414 12.4371 3.25 12.7126 3.25 13Z" fill="black"/>
</g>
<defs>
<clipPath id="clip0_157_1294">
<rect width="26" height="26" fill="white"/>
</clipPath>
</defs>
</svg>
