<svg xmlns="http://www.w3.org/2000/svg" xmlns:xlink="http://www.w3.org/1999/xlink" viewBox="0 0 109 113.89"><defs><style>.cls-1{fill:none;}.cls-2{fill:#a5d2d5;}.cls-3{clip-path:url(#clip-path);}.cls-4{fill:#516eb4;}.cls-5{clip-path:url(#clip-path-2);}.cls-6{fill:#a5d1d4;}.cls-7{clip-path:url(#clip-path-3);}</style><clipPath id="clip-path" transform="translate(0 -0.06)"><rect class="cls-1" x="21.6" width="50.67" height="71.14"/></clipPath><clipPath id="clip-path-2" transform="translate(0 -0.06)"><rect class="cls-1" x="70.94" y="43.14" width="38.06" height="33.33"/></clipPath><clipPath id="clip-path-3" transform="translate(0 -0.06)"><rect class="cls-1" x="37.6" y="43.14" width="49.33" height="70.86"/></clipPath></defs><g id="Layer_2" data-name="Layer 2"><g id="Layer_1-2" data-name="Layer 1"><path class="cls-2" d="M16.65,37.61h21.2c0,20.26-8.86,32.44-15.76,33l-1.31,0H16.65A16.65,16.65,0,0,1,4.88,65.81,16.38,16.38,0,0,1,0,54.13,16.58,16.58,0,0,1,16.65,37.61" transform="translate(0 -0.06)"/><g class="cls-3"><path class="cls-4" d="M71.15,16.58v9.47a27.77,27.77,0,0,1-8.24,19.73l-13,12.9A41.36,41.36,0,0,1,22.09,70.63c6.9-.58,15.76-12.76,15.76-33v-21a16.65,16.65,0,0,1,33.3,0" transform="translate(0 -0.06)"/></g><g class="cls-5"><path class="cls-6" d="M92.35,76.4H71.15c0-20.25,8.86-32.43,15.76-33,.43,0,.87,0,1.3,0h4.14a16.69,16.69,0,0,1,11.78,4.84A16.5,16.5,0,0,1,92.35,76.4" transform="translate(0 -0.06)"/></g><g class="cls-7"><path class="cls-4" d="M37.85,97.43V88a27.8,27.8,0,0,1,8.23-19.73l13-12.9A41.35,41.35,0,0,1,86.91,43.39C80,44,71.15,56.15,71.15,76.4v21a16.65,16.65,0,0,1-33.3,0" transform="translate(0 -0.06)"/></g></g></g></svg>