<svg width="358" height="199" viewBox="0 0 358 199" fill="none" xmlns="http://www.w3.org/2000/svg">
<path d="M19.8349 197.666C19.8349 197.666 -30.8451 79.9387 78.1604 58.052C146.176 44.3965 144.398 -3.0826 240.641 0.158177C339.197 3.47809 300.385 94.9729 313.172 115.901C325.959 136.83 358.776 145.227 346.876 197.666H19.8349Z" fill="#EBF3FA"/>
<path d="M251.94 25.6408C248.443 17.8931 234.953 22.5237 234.953 22.5237C234.953 22.5237 227.745 38.1032 225.056 38.8525C222.367 39.6018 228.572 24.3524 228.572 24.3524C223.179 24.6517 210.641 33.1041 210.641 33.1041C210.641 33.1041 214.089 49.4812 211.293 49.5603C208.497 49.6394 208.994 34.9057 208.994 34.9057C204.086 37.2006 200.215 43.8231 200.215 43.8231C195.721 54.333 209.687 59.4607 209.687 59.4607C209.687 59.4607 210.757 65.1608 208.189 72.2754C205.62 79.3901 207.559 73.6121 207.064 75.7981L208.465 75.5867C208.522 75.1997 208.591 74.8226 208.678 74.459V74.443C208.741 74.2154 208.832 73.8915 208.945 73.4971C209.058 73.1026 208.945 73.4971 208.945 73.4971C209.244 72.608 209.438 71.9552 209.551 71.489C210.432 68.7082 211.75 65.0594 212.871 64.1642C212.712 63.987 212.578 63.7899 212.472 63.5781L212.871 64.1642C216.064 68.8541 228.196 67.8736 234.669 65.5243C241.141 63.175 237.94 61.7531 233.866 59.2913C229.791 56.8295 222.377 58.7646 219.964 57.9225C217.55 57.0805 220.622 55.4088 225.132 55.0712C229.642 54.7337 232.556 58.7806 239.862 58.3578C247.167 57.9349 250.565 43.8021 250.565 43.8021C245.831 46.0722 236.494 44.7269 235.888 43.0948C235.281 41.4627 248.506 39.6327 250.484 38.8142C252.462 37.9956 255.438 33.3885 251.94 25.6408Z" fill="#DFEBFD"/>
<path d="M291.069 159.728C303.614 152.365 292.932 131.018 292.932 131.018C292.932 131.018 264.795 122.29 262.958 117.998C261.121 113.707 288.502 120.842 288.502 120.842C286.886 111.99 269.856 92.997 269.856 92.997C269.856 92.997 242.528 102.042 241.822 97.4384C241.116 92.835 266.435 90.6378 266.435 90.6378C261.505 83.0001 249.377 77.9504 249.377 77.9504C230.468 72.6732 224.548 96.8041 224.548 96.8041C224.548 96.8041 215.01 99.737 202.306 96.9463C189.602 94.1556 199.892 96.1908 196.047 95.8075L196.696 98.0813C197.371 98.0962 198.029 98.1345 198.669 98.205C198.671 98.2041 198.673 98.2037 198.675 98.2037C198.677 98.2037 198.679 98.2041 198.681 98.205H198.708C199.111 98.2619 199.684 98.3447 200.383 98.4523C201.965 98.7651 203.121 98.9469 203.944 99.0458H203.952C208.892 99.9274 215.409 101.363 217.164 103.036C217.436 102.737 217.746 102.475 218.086 102.256L217.164 103.036C209.79 109.27 213.94 129.125 219.303 139.337C224.666 149.549 226.428 143.969 229.809 136.741C233.19 129.512 228.361 117.643 229.306 113.483C230.251 109.322 233.744 114.058 235.245 121.442C236.746 128.826 230.423 134.471 232.63 146.459C234.837 158.448 259.73 161.173 259.73 161.173C254.88 153.814 255.272 138.109 257.942 136.772C260.613 135.434 266.451 156.919 268.253 160.017C270.055 163.116 278.522 167.091 291.069 159.728Z" fill="#DFEBFD"/>
<path d="M105.054 73.2852C112.081 63.3242 129.763 73.3829 129.763 73.3829C129.763 73.3829 135.635 97.1639 139.209 98.9295C142.782 100.695 138.227 77.6339 138.227 77.6339C145.722 79.4762 161.026 94.6538 161.026 94.6538C161.026 94.6538 151.714 116.75 155.615 117.596C159.516 118.443 162.844 97.6189 162.844 97.6189C169.106 102.136 172.742 112.456 172.742 112.456C176.185 128.407 155.167 131.923 155.167 131.923C155.167 131.923 152.108 139.649 153.774 150.32C155.44 160.99 154.277 152.361 154.392 155.565L152.48 154.897C152.505 154.338 152.511 153.792 152.489 153.257C152.49 153.254 152.49 153.251 152.489 153.248C152.49 153.24 152.49 153.233 152.489 153.225C152.464 152.889 152.425 152.41 152.372 151.826C152.319 151.241 152.372 151.826 152.372 151.826C152.195 150.498 152.1 149.531 152.068 148.844V148.837C151.594 144.7 150.736 139.225 149.404 137.674C149.675 137.467 149.917 137.225 150.125 136.956L149.404 137.674C143.639 143.42 126.865 138.853 118.416 133.83C109.968 128.808 114.854 127.671 121.245 125.286C127.636 122.901 137.528 127.575 141.147 127.029C144.766 126.484 140.908 123.32 134.666 121.661C128.425 120.001 123.226 124.905 113.077 122.394C102.929 119.883 102.017 99.1286 102.017 99.1286C108.047 103.564 121.528 104.136 122.827 102.003C124.125 99.8705 106.047 93.8118 103.493 92.1426C100.938 90.4733 98.0229 83.2462 105.054 73.2852Z" fill="#CDE0FB"/>
<path d="M233.003 88.1454C232.979 88.091 232.951 88.0329 232.917 87.9723C232.806 87.547 231.836 85.2942 231.728 85.0469C231.423 84.3446 230.924 84.718 230.924 85.2422C230.924 85.4042 230.994 86.5615 230.954 86.726C230.13 86.13 229.621 85.5093 227.496 84.9195C227.496 84.9195 225.874 84.3952 226.654 86.0002C227.175 87.0734 227.797 87.2082 228.556 88.7093C229.314 90.2103 230.717 91.2428 231.973 91.1488L233.321 91.5964L234.684 89.6181L233.803 89.0864C233.444 88.8615 233.164 88.5328 233.003 88.1454Z" fill="#FFB27D"/>
<path d="M151.102 42.8101H230.924V155.68H151.102V42.8101Z" fill="white"/>
<path d="M171.573 52.9741H207.956V54.8301H171.573V52.9741Z" fill="#F99746"/>
<path d="M166.87 57.2817H185.062V59.1377H166.87V57.2817Z" fill="#F99746"/>
<path d="M187.256 57.2817H213.957V59.1377H187.256V57.2817Z" fill="#F99746"/>
<path d="M168.827 99.0952H208.08V100.508H168.827V99.0952Z" fill="#AEC3FF"/>
<path d="M189.526 95.3242H217.321V96.7375H189.526V95.3242Z" fill="#AEC3FF"/>
<path d="M159.586 95.3242H186.663V96.7375H159.586V95.3242Z" fill="#AEC3FF"/>
<path d="M190.688 91.5527H214.6V92.966H190.688V91.5527Z" fill="#AEC3FF"/>
<path d="M162.308 91.5527H186.22V92.966H162.308V91.5527Z" fill="#AEC3FF"/>
<path d="M194.86 113.035H183.318C183.066 113.034 182.824 112.935 182.645 112.76C182.467 112.585 182.366 112.347 182.365 112.099C182.366 111.851 182.467 111.613 182.645 111.438C182.824 111.263 183.065 111.164 183.318 111.163H194.86C195.113 111.164 195.355 111.263 195.533 111.438C195.711 111.613 195.811 111.851 195.812 112.099C195.811 112.347 195.711 112.584 195.532 112.76C195.354 112.935 195.113 113.034 194.86 113.035Z" fill="#A8C3F7"/>
<path d="M210.962 113.035H199.419C199.167 113.034 198.925 112.935 198.747 112.76C198.568 112.585 198.468 112.347 198.467 112.099C198.467 111.851 198.568 111.613 198.747 111.438C198.925 111.263 199.167 111.164 199.419 111.163H210.962C211.214 111.164 211.456 111.263 211.635 111.438C211.813 111.613 211.914 111.851 211.914 112.099C211.913 112.347 211.813 112.585 211.634 112.76C211.456 112.935 211.214 113.034 210.962 113.035Z" fill="#A8C3F7"/>
<path d="M196.864 137.884C194.807 137.884 192.796 137.285 191.086 136.162C189.376 135.039 188.043 133.443 187.255 131.576C186.468 129.709 186.262 127.655 186.663 125.672C187.065 123.69 188.055 121.869 189.509 120.44C190.964 119.011 192.817 118.038 194.834 117.644C196.851 117.249 198.942 117.452 200.842 118.225C202.743 118.999 204.367 120.309 205.509 121.989C206.652 123.67 207.261 125.646 207.261 127.667C207.258 130.375 206.161 132.972 204.212 134.888C202.263 136.803 199.62 137.88 196.864 137.884ZM196.864 117.964C194.911 117.964 193.002 118.533 191.378 119.599C189.754 120.665 188.489 122.181 187.741 123.954C186.994 125.727 186.798 127.677 187.179 129.56C187.56 131.442 188.501 133.17 189.882 134.527C191.263 135.884 193.022 136.808 194.937 137.183C196.853 137.557 198.838 137.365 200.642 136.631C202.447 135.896 203.989 134.653 205.074 133.057C206.159 131.462 206.738 129.586 206.738 127.667C206.735 125.094 205.693 122.628 203.842 120.809C201.991 118.99 199.482 117.967 196.864 117.964Z" fill="#A8C3F7"/>
<path d="M196.864 135.899C195.206 135.899 193.586 135.416 192.208 134.512C190.83 133.607 189.756 132.321 189.121 130.817C188.487 129.312 188.321 127.657 188.644 126.059C188.967 124.462 189.766 122.995 190.937 121.843C192.109 120.692 193.603 119.907 195.228 119.59C196.854 119.272 198.538 119.435 200.07 120.059C201.601 120.682 202.909 121.737 203.83 123.092C204.751 124.446 205.242 126.038 205.242 127.667C205.239 129.849 204.355 131.941 202.785 133.485C201.214 135.028 199.085 135.896 196.864 135.899ZM196.864 119.948C195.31 119.948 193.792 120.401 192.5 121.249C191.208 122.097 190.202 123.303 189.607 124.713C189.013 126.123 188.857 127.675 189.16 129.172C189.463 130.669 190.211 132.045 191.31 133.124C192.408 134.203 193.808 134.938 195.331 135.236C196.855 135.534 198.434 135.381 199.869 134.797C201.305 134.213 202.531 133.224 203.394 131.954C204.257 130.685 204.718 129.193 204.718 127.667C204.716 125.62 203.887 123.658 202.415 122.212C200.943 120.765 198.946 119.951 196.864 119.948Z" fill="#A8C3F7"/>
<path d="M196.974 130.896C195.886 131.242 194.824 131.423 193.988 131.355C192.716 131.251 191.999 130.596 191.975 129.51C191.952 128.644 192.316 127.894 193.03 127.284C193.022 127.226 193.017 127.161 193.012 127.108C192.965 126.5 193.098 126.097 193.405 125.909C193.908 125.604 194.64 126.021 194.67 126.033L194.506 126.311C194.341 126.216 193.849 126.008 193.577 126.176C193.343 126.321 193.315 126.718 193.335 127.042C194.024 126.582 194.791 126.247 195.6 126.053C196.299 125.872 197.013 125.752 197.733 125.695C197.733 125.62 197.743 125.552 197.751 125.496C197.773 125.348 197.826 125.174 197.975 125.138C198.028 125.13 198.082 125.139 198.13 125.163C198.177 125.188 198.215 125.226 198.239 125.274C198.307 125.393 198.342 125.527 198.34 125.663C198.576 125.663 198.796 125.663 198.991 125.677V125.665C198.951 125.293 198.968 124.918 199.042 124.552C199.125 124.181 199.261 123.993 199.451 123.974C199.506 123.969 199.56 123.982 199.607 124.01C199.654 124.038 199.69 124.081 199.71 124.131C199.817 124.379 199.617 125.065 199.332 125.719C199.603 125.765 199.787 125.843 199.845 125.942C199.871 125.991 199.88 126.049 199.868 126.103C199.856 126.158 199.824 126.208 199.779 126.242C199.56 126.441 199.385 126.39 199.301 126.343C199.225 126.296 199.164 126.228 199.126 126.147C198.907 126.571 198.669 126.934 198.482 127.089C198.433 127.136 198.37 127.167 198.302 127.176C198.234 127.186 198.165 127.175 198.104 127.143C198.074 127.126 198.046 127.104 198.023 127.078C197.95 127.252 197.866 127.421 197.771 127.585C197.429 128.175 197.044 128.478 196.657 128.459C196.5 128.452 196.351 128.388 196.24 128.278C196.038 128.71 195.784 129.117 195.485 129.49C195.213 129.819 194.865 129.94 194.508 129.83C193.879 129.635 193.3 128.733 193.085 127.666C192.827 127.9 192.623 128.186 192.487 128.504C192.352 128.822 192.287 129.165 192.297 129.51C192.322 130.436 192.9 130.952 194.016 131.043C196.832 131.274 201.769 128.701 202.144 126.808C201.834 128.339 199.496 130.092 196.974 130.896ZM193.372 127.41C193.544 128.537 194.118 129.365 194.605 129.512C194.833 129.582 195.044 129.503 195.234 129.276C195.557 128.874 195.822 128.429 196.021 127.955C195.959 127.82 195.914 127.68 195.885 127.535C195.798 127.128 195.798 126.707 195.885 126.299C195.354 126.425 194.838 126.601 194.343 126.827C193.998 126.985 193.672 127.18 193.372 127.41ZM196.378 127.937C196.407 127.99 196.448 128.035 196.498 128.068C196.548 128.102 196.606 128.123 196.666 128.13C196.918 128.14 197.211 127.883 197.48 127.417C197.617 127.181 197.73 126.932 197.817 126.675C197.764 126.46 197.734 126.241 197.726 126.021C197.363 126.05 196.971 126.097 196.562 126.17C196.774 126.57 196.651 127.255 196.378 127.937ZM198.158 126.674C198.21 126.824 198.255 126.854 198.255 126.854C198.439 126.701 198.647 126.359 198.837 125.989C198.682 125.989 198.507 125.981 198.317 125.989C198.285 126.219 198.232 126.447 198.158 126.669V126.674ZM196.241 126.261C196.158 126.431 196.097 126.976 196.198 127.462C196.363 126.929 196.397 126.47 196.241 126.261ZM199.411 124.408C199.375 124.518 199.349 124.63 199.332 124.743C199.366 124.634 199.392 124.522 199.411 124.408Z" fill="#A8C3F7"/>
<path d="M166.538 81.9272H210.368V83.3405H166.538V81.9272Z" fill="#AEC3FF"/>
<path d="M189.651 78.1558H220.687V79.569H189.651V78.1558Z" fill="#AEC3FF"/>
<path d="M156.22 78.1558H186.454V79.569H156.22V78.1558Z" fill="#AEC3FF"/>
<path d="M190.948 74.3848H217.649V75.798H190.948V74.3848Z" fill="#AEC3FF"/>
<path d="M159.259 74.3848H185.959V75.798H159.259V74.3848Z" fill="#AEC3FF"/>
<path d="M265.604 84.6174C265.604 84.6174 272.315 109.878 251.913 105.679C246.404 104.546 231.728 90.1753 231.728 90.1753C231.728 90.1753 233.141 87.9855 234.874 88.218C234.874 88.218 249.052 92.7484 251.32 94.388C252.578 95.2968 254.009 80.9847 258.353 81.1887C262.696 81.3927 265.604 84.6174 265.604 84.6174Z" fill="#91CECF"/>
<path d="M274.799 191.434C274.799 191.434 274.421 197.369 273.254 197.46C273.099 197.471 267.322 197.471 267.322 197.471L259.946 197.429C259.946 197.429 259.995 195.683 262.15 195.314C264.306 194.944 267.915 193.459 269.221 190.656C270.594 187.711 274.799 191.434 274.799 191.434Z" fill="#163560"/>
<path d="M275.224 191.845C275.224 191.845 272.982 192.587 271.231 192.587C269.971 192.571 268.719 192.396 267.504 192.064C267.504 192.064 267.083 188.053 264.76 179.215C263.542 174.583 261.803 168.627 259.329 161.226C252.488 140.772 250.408 128.807 250.218 127.673C250.208 127.614 250.204 127.584 250.204 127.584L250.225 127.574L271.257 118.5C271.257 118.5 268.658 146.691 271.974 157.511C272.478 159.215 272.88 160.945 273.178 162.695C275.272 174.445 275.224 191.845 275.224 191.845Z" fill="#2B478B"/>
<path d="M273.181 162.691L264.763 179.211C263.544 174.579 261.805 168.623 259.332 161.222C252.49 140.768 250.41 128.803 250.22 127.669C250.22 127.636 250.22 127.603 250.228 127.57L271.259 118.496C271.259 118.496 268.661 146.687 271.976 157.507C272.48 159.211 272.882 160.941 273.181 162.691Z" fill="#233862"/>
<path d="M258.372 191.434C258.372 191.434 257.994 197.369 256.828 197.46C256.672 197.471 250.895 197.471 250.895 197.471L243.52 197.429C243.52 197.429 243.567 195.683 245.723 195.314C247.878 194.944 251.487 193.459 252.793 190.656C254.167 187.711 258.372 191.434 258.372 191.434Z" fill="#163560"/>
<path d="M246.448 119.161C246.448 119.161 246.175 137.428 249.391 159.858C252.607 182.287 251.517 191.808 251.517 191.808C251.517 191.808 253.727 192.512 254.619 192.583C256.892 192.765 259.221 192.059 259.221 192.059C259.221 192.059 263.825 169.622 262.505 158.395C261.185 147.168 268.809 119.872 268.809 119.872L246.448 119.161Z" fill="#2B478B"/>
<path d="M261.766 75.6902L258.081 78.8728L252.052 78.6119C252.066 78.1347 252.178 76.1501 252.279 74.3523C252.285 74.246 252.291 74.1396 252.298 74.0358C252.386 72.505 252.464 71.1919 252.464 71.1919L257.608 68.0525L259.525 66.8828C259.525 66.9137 259.605 68.5558 259.617 68.7956C259.835 73.0478 261.766 75.6902 261.766 75.6902Z" fill="#FFB27D"/>
<path d="M245.222 119.951C245.306 129.596 245.961 152.15 246.441 152.609C251.553 157.456 274.032 151.279 275.225 145.939C276.418 140.599 270.695 77.4599 261.965 74.9388C260.155 74.4157 250.469 77.4921 250.469 77.4921C249.402 80.3845 248.56 83.3528 247.953 86.3711C247.584 88.2147 246.378 101.365 245.675 110.153C245.489 112.495 245.337 114.527 245.247 115.952C245.213 116.541 245.206 117.976 245.222 119.951Z" fill="#ABDDDA"/>
<path d="M259.213 68.9257C258.297 71.0981 254.054 73.4548 252.276 74.3525C252.282 74.2462 252.289 74.1398 252.295 74.036C252.383 72.5052 252.461 71.1921 252.461 71.1921L257.605 68.0527C258.816 67.8673 259.591 68.0317 259.213 68.9257Z" fill="#FCA56B"/>
<path d="M250.559 71.4047C250.559 71.4047 259.87 72.2554 260.317 66.5516C260.764 60.8478 262.271 57.1149 256.347 56.331C250.423 55.547 249.095 57.6354 248.474 59.5037C247.852 61.372 248.149 71.0375 250.559 71.4047Z" fill="#FFB27D"/>
<path d="M248.704 58.9103C248.704 58.9103 250.614 65.0395 251.87 64.4929C253.126 63.9464 254.273 63.4963 254.49 65.4203C254.706 67.3442 253.357 69.8975 257.476 69.3844C261.594 68.8713 265.199 57.3907 263.665 55.6757C259.24 50.7496 242.582 53.0432 248.704 58.9103Z" fill="#163560"/>
<path d="M252.844 75.0769C252.959 75.0299 259.488 72.1514 260.251 72.4C261.015 72.6485 261.966 74.9384 261.966 74.9384L250.471 77.4918C250.471 77.4918 251.375 75.684 252.844 75.0769Z" fill="#91CECF"/>
<path d="M245.222 126.858C262.713 114.429 264.074 94.728 264.074 94.728C255.752 99.3413 247.842 106.969 245.284 115.35C245.099 117.699 245.339 121.434 245.25 122.859C245.213 123.454 245.206 124.883 245.222 126.858Z" fill="#91CECF"/>
<path d="M234.239 120.498C234.239 120.498 234.019 120.327 233.53 120.288C233.107 120.149 231.928 119.638 231.727 119.459C231.086 118.887 230.862 119.494 231.309 120.1C231.406 120.231 231.752 120.455 231.873 120.58C230.915 120.936 229.637 121.669 227.972 123.101C227.972 123.101 226.643 124.153 228.437 124.383C229.638 124.537 230.091 124.098 231.786 124.287C233.481 124.476 235.125 123.881 235.727 122.795L236.843 121.929L235.892 119.728L234.239 120.498Z" fill="#FFB27D"/>
<path d="M256.645 77.9517C256.645 77.9517 275.068 77.0862 258.407 107.54C255.743 112.412 236.703 122.996 236.703 122.996C236.703 122.996 234.914 121.092 235.59 119.501C235.59 119.501 247.988 105.636 249.65 105.072C251.124 104.578 250.819 87.6901 252.138 83.6197C253.456 79.5492 256.645 77.9517 256.645 77.9517Z" fill="#ABDDDA"/>
<path opacity="0.5" d="M234.847 197.147H221.491H214.427C213.106 197.143 211.84 196.625 210.907 195.707C209.973 194.788 209.447 193.544 209.444 192.246L209.459 143.753C209.463 142.455 209.99 141.211 210.924 140.294C211.858 139.376 213.124 138.859 214.445 138.856H220.709H234.864C236.185 138.861 237.451 139.379 238.385 140.297C239.318 141.215 239.844 142.46 239.848 143.758L239.833 192.251C239.828 193.548 239.301 194.792 238.367 195.709C237.433 196.626 236.168 197.143 234.847 197.147Z" fill="#C0D8FB"/>
<path d="M237.68 183.402L237.325 180.849L236.97 178.296C236.881 177.669 236.543 177.101 236.03 176.718C235.516 176.335 234.87 176.166 234.231 176.25C234.156 176.26 234.085 176.275 234.014 176.291C234.25 175.955 234.395 175.565 234.433 175.159C234.669 175.713 235.108 176.159 235.663 176.409C236.218 176.659 236.849 176.695 237.429 176.509C238.01 176.323 238.498 175.93 238.797 175.407C239.097 174.884 239.184 174.269 239.044 173.685L238.433 171.18L237.823 168.674C237.749 168.369 237.614 168.08 237.426 167.826C237.239 167.572 237.002 167.357 236.73 167.192C236.457 167.028 236.155 166.918 235.839 166.869C235.523 166.819 235.201 166.831 234.89 166.905C234.579 166.978 234.286 167.11 234.027 167.295C233.769 167.479 233.549 167.712 233.382 167.979C233.215 168.247 233.103 168.544 233.053 168.854C233.003 169.165 233.015 169.481 233.089 169.787L234.009 173.562C233.793 173.256 233.506 173.005 233.173 172.828C232.839 172.652 232.468 172.555 232.089 172.547C232.351 171.715 232.441 170.841 232.354 169.975C232.268 169.109 232.007 168.269 231.586 167.503L227.544 164.22C227.067 163.83 226.456 163.634 225.837 163.673C225.217 163.711 224.636 163.98 224.212 164.426C223.789 164.871 223.554 165.459 223.557 166.069C223.559 166.678 223.799 167.264 224.227 167.706C224.008 167.704 223.79 167.731 223.579 167.787L221.05 168.467L218.521 169.148C218.102 169.261 217.722 169.483 217.42 169.789C217.117 170.095 216.903 170.475 216.8 170.89L216.535 170.265L215.528 167.888C215.405 167.598 215.225 167.335 214.998 167.113C214.772 166.892 214.503 166.716 214.207 166.597C213.911 166.478 213.595 166.417 213.275 166.417C212.955 166.418 212.639 166.481 212.344 166.602C212.049 166.723 211.781 166.9 211.556 167.123C211.331 167.346 211.152 167.61 211.031 167.9C210.909 168.191 210.847 168.502 210.848 168.816C210.849 169.13 210.913 169.441 211.036 169.731L212.043 172.109L212.691 173.632C212.256 173.801 211.881 174.089 211.608 174.461C211.335 174.834 211.177 175.276 211.153 175.734L211.027 178.307L210.902 180.88C210.881 181.263 210.954 181.645 211.115 181.994C211.276 182.343 211.521 182.648 211.828 182.885C212.135 183.121 212.495 183.281 212.878 183.351C213.262 183.422 213.657 183.4 214.03 183.289C213.776 183.789 213.708 184.361 213.837 184.905C213.372 185.165 213.009 185.57 212.805 186.056L211.799 188.436L210.792 190.818C210.574 191.337 210.548 191.914 210.72 192.45C210.892 192.985 211.25 193.444 211.732 193.746C212.214 194.047 212.788 194.173 213.354 194.101C213.921 194.028 214.443 193.762 214.83 193.349C214.992 193.729 215.252 194.06 215.585 194.311C216.098 194.695 216.745 194.863 217.384 194.78C218.023 194.696 218.603 194.368 218.996 193.866L220.589 191.819L222.184 189.773C222.393 189.504 222.541 189.193 222.618 188.863C223.191 188.921 223.766 188.776 224.24 188.455L224.656 188.173L224.079 188.915L222.486 190.96C222.104 191.464 221.94 192.096 222.029 192.718C222.118 193.34 222.452 193.903 222.96 194.285C223.468 194.666 224.108 194.837 224.742 194.759C225.376 194.68 225.954 194.36 226.35 193.867L227.943 191.822L229.537 189.775C229.557 189.75 229.575 189.721 229.594 189.695C229.721 189.896 229.879 190.078 230.061 190.234L229.493 190.962C229.101 191.466 228.928 192.102 229.013 192.731C229.098 193.36 229.434 193.93 229.947 194.315C230.459 194.701 231.107 194.87 231.747 194.787C232.387 194.703 232.966 194.373 233.359 193.869L236.546 189.778C236.776 189.485 236.934 189.144 237.006 188.781C237.079 188.418 237.064 188.043 236.963 187.687C236.863 187.33 236.679 187.002 236.427 186.727C236.175 186.452 235.861 186.239 235.51 186.104L235.6 186.097C236.239 186.009 236.816 185.676 237.206 185.171C237.596 184.666 237.766 184.03 237.68 183.402ZM215.749 181.12L215.794 180.242C216.009 180.607 216.323 180.907 216.7 181.108L215.585 181.863C215.68 181.626 215.735 181.375 215.749 181.12ZM232.148 178.943L232.625 182.375C232.398 181.923 232.032 181.552 231.578 181.316C231.125 181.08 230.607 180.99 230.098 181.06C230.354 180.907 230.578 180.71 230.76 180.477L232.129 178.72C232.132 178.794 232.138 178.869 232.148 178.943ZM226.612 169.669L227.224 170.164L226.595 170.592C226.662 170.289 226.668 169.976 226.613 169.671L226.612 169.669ZM227.14 177.253C227.079 176.886 226.932 176.538 226.71 176.237C226.895 176.17 227.07 176.081 227.233 175.972L229.151 174.672L227.14 177.253ZM228.732 181.727C228.479 181.52 228.186 181.365 227.871 181.272C227.556 181.178 227.225 181.148 226.897 181.183L226.949 180.539C227.066 180.681 227.2 180.81 227.348 180.921C227.605 181.114 227.899 181.255 228.212 181.335C228.526 181.414 228.852 181.431 229.172 181.385C229.013 181.483 228.866 181.598 228.733 181.729L228.732 181.727ZM223.824 172.676C223.554 173.075 223.412 173.543 223.415 174.021C223.419 174.5 223.568 174.966 223.843 175.361C223.853 175.376 223.866 175.389 223.876 175.404C223.699 175.469 223.53 175.555 223.373 175.659C223.526 175.189 223.528 174.684 223.379 174.214C223.23 173.743 222.936 173.328 222.538 173.028H222.531L223.824 172.676ZM221.402 178.427L222.341 177.222C222.327 177.297 222.317 177.372 222.311 177.448L222.132 179.661C221.786 179.353 221.357 179.15 220.896 179.076L221.4 178.427H221.402ZM217.008 188.534L217.282 187.88C217.476 187.419 217.517 186.91 217.399 186.425C217.456 186.394 217.511 186.361 217.564 186.325L221.882 183.399C221.909 183.38 221.934 183.359 221.961 183.34C222.019 183.57 222.111 183.79 222.235 183.994L221.466 184.514C220.969 184.853 220.619 185.362 220.484 185.941C220.072 185.901 219.656 185.964 219.276 186.125C218.895 186.286 218.563 186.54 218.31 186.862L217.008 188.534ZM228.459 185.586L228.593 186.14C228.379 186.045 228.152 185.982 227.919 185.952L228.459 185.586ZM233.599 186.145L233.412 185.375L233.376 185.228C233.64 185.547 233.982 185.794 234.37 185.946C234.106 185.97 233.848 186.037 233.605 186.143L233.599 186.145ZM218.858 173.824L217.537 175.52L215.944 177.565C215.936 177.574 215.931 177.584 215.923 177.594L216.006 175.973C216.006 175.931 216.006 175.89 216.006 175.849C216.082 175.826 216.156 175.8 216.23 175.77C216.702 175.574 217.099 175.238 217.366 174.808C217.632 174.379 217.755 173.878 217.717 173.376C218.054 173.62 218.449 173.774 218.864 173.825L218.858 173.824Z" fill="#AFCDFB"/>
<path opacity="0.5" d="M221.491 197.147H214.427C213.106 197.143 211.84 196.625 210.907 195.707C209.973 194.788 209.447 193.544 209.444 192.246L209.459 143.753C209.463 142.455 209.99 141.211 210.924 140.294C211.858 139.376 213.124 138.859 214.445 138.856H220.709C221.25 139.777 221.532 140.823 221.527 141.886L221.51 196.661C221.512 196.822 221.505 196.985 221.491 197.147Z" fill="#AFCDFB"/>
<path d="M239.521 141.144H220.553H209.788C209.531 141.143 209.285 141.043 209.103 140.864C208.921 140.685 208.819 140.443 208.819 140.191V135.624C208.82 135.372 208.922 135.13 209.104 134.952C209.286 134.773 209.532 134.673 209.789 134.672H220.539H239.519C239.776 134.673 240.022 134.774 240.204 134.952C240.385 135.13 240.488 135.372 240.488 135.624V140.192C240.488 140.444 240.386 140.686 240.205 140.864C240.023 141.043 239.777 141.143 239.521 141.144Z" fill="#F99746"/>
<path d="M220.553 141.135H209.788C209.531 141.135 209.285 141.034 209.103 140.855C208.921 140.677 208.819 140.434 208.819 140.182V135.616C208.82 135.363 208.922 135.121 209.104 134.943C209.286 134.764 209.532 134.664 209.789 134.664H220.539C220.795 134.665 221.041 134.766 221.222 134.945C221.403 135.123 221.505 135.365 221.505 135.617V140.183C221.504 140.433 221.404 140.672 221.226 140.85C221.048 141.028 220.807 141.13 220.553 141.135Z" fill="#EF7E29"/>
<path d="M309.384 194.247C309.381 195.098 309.036 195.915 308.423 196.517C307.81 197.12 306.979 197.459 306.112 197.461H290.678C289.81 197.461 288.978 197.123 288.364 196.52C287.751 195.917 287.406 195.099 287.406 194.247C287.406 193.394 287.751 192.576 288.364 191.973C288.978 191.37 289.81 191.032 290.678 191.032H306.115C306.981 191.034 307.812 191.374 308.424 191.976C309.037 192.579 309.382 193.395 309.384 194.247Z" fill="#EF7E29"/>
<path d="M301.42 194.247C301.418 195.099 301.073 195.915 300.46 196.518C299.847 197.12 299.015 197.46 298.148 197.461H290.674C289.806 197.461 288.974 197.123 288.36 196.52C287.747 195.917 287.402 195.099 287.402 194.247C287.402 193.394 287.747 192.576 288.36 191.973C288.974 191.37 289.806 191.032 290.674 191.032H298.148C299.016 191.032 299.848 191.37 300.462 191.973C301.075 192.576 301.42 193.394 301.42 194.247Z" fill="#F99746"/>
<path opacity="0.5" d="M306.376 191.747H291.65C291.394 191.747 291.187 191.95 291.187 192.202V192.304C291.187 192.556 291.394 192.759 291.65 192.759H306.376C306.632 192.759 306.839 192.556 306.839 192.304V192.202C306.839 191.95 306.632 191.747 306.376 191.747Z" fill="#FFE2CC"/>
<path d="M168.516 110.011V155.242C168.512 156.579 167.97 157.861 167.007 158.807C166.045 159.752 164.741 160.285 163.38 160.289H136.024C135.314 160.29 134.612 160.144 133.963 159.862C133.051 159.466 132.276 158.819 131.73 157.999C131.185 157.179 130.892 156.222 130.889 155.242V110.011C130.893 108.674 131.435 107.393 132.397 106.447C133.36 105.502 134.663 104.969 136.024 104.965H163.38C164.741 104.968 166.045 105.501 167.007 106.447C167.97 107.392 168.512 108.674 168.516 110.011Z" fill="#FCECDB"/>
<path d="M156.396 121.97C155.361 121.588 154.464 120.913 153.819 120.031C153.173 119.148 152.809 118.097 152.772 117.011C152.734 115.925 153.026 114.852 153.609 113.929C154.192 113.005 155.04 112.272 156.047 111.823C157.054 111.373 158.174 111.227 159.266 111.403C160.357 111.579 161.371 112.069 162.179 112.811C162.987 113.553 163.553 114.514 163.805 115.572C164.057 116.63 163.985 117.738 163.596 118.755C163.339 119.431 162.948 120.05 162.446 120.578C161.945 121.105 161.343 121.53 160.674 121.829C160.005 122.127 159.284 122.293 158.549 122.318C157.815 122.342 157.084 122.224 156.396 121.97Z" fill="#F7E0CB"/>
<path d="M163.596 118.762L153.128 114.899C153.386 114.223 153.777 113.605 154.279 113.078C154.78 112.551 155.383 112.126 156.051 111.828C156.72 111.53 157.441 111.364 158.175 111.34C158.909 111.315 159.64 111.433 160.328 111.687C161.015 111.941 161.645 112.325 162.181 112.818C162.717 113.31 163.15 113.902 163.453 114.559C163.757 115.216 163.925 115.925 163.95 116.646C163.975 117.367 163.854 118.086 163.596 118.762Z" fill="#EFCBAB"/>
<path d="M137.503 121.086C136.646 120.399 136.016 119.477 135.693 118.438C135.369 117.4 135.366 116.29 135.685 115.249C136.003 114.209 136.628 113.284 137.481 112.593C138.334 111.901 139.376 111.474 140.476 111.365C141.576 111.255 142.685 111.469 143.661 111.979C144.638 112.489 145.438 113.271 145.962 114.228C146.486 115.185 146.709 116.273 146.604 117.355C146.498 118.436 146.069 119.463 145.37 120.304C144.432 121.433 143.076 122.149 141.601 122.296C140.126 122.442 138.651 122.007 137.503 121.086Z" fill="#F7E0CB"/>
<path d="M145.37 120.305L136.707 113.356C137.645 112.227 139.001 111.51 140.476 111.364C141.951 111.217 143.426 111.653 144.574 112.574C145.723 113.496 146.452 114.828 146.601 116.277C146.75 117.727 146.307 119.176 145.37 120.305Z" fill="#EFCBAB"/>
<path d="M156.396 155.486C155.361 155.104 154.465 154.429 153.82 153.547C153.175 152.664 152.811 151.613 152.774 150.528C152.737 149.442 153.028 148.37 153.611 147.446C154.194 146.523 155.042 145.791 156.049 145.341C157.055 144.892 158.175 144.746 159.266 144.921C160.357 145.097 161.37 145.587 162.178 146.329C162.986 147.07 163.552 148.031 163.804 149.088C164.057 150.146 163.984 151.254 163.596 152.271C163.339 152.947 162.948 153.566 162.447 154.094C161.945 154.621 161.343 155.046 160.674 155.345C160.006 155.643 159.284 155.809 158.55 155.834C157.816 155.858 157.084 155.74 156.396 155.486Z" fill="#F7E0CB"/>
<path d="M163.596 152.648L153.128 148.785C153.386 148.11 153.777 147.491 154.279 146.964C154.78 146.437 155.383 146.012 156.051 145.714C156.72 145.416 157.441 145.25 158.175 145.226C158.909 145.202 159.64 145.32 160.328 145.573C161.015 145.827 161.645 146.211 162.181 146.704C162.717 147.197 163.15 147.788 163.453 148.445C163.757 149.102 163.925 149.812 163.95 150.533C163.975 151.254 163.854 151.972 163.596 152.648Z" fill="#EFCBAB"/>
<path d="M137.503 154.599C136.646 153.912 136.016 152.991 135.693 151.952C135.369 150.913 135.366 149.803 135.685 148.762C136.003 147.722 136.628 146.797 137.481 146.106C138.334 145.415 139.376 144.987 140.476 144.878C141.576 144.769 142.685 144.982 143.661 145.492C144.638 146.002 145.438 146.785 145.962 147.741C146.486 148.698 146.709 149.786 146.604 150.868C146.498 151.949 146.069 152.976 145.37 153.818C144.432 154.946 143.076 155.662 141.601 155.809C140.126 155.956 138.651 155.52 137.503 154.599Z" fill="#F7E0CB"/>
<path d="M145.37 154.19L136.707 147.242C137.645 146.113 139 145.397 140.476 145.25C141.951 145.103 143.425 145.539 144.574 146.46C145.722 147.381 146.452 148.713 146.601 150.163C146.75 151.612 146.307 153.061 145.37 154.19Z" fill="#EFCBAB"/>
<path d="M160.756 139.174C159.757 139.639 158.64 139.803 157.546 139.645C156.452 139.486 155.43 139.013 154.61 138.283C153.791 137.554 153.209 136.603 152.939 135.549C152.67 134.495 152.724 133.387 153.096 132.363C153.468 131.34 154.14 130.448 155.028 129.8C155.916 129.152 156.979 128.777 158.083 128.723C159.188 128.669 160.284 128.938 161.232 129.496C162.181 130.054 162.94 130.876 163.414 131.858C163.728 132.51 163.909 133.216 163.946 133.936C163.982 134.657 163.874 135.377 163.627 136.057C163.381 136.736 163 137.361 162.507 137.896C162.015 138.431 161.42 138.865 160.756 139.174Z" fill="#F7E0CB"/>
<path d="M163.414 131.862L153.31 136.56C152.976 135.906 152.779 135.193 152.729 134.463C152.68 133.732 152.78 133 153.023 132.308C153.265 131.616 153.647 130.979 154.143 130.434C154.64 129.889 155.243 129.446 155.916 129.133C156.59 128.82 157.32 128.643 158.064 128.611C158.808 128.579 159.551 128.693 160.249 128.947C160.948 129.202 161.587 129.59 162.131 130.091C162.674 130.591 163.111 131.193 163.414 131.862Z" fill="#EFCBAB"/>
<path d="M135.848 132.168C136.259 131.16 136.965 130.293 137.877 129.679C138.789 129.065 139.866 128.73 140.971 128.717C142.077 128.704 143.162 129.013 144.088 129.606C145.015 130.199 145.742 131.048 146.177 132.047C146.613 133.046 146.737 134.149 146.534 135.217C146.331 136.285 145.811 137.27 145.039 138.048C144.266 138.825 143.276 139.36 142.195 139.585C141.113 139.809 139.988 139.714 138.961 139.31C138.279 139.042 137.658 138.645 137.133 138.141C136.607 137.637 136.188 137.036 135.899 136.373C135.61 135.71 135.457 134.997 135.448 134.276C135.439 133.554 135.575 132.838 135.848 132.168Z" fill="#F7E0CB"/>
<path d="M138.961 139.31L143.113 129.109C143.802 129.372 144.432 129.766 144.965 130.27C145.497 130.773 145.924 131.375 146.218 132.041C146.513 132.707 146.67 133.424 146.681 134.15C146.692 134.876 146.556 135.597 146.282 136.271C146.007 136.946 145.6 137.56 145.082 138.078C144.564 138.597 143.947 139.009 143.267 139.292C142.586 139.574 141.855 139.721 141.116 139.725C140.377 139.728 139.644 139.587 138.961 139.31Z" fill="#EFCBAB"/>
<path opacity="0.5" d="M168.516 116.202V155.561C168.516 158.158 166.402 160.29 163.817 160.29H138.776C138.125 160.29 137.481 160.153 136.889 159.889V121.65C136.887 120.907 137.04 120.172 137.336 119.489C137.632 118.806 138.066 118.189 138.611 117.675C139.003 117.305 139.449 116.995 139.934 116.755C140.669 116.391 141.481 116.202 142.304 116.202H168.516Z" fill="#EFCBAB"/>
<path d="M175.421 166.733V121.503C175.421 118.715 173.121 116.456 170.284 116.456H142.926C140.089 116.456 137.789 118.715 137.789 121.503V166.733C137.789 169.52 140.089 171.78 142.926 171.78H170.284C173.121 171.78 175.421 169.52 175.421 166.733Z" fill="#FCECDB"/>
<path d="M163.301 133.469C162.266 133.087 161.369 132.413 160.724 131.53C160.079 130.647 159.715 129.597 159.678 128.511C159.641 127.425 159.932 126.353 160.515 125.43C161.098 124.507 161.946 123.774 162.953 123.325C163.959 122.875 165.079 122.729 166.17 122.905C167.261 123.081 168.275 123.57 169.083 124.312C169.89 125.054 170.456 126.014 170.709 127.072C170.961 128.13 170.889 129.237 170.501 130.254C170.243 130.93 169.852 131.55 169.351 132.077C168.85 132.604 168.247 133.03 167.579 133.328C166.91 133.627 166.188 133.793 165.454 133.817C164.72 133.841 163.988 133.723 163.301 133.469Z" fill="#F7E0CB"/>
<path d="M170.502 130.254L160.034 126.392C160.292 125.716 160.683 125.097 161.185 124.57C161.686 124.043 162.288 123.619 162.957 123.32C163.625 123.022 164.347 122.856 165.081 122.832C165.815 122.808 166.546 122.926 167.234 123.18C167.921 123.433 168.551 123.818 169.087 124.31C169.623 124.803 170.055 125.395 170.359 126.052C170.662 126.709 170.831 127.418 170.856 128.139C170.88 128.86 170.76 129.579 170.502 130.254Z" fill="#EFCBAB"/>
<path d="M144.407 132.578C143.55 131.89 142.921 130.969 142.597 129.93C142.273 128.891 142.271 127.781 142.589 126.741C142.907 125.7 143.532 124.776 144.385 124.085C145.238 123.393 146.28 122.966 147.381 122.856C148.481 122.747 149.589 122.961 150.566 123.471C151.542 123.98 152.343 124.763 152.867 125.72C153.39 126.677 153.614 127.765 153.508 128.846C153.403 129.928 152.973 130.954 152.274 131.796C151.336 132.925 149.98 133.641 148.505 133.787C147.03 133.934 145.556 133.499 144.407 132.578Z" fill="#F7E0CB"/>
<path d="M152.274 131.796L143.612 124.847C144.549 123.719 145.905 123.002 147.38 122.856C148.856 122.709 150.33 123.144 151.479 124.066C152.627 124.987 153.356 126.319 153.506 127.769C153.655 129.219 153.212 130.667 152.274 131.796Z" fill="#EFCBAB"/>
<path d="M163.301 166.978C162.266 166.596 161.369 165.921 160.724 165.038C160.079 164.156 159.715 163.105 159.678 162.019C159.641 160.934 159.932 159.861 160.515 158.938C161.098 158.015 161.946 157.282 162.953 156.833C163.959 156.384 165.079 156.237 166.17 156.413C167.261 156.589 168.275 157.079 169.083 157.82C169.89 158.562 170.456 159.522 170.709 160.58C170.961 161.638 170.889 162.745 170.501 163.763C170.243 164.439 169.852 165.058 169.351 165.585C168.85 166.113 168.247 166.538 167.579 166.836C166.91 167.135 166.188 167.301 165.454 167.325C164.72 167.35 163.988 167.231 163.301 166.978Z" fill="#F7E0CB"/>
<path d="M170.502 164.134L160.034 160.272C160.561 158.915 161.612 157.819 162.959 157.222C164.306 156.625 165.839 156.576 167.223 157.086C168.606 157.597 169.728 158.624 170.342 159.945C170.957 161.266 171.014 162.772 170.502 164.134Z" fill="#EFCBAB"/>
<path d="M153.04 164.068C154.303 161.299 153.042 158.049 150.225 156.808C147.407 155.567 144.099 156.806 142.837 159.575C141.574 162.343 142.834 165.594 145.652 166.835C148.47 168.075 151.777 166.837 153.04 164.068Z" fill="#F7E0CB"/>
<path d="M152.274 165.681L143.612 158.734C144.549 157.605 145.905 156.888 147.38 156.742C148.855 156.595 150.329 157.03 151.478 157.952C152.627 158.873 153.356 160.205 153.505 161.655C153.654 163.104 153.212 164.553 152.274 165.681Z" fill="#EFCBAB"/>
<path d="M167.661 150.666C166.661 151.131 165.544 151.295 164.45 151.136C163.357 150.978 162.335 150.504 161.515 149.775C160.695 149.046 160.114 148.095 159.844 147.041C159.575 145.987 159.629 144.878 160.001 143.855C160.373 142.832 161.045 141.94 161.932 141.292C162.82 140.644 163.883 140.269 164.987 140.215C166.092 140.161 167.188 140.429 168.136 140.987C169.085 141.545 169.845 142.367 170.318 143.349C170.633 144 170.814 144.707 170.85 145.427C170.887 146.148 170.779 146.869 170.532 147.548C170.286 148.228 169.905 148.853 169.412 149.388C168.919 149.923 168.324 150.357 167.661 150.666Z" fill="#F7E0CB"/>
<path d="M170.318 143.348L160.214 148.054C159.579 146.738 159.502 145.227 160.001 143.855C160.499 142.483 161.532 141.361 162.872 140.737C164.211 140.113 165.749 140.037 167.145 140.527C168.542 141.017 169.683 142.032 170.318 143.348Z" fill="#EFCBAB"/>
<path d="M142.752 143.66C143.163 142.651 143.869 141.785 144.781 141.171C145.693 140.556 146.77 140.221 147.876 140.208C148.981 140.195 150.066 140.505 150.993 141.098C151.919 141.69 152.646 142.54 153.082 143.539C153.517 144.537 153.641 145.641 153.439 146.709C153.236 147.777 152.715 148.762 151.943 149.539C151.171 150.317 150.181 150.852 149.099 151.076C148.017 151.301 146.892 151.206 145.865 150.802C145.184 150.534 144.562 150.137 144.037 149.633C143.512 149.129 143.093 148.528 142.803 147.865C142.514 147.201 142.361 146.489 142.352 145.767C142.344 145.046 142.479 144.33 142.752 143.66Z" fill="#F7E0CB"/>
<path d="M145.865 150.802L150.018 140.601C150.707 140.864 151.336 141.258 151.869 141.761C152.402 142.264 152.828 142.866 153.123 143.532C153.417 144.198 153.575 144.915 153.586 145.641C153.596 146.368 153.461 147.089 153.186 147.763C152.912 148.437 152.504 149.051 151.986 149.57C151.469 150.088 150.852 150.501 150.171 150.783C149.49 151.066 148.759 151.213 148.02 151.216C147.281 151.219 146.549 151.079 145.865 150.802Z" fill="#EFCBAB"/>
<path d="M128.215 134.497H171.185V197.511H128.215V134.497Z" fill="#EF7E29"/>
<path d="M134.201 134.497H177.171V197.512H134.201V134.497Z" fill="#F99746"/>
<path d="M134.201 138.154L132.141 141.301H128.215V134.497H134.201V138.154Z" fill="#D8661A"/>
<path d="M130.53 139.461H124.544L128.215 134.497H134.201L130.53 139.461Z" fill="#F99746"/>
<path opacity="0.5" d="M156.363 197.712H134.201V137.369L156.363 139.461V197.712Z" fill="#EFCBAB"/>
<path d="M177.171 139.461L173.684 141.301H136.272L134.201 138.154V134.497L177.171 139.461Z" fill="#EF7E29"/>
<path d="M180.206 139.461H137.236L134.201 134.497H177.171L180.206 139.461Z" fill="#F99746"/>
<path d="M85.8424 118.298C84.7099 114.712 79.7597 114.035 77.769 117.245C77.391 117.848 77.1825 118.538 77.1651 119.246C77.0556 123.45 85.5014 139.74 86.6213 141.181C88.6623 143.803 100.98 150.111 100.98 150.111L103.597 149.74C102.513 149.034 101.504 148.222 100.586 147.317C97.4202 144.214 92.8072 139.165 91.9616 138.467C90.5108 137.267 88.0029 125.111 85.8424 118.298Z" fill="#ED985F"/>
<path d="M159.094 151.5H102.899C99.4054 151.5 96.5733 154.283 96.5733 157.716V191.149C96.5733 194.582 99.4054 197.365 102.899 197.365H159.094C162.588 197.365 165.42 194.582 165.42 191.149V157.716C165.42 154.283 162.588 151.5 159.094 151.5Z" fill="#FCECDB"/>
<path d="M117.739 166.271C116.412 169.795 112.471 171.577 108.931 170.254C105.392 168.931 103.606 165.005 104.935 161.475C106.264 157.945 110.203 156.17 113.743 157.491C117.283 158.813 119.067 162.749 117.739 166.271Z" fill="#F7E0CB"/>
<path d="M113.743 157.496L108.936 170.254C105.402 168.932 103.611 165.005 104.94 161.475C106.269 157.945 110.208 156.175 113.743 157.496Z" fill="#EFCBAB"/>
<path d="M116.636 189.298C116.074 189.99 115.378 190.565 114.588 190.989C113.797 191.413 112.929 191.677 112.033 191.767C111.137 191.858 110.232 191.771 109.371 191.514C108.509 191.256 107.709 190.832 107.016 190.266C105.609 189.112 104.719 187.461 104.537 185.668C104.355 183.876 104.896 182.085 106.043 180.68C106.605 179.988 107.301 179.413 108.092 178.989C108.882 178.565 109.75 178.3 110.646 178.21C111.542 178.12 112.447 178.206 113.309 178.464C114.17 178.721 114.971 179.145 115.663 179.711C117.07 180.866 117.96 182.517 118.142 184.309C118.324 186.102 117.783 187.893 116.636 189.298Z" fill="#F7E0CB"/>
<path d="M115.663 179.713L107.016 190.269C105.609 189.114 104.719 187.463 104.537 185.671C104.355 183.878 104.896 182.087 106.043 180.682C106.605 179.991 107.301 179.416 108.092 178.992C108.882 178.568 109.75 178.303 110.646 178.212C111.542 178.122 112.447 178.208 113.309 178.466C114.17 178.724 114.971 179.148 115.663 179.713Z" fill="#EFCBAB"/>
<path d="M159.444 166.271C158.115 169.795 154.174 171.577 150.636 170.254C147.097 168.931 145.312 165.005 146.639 161.475C147.967 157.945 151.908 156.17 155.447 157.491C158.987 158.813 160.77 162.749 159.444 166.271Z" fill="#F7E0CB"/>
<path d="M155.447 157.496L150.642 170.254C147.107 168.932 145.317 165.005 146.644 161.475C147.972 157.945 151.914 156.175 155.447 157.496Z" fill="#EFCBAB"/>
<path d="M158.339 189.297C157.247 190.643 155.667 191.52 153.93 191.744C152.194 191.968 150.436 191.522 149.028 190.499C148.923 190.427 148.822 190.348 148.721 190.266C147.314 189.111 146.424 187.46 146.242 185.667C146.06 183.875 146.602 182.084 147.749 180.679C148.311 179.987 149.007 179.412 149.797 178.988C150.587 178.564 151.456 178.3 152.351 178.209C153.247 178.119 154.152 178.206 155.013 178.463C155.875 178.721 156.675 179.145 157.368 179.711C157.467 179.792 157.563 179.874 157.658 179.958C158.95 181.143 159.737 182.764 159.864 184.496C159.99 186.228 159.445 187.943 158.339 189.297Z" fill="#F7E0CB"/>
<path d="M157.657 179.96L149.026 190.499C148.922 190.427 148.821 190.348 148.719 190.266C147.312 189.111 146.422 187.46 146.241 185.667C146.059 183.875 146.6 182.084 147.748 180.679C148.309 179.987 149.006 179.412 149.796 178.988C150.586 178.564 151.454 178.3 152.35 178.209C153.246 178.119 154.151 178.206 155.012 178.463C155.874 178.721 156.674 179.145 157.366 179.711C157.466 179.792 157.561 179.874 157.657 179.96Z" fill="#EFCBAB"/>
<path d="M139.146 160.957C140.763 164.36 139.307 168.422 135.896 170.033C135.083 170.415 134.2 170.634 133.3 170.678C132.4 170.722 131.5 170.589 130.652 170.288C129.805 169.986 129.027 169.522 128.364 168.923C127.7 168.323 127.165 167.6 126.789 166.795C125.174 163.394 126.628 159.33 130.04 157.719C130.853 157.337 131.735 157.118 132.635 157.074C133.535 157.03 134.435 157.163 135.283 157.464C136.13 157.766 136.908 158.23 137.572 158.829C138.235 159.429 138.77 160.152 139.146 160.957Z" fill="#F7E0CB"/>
<path d="M130.04 157.719L135.896 170.033C135.083 170.415 134.2 170.634 133.3 170.678C132.4 170.721 131.5 170.589 130.652 170.287C129.805 169.986 129.027 169.522 128.364 168.922C127.7 168.323 127.165 167.599 126.789 166.794C125.174 163.392 126.628 159.33 130.04 157.719Z" fill="#EFCBAB"/>
<path d="M130.427 191.315C126.92 189.915 125.218 185.95 126.621 182.457C128.024 178.964 132.001 177.264 135.508 178.662C139.015 180.061 140.718 184.027 139.315 187.52C137.912 191.013 133.931 192.712 130.427 191.315Z" fill="#F7E0CB"/>
<path d="M139.315 187.52L126.621 182.451C128.024 178.958 132.001 177.258 135.508 178.656C139.015 180.054 140.718 184.027 139.315 187.52Z" fill="#EFCBAB"/>
<path d="M89.4185 97.7118C89.4865 97.4423 83.4428 100.396 83.1358 100.73C80.302 103.821 81.1099 107.851 82.7318 107.889C83.7725 107.914 83.5712 109.62 83.5712 109.62L95.1577 104.798C95.1577 104.798 93.7635 96.8018 89.4185 97.7118Z" fill="#B5453C"/>
<path d="M90.8505 98.3351C90.8505 98.3351 91.2595 93.9023 86.2149 93.9023C86.2149 93.9023 87.7437 94.3091 88.5339 95.124C88.5339 95.124 85.3177 93.2693 81.817 96.1206C78.3164 98.9719 80.4908 106.124 79.4262 107.481C78.3617 108.839 74.2168 109.111 74.7227 113.502C75.2285 117.892 87.8796 123.393 87.068 127.022C87.068 127.022 92.0258 119.862 88.4798 116.594C88.4798 116.594 90.2088 118.193 90.3837 120.094C90.3837 120.094 90.853 116.385 88.4496 115.196C86.3231 114.145 84.5803 110.303 84.764 109.617C84.9477 108.93 90.8505 98.3351 90.8505 98.3351Z" fill="#B5453C"/>
<path d="M76.6781 194.247L74.1702 193.884C74.1702 193.884 65.7395 187.302 64.4812 175.016C64.3495 173.754 64.3293 172.483 64.4208 171.218C64.4398 171.072 64.4093 170.925 64.334 170.798C64.0647 170.392 63.3927 169.374 62.4842 167.925C61.5871 166.498 60.0532 163.801 58.3658 160.773C55.3257 155.323 51.786 148.803 50.5718 146.726C46.7037 140.108 48.5685 135.658 48.5685 135.658C48.5685 135.658 59.3598 134.609 62.3169 132.072L63.3814 133.68C63.3814 133.68 65.7194 143.851 65.6099 143.898C65.7244 144.244 65.8414 144.595 65.961 144.954C67.8057 150.55 69.9284 157.545 71.0848 163.242C71.7354 166.447 72.0802 169.24 71.8952 171.143C71.831 171.795 71.909 172.799 72.0852 174.037C73.1296 181.334 76.6781 194.247 76.6781 194.247Z" fill="#2B478B"/>
<path d="M81.9378 197.363H71.4724C71.4724 197.363 71.2208 195.797 71.7681 194.609C72.2916 193.469 73.0378 193.432 71.8638 191.641C72.5282 192.314 74.6648 192.592 76.1773 192.392C76.3635 192.687 77.3727 194.668 77.9918 195.104C78.6788 195.59 81.7277 195.416 81.9378 197.363Z" fill="#233862"/>
<path d="M65.9598 144.951C65.045 149.904 62.8869 158.147 58.3646 160.769C55.3245 155.319 51.7848 148.799 50.5705 146.722C46.7025 140.104 48.5673 135.654 48.5673 135.654C48.5673 135.654 59.3586 134.606 62.3157 132.068L63.3802 133.676C63.3802 133.676 65.7182 143.847 65.6087 143.894C65.7232 144.241 65.8402 144.597 65.9598 144.951Z" fill="#233862"/>
<path d="M58.6225 136.418L58.6577 134.495C54.7569 134.979 45.2151 129.92 45.2151 129.92C45.2151 129.92 41.1369 132.586 40.5795 140.198C40.3064 143.907 38.5825 159.627 38.3913 164.319C38.3221 166.019 38.2994 167.233 38.2919 167.718C38.282 167.864 38.2237 168.003 38.1258 168.114C37.3293 169.112 36.6229 170.176 36.0143 171.295C30.065 182.176 33.1756 196.948 33.1756 196.948L34.5597 196.603C34.5597 196.603 39.593 181.283 42.8772 174.657C43.4346 173.533 43.9417 172.659 44.3658 172.153C45.6014 170.678 46.905 168.173 48.1898 165.157C50.6183 159.457 52.9714 151.936 54.6575 146.116C54.7733 146.135 58.6225 136.418 58.6225 136.418Z" fill="#2B478B"/>
<path d="M81.4357 123.586C75.0624 122.149 79.1343 113.349 79.503 113.504C80.3838 113.327 82.3254 111.804 84.0606 108.828L84.2946 109.028L88.208 112.4C88.208 112.4 87.3033 113.712 86.542 114.996C85.9468 116.002 85.441 116.993 85.5215 117.333C85.8373 117.577 83.1357 123.969 81.4357 123.586Z" fill="#FFB27D"/>
<path d="M85.4586 117.049C85.4586 117.049 86.5797 119.223 87.1774 121.104C87.7751 122.986 89.2713 128.972 89.2713 128.972C89.2713 128.972 86.1859 132.434 81.895 132.23C81.895 132.23 79.5873 128.68 80.4002 125.475C81.213 122.27 85.4586 117.049 85.4586 117.049Z" fill="#91CECF"/>
<path d="M88.208 112.401C88.208 112.401 87.302 113.711 86.542 114.998C84.1084 113.523 84.1059 110.563 84.2934 109.029L88.208 112.401Z" fill="#ED985F"/>
<path d="M88.3175 114.09C88.3175 114.09 82.4034 110.859 84.5123 107.273C86.6213 103.688 87.2718 100.857 91.1336 102.769C94.9954 104.681 94.9186 106.46 94.5122 107.825C94.1057 109.19 89.908 114.838 88.3175 114.09Z" fill="#FFB27D"/>
<path d="M95.5063 105.734C95.2358 104.141 94.4128 103.989 93.839 104.096C91.6571 100.549 88.0923 101.934 88.0923 101.934C86.1872 104.284 83.4365 104.683 83.4365 104.683C83.4365 104.683 84.1223 105.937 86.9472 106.712C87.8104 106.949 88.7894 106.806 89.7344 106.493C88.4727 107.165 87.1235 107.664 85.7241 107.977C89.4475 108.312 92.9897 104.967 93.3571 104.61C93.5282 105.128 93.8302 106.217 93.649 107.006C93.4049 108.084 92.431 110.037 93.0199 110.29C93.0274 110.292 95.9165 108.122 95.5063 105.734Z" fill="#B5453C"/>
<path d="M41.4955 197.364H31.0339C31.0339 197.364 30.7822 195.797 31.3296 194.609C31.8531 193.469 32.6735 192.95 32.4759 191.57C33.1416 192.242 34.225 192.995 35.7375 192.795C35.9224 193.091 36.9329 194.671 37.552 195.107C38.2365 195.591 41.2841 195.416 41.4955 197.364Z" fill="#233862"/>
<path d="M82.1857 130.562C80.8393 131.023 78.9506 131.277 77.0178 131.483C74.2671 131.779 71.4258 131.978 69.9385 132.564C69.2361 132.839 68.5698 133.196 67.9541 133.627C67.9337 133.64 67.9143 133.655 67.8963 133.671C67.603 133.879 67.3285 134.111 67.0758 134.366C66.6673 134.767 66.3413 135.242 66.1157 135.765C65.5696 137.09 66.2932 140.762 66.7562 142.77C66.8485 143.163 66.8057 143.575 66.6345 143.941C66.4633 144.308 66.1733 144.608 65.81 144.795C64.763 145.327 63.735 145.817 62.7258 146.267L62.566 146.337C62.5761 146.133 62.5799 145.93 62.5799 145.732C62.5794 144.884 62.5201 144.036 62.4024 143.195C62.1508 144.592 61.2171 146.102 60.3426 147.264C46.3035 152.8 36.495 150.394 36.6548 147.635C37.2097 138.061 43.7793 129.918 43.7793 129.918C56.0341 115.915 80.8229 112.228 80.8229 112.228C80.8229 112.228 82.0108 112.088 83.4428 113.78C85.5039 116.216 85.6058 116.851 85.6058 116.851C85.6058 116.851 86.1469 129.205 82.1857 130.562Z" fill="#ABDDDA"/>
<path d="M77.0165 131.484C74.2659 131.778 71.4258 131.978 69.9385 132.563C69.3295 123.636 73.6178 116.92 73.6178 116.92C73.6178 116.92 76.4138 128.104 77.0165 131.484Z" fill="#91CECF"/>
<path d="M79.9031 115.193C79.9031 115.193 73.0088 115.862 72.4564 120.262C71.904 124.663 79.0664 142.593 80.0919 144.218C81.9592 147.173 92.9557 157.304 92.9557 157.304L94.9828 156.098C94.9828 156.098 87.1812 143.122 85.9745 141.908C84.082 140.004 82.2411 116.717 79.9031 115.193Z" fill="#FFB27D"/>
<path d="M83.439 123.602C83.439 123.602 84.1462 112.253 75.3053 114.998C66.4643 117.743 76.6781 137.264 76.6781 137.264C76.6781 137.264 81.8661 137.017 83.7071 132.565L83.439 123.602Z" fill="#ABDDDA"/>
<path d="M66.7562 142.772C66.8479 143.165 66.8048 143.576 66.6337 143.942C66.4625 144.308 66.1729 144.608 65.81 144.795C64.7631 145.327 63.735 145.817 62.7258 146.267C62.6717 146.097 62.6227 145.92 62.5799 145.733C62.4026 144.899 62.3429 144.045 62.4025 143.195C62.6365 138.957 65.5734 135.747 67.0796 134.368C66.6711 134.77 66.3451 135.245 66.1195 135.768C65.5696 137.092 66.2932 140.764 66.7562 142.772Z" fill="#91CECF"/>
<path d="M80.8192 112.228C80.8192 112.228 81.8988 110.888 82.6287 110.931C82.6287 110.931 85.5782 114.989 85.6021 116.851C85.6021 116.851 81.9228 112.04 80.8192 112.228Z" fill="#91CECF"/>
<path d="M109.122 151.499C109.122 151.499 107.553 151.527 107.215 151.48C106.876 151.433 106.438 151.29 105.992 151.274C105.545 151.258 105.149 151.398 104.733 151.482C104.672 151.494 104.61 151.5 104.547 151.499H101.945C101.945 151.499 101.685 151.376 101.399 150.926C101.273 150.73 101.259 150.265 100.977 150.111C99.402 149.245 103.595 149.74 103.595 149.74C103.595 149.74 106.227 149.693 106.471 149.871C106.905 150.187 109.222 151.377 109.122 151.499Z" fill="#ED985F"/>
<path d="M101.948 151.5C101.948 151.5 103.546 151.953 103.98 152.242L104.438 152.527C104.438 152.527 104.703 152.236 104.286 151.908C104.065 151.738 103.456 151.24 103.436 150.672C103.416 150.104 101.614 150.602 101.948 151.5Z" fill="#ED985F"/>
<path d="M94.9853 156.096C94.9853 156.096 96.1266 157.093 96.9987 157.303C97.8707 157.513 98.8534 159.957 99.012 160.305C99.1705 160.654 98.184 160.151 97.7889 159.556C97.3938 158.961 97.1245 158.729 97.01 158.857C96.8955 158.986 97.0792 160.616 97.736 161.521C98.3929 162.426 98.7892 163.226 98.3149 163.175C97.8405 163.125 95.0269 162.451 94.4481 160.77C93.8692 159.09 94.2933 159.032 92.9632 157.308C91.6332 155.585 94.9853 156.096 94.9853 156.096Z" fill="#FFB27D"/>
<path d="M220.903 193.756C220.899 194.693 220.519 195.591 219.845 196.253C219.17 196.916 218.256 197.29 217.303 197.293H200.3C199.357 197.276 198.459 196.895 197.798 196.234C197.138 195.573 196.767 194.683 196.767 193.756C196.767 192.829 197.138 191.94 197.798 191.278C198.459 190.617 199.357 190.237 200.3 190.219H217.303C218.256 190.222 219.17 190.595 219.845 191.258C220.519 191.92 220.9 192.818 220.903 193.756Z" fill="#2B478B"/>
<path d="M212.132 193.756C212.129 194.693 211.749 195.591 211.074 196.254C210.4 196.916 209.486 197.29 208.532 197.293H200.3C199.357 197.276 198.459 196.895 197.798 196.234C197.138 195.573 196.767 194.683 196.767 193.756C196.767 192.829 197.138 191.94 197.798 191.278C198.459 190.617 199.357 190.237 200.3 190.219H208.532C209.486 190.222 210.4 190.595 211.074 191.258C211.749 191.92 212.129 192.818 212.132 193.756Z" fill="#699FF0"/>
<path opacity="0.4" d="M217.591 191.003H201.372C201.091 191.003 200.863 191.228 200.863 191.504V191.618C200.863 191.895 201.091 192.119 201.372 192.119H217.591C217.872 192.119 218.1 191.895 218.1 191.618V191.504C218.1 191.228 217.872 191.003 217.591 191.003Z" fill="#E9F3FE"/>
<path d="M206.394 183.735C206.844 184.625 206.918 185.654 206.599 186.597C206.28 187.54 205.594 188.321 204.692 188.769L188.578 196.705C187.673 197.15 186.625 197.224 185.664 196.911C184.704 196.597 183.909 195.921 183.456 195.032C183.002 194.143 182.927 193.113 183.246 192.169C183.565 191.225 184.253 190.445 185.158 189.999L201.273 182.062C202.178 181.62 203.225 181.548 204.185 181.861C205.144 182.174 205.939 182.848 206.394 183.735Z" fill="#EF7E29"/>
<path d="M198.082 187.829C198.532 188.719 198.606 189.747 198.287 190.69C197.968 191.633 197.283 192.414 196.38 192.862L188.579 196.705C187.674 197.15 186.626 197.225 185.665 196.911C184.705 196.597 183.91 195.922 183.457 195.032C183.003 194.143 182.928 193.113 183.247 192.17C183.566 191.226 184.254 190.445 185.159 189.999L192.96 186.156C193.866 185.714 194.913 185.641 195.872 185.955C196.832 186.268 197.626 186.942 198.082 187.829Z" fill="#F99746"/>
<path opacity="0.5" d="M202.463 183.731L187.093 191.299C186.965 191.362 186.816 191.372 186.68 191.328C186.544 191.284 186.432 191.188 186.367 191.063L186.313 190.955C186.249 190.829 186.238 190.684 186.283 190.55C186.328 190.416 186.425 190.305 186.553 190.242L201.925 182.672C202.053 182.61 202.201 182.6 202.337 182.645C202.473 182.689 202.586 182.784 202.651 182.91L202.705 183.017C202.769 183.143 202.779 183.289 202.734 183.423C202.689 183.557 202.591 183.667 202.463 183.731Z" fill="#FFE2CC"/>
</svg>
