<svg viewBox="0 0 2845.07 1602.2" xmlns="http://www.w3.org/2000/svg"><path d="m350.63 1784.2s-402.76-952.13 463.52-1129.14c540.53-110.44 526.4-494.43 1291.25-468.22 783.24 26.85 474.8 766.82 576.42 936.08s362.42 237.17 267.85 661.28z" fill="#ebf3fa" transform="translate(-193 -185.56)"/><path d="m2195.2 392.93c-27.79-62.66-135-25.21-135-25.21s-57.28 126-78.65 132.06 27.94-117.27 27.94-117.27c-42.86 2.42-142.5 70.78-142.5 70.78s27.4 132.45 5.18 133.09-18.27-118.52-18.27-118.52c-39 18.56-69.77 72.12-69.77 72.12-35.71 85 75.28 126.47 75.28 126.47s8.5 46.1-11.91 103.64-5 10.81-8.94 28.49l11.14-1.71c.45-3.13 1-6.18 1.69-9.12a.08.08 0 0 1 0 0v-.13c.5-1.84 1.22-4.46 2.12-7.65s0 0 0 0c2.38-7.19 3.92-12.47 4.82-16.24a.08.08 0 0 0 0 0c7-22.49 17.47-52 26.38-59.24a21.67 21.67 0 0 1 -3.17-4.74l3.17 4.74c25.38 37.93 121.79 30 173.23 11s26-30.5-6.38-50.41-91.3-4.26-110.48-11.07 5.23-20.33 41.07-23.06 59 30 117.06 26.58 85.06-117.72 85.06-117.72c-37.62 18.36-111.82 7.48-116.64-5.72s100.28-28 116-34.62 39.37-43.88 11.57-106.54z" fill="#dfebfd" transform="translate(-193 -185.56)"/><path d="m2506.16 1477.37c99.7-59.55 14.81-232.19 14.81-232.19s-223.61-70.59-238.21-105.3 203 23 203 23c-12.84-71.59-148.18-225.2-148.18-225.2s-217.18 73.15-222.79 35.92 195.6-55 195.6-55c-39.18-61.77-135.56-102.61-135.56-102.61-150.27-42.68-197.32 152.48-197.32 152.48s-75.8 23.72-176.76 1.15-19.18-6.11-49.74-9.21l5.16 18.39c5.36.12 10.59.43 15.68 1a.1.1 0 0 1 .09 0h.22c3.2.46 7.75 1.13 13.31 2 12.57 2.53 21.76 4 28.3 4.8h.06c39.26 7.13 91.05 18.74 105 32.27a37 37 0 0 1 7.33-6.31l-7.33 6.31c-58.6 50.42-25.62 211 17 293.59s56.62 37.46 83.49-21-11.51-154.45-4-188.1 35.27 4.65 47.2 64.37-38.32 105.37-20.78 202.33 215.37 119 215.37 119c-38.55-59.52-35.43-186.53-14.21-197.35s67.62 162.94 81.94 188 81.61 57.21 181.32-2.34z" fill="#dfebfd" transform="translate(-193 -185.56)"/><path d="m1027.88 778.26c55.84-80.56 196.36.79 196.36.79s46.67 192.33 75.07 206.61-7.8-172.23-7.8-172.23c59.56 14.9 181.18 137.65 181.18 137.65s-74 178.7-43 185.55 57.45-161.57 57.45-161.57c49.77 36.53 78.66 120 78.66 120 27.36 129-139.67 157.44-139.67 157.44s-24.31 62.48-11.07 148.78 4 16.51 4.91 42.42l-15.19-5.4c.2-4.52.24-8.94.07-13.26a.11.11 0 0 0 0-.08 1.09 1.09 0 0 0 0-.18c-.2-2.72-.51-6.59-.93-11.32s0 0 0 0c-1.41-10.74-2.16-18.56-2.42-24.11v-.06c-3.76-33.46-10.58-77.74-21.17-90.28a31.47 31.47 0 0 0 5.73-5.81l-5.73 5.81c-45.81 46.47-179.12 9.53-246.26-31.09s-28.31-49.81 22.48-69.1 129.4 18.51 158.16 14.1-1.9-30-51.5-43.42-90.92 26.24-171.57 5.93-87.9-188.16-87.9-188.16c47.92 35.87 155.06 40.5 165.38 23.25s-133.35-66.25-153.65-79.75-43.47-71.95 12.41-152.51z" fill="#cde0fb" transform="translate(-193 -185.56)"/><path d="m2044.7 898.44c-.19-.44-.41-.91-.68-1.4-.88-3.44-8.59-21.66-9.45-23.66-2.42-5.68-6.39-2.66-6.39 1.58 0 1.31.56 10.67.24 12-6.55-4.82-10.59-9.84-27.48-14.61 0 0-12.89-4.24-6.69 8.74 4.14 8.68 9.08 9.77 15.11 21.91s17.18 20.49 27.16 19.73l10.71 3.62 10.83-16-7-4.3a16.38 16.38 0 0 1 -6.36-7.61z" fill="#ffb27d" transform="translate(-193 -185.56)"/><path d="m1200.83 346.23h634.35v912.84h-634.35z" fill="#fff"/><path d="m1363.51 428.43h289.14v15.01h-289.14z" fill="#f99746"/><path d="m1326.14 463.27h144.57v15.01h-144.57z" fill="#f99746"/><path d="m1488.15 463.27h212.19v15.01h-212.19z" fill="#f99746"/><path d="m1341.69 801.44h311.95v11.43h-311.95z" fill="#aec3ff"/><path d="m1506.19 770.94h220.89v11.43h-220.89z" fill="#aec3ff"/><path d="m1268.25 770.94h215.18v11.43h-215.18z" fill="#aec3ff"/><path d="m1515.42 740.44h190.03v11.43h-190.03z" fill="#aec3ff"/><path d="m1289.88 740.44h190.03v11.43h-190.03z" fill="#aec3ff"/><path d="m1741.58 1099.74h-91.73a7.6 7.6 0 0 1 -7.57-7.57 7.59 7.59 0 0 1 7.57-7.57h91.73a7.58 7.58 0 0 1 7.56 7.57 7.59 7.59 0 0 1 -7.56 7.57z" fill="#a8c3f7" transform="translate(-193 -185.56)"/><path d="m1869.54 1099.74h-91.73a7.6 7.6 0 0 1 -7.57-7.57 7.59 7.59 0 0 1 7.57-7.57h91.73a7.59 7.59 0 0 1 7.57 7.57 7.6 7.6 0 0 1 -7.57 7.57z" fill="#a8c3f7" transform="translate(-193 -185.56)"/><path d="m1757.5 1300.7a82.64 82.64 0 1 1 82.63-82.63 82.73 82.73 0 0 1 -82.63 82.63zm0-161.1a78.47 78.47 0 1 0 78.47 78.47 78.56 78.56 0 0 0 -78.47-78.47z" fill="#a8c3f7" transform="translate(-193 -185.56)"/><path d="m1757.5 1284.65a66.59 66.59 0 1 1 66.58-66.58 66.66 66.66 0 0 1 -66.58 66.58zm0-129a62.42 62.42 0 1 0 62.42 62.42 62.49 62.49 0 0 0 -62.42-62.42z" fill="#a8c3f7" transform="translate(-193 -185.56)"/><path d="m1758.38 1244.19c-8.65 2.8-17.09 4.26-23.73 3.71-10.11-.84-15.81-6.14-16-14.92-.18-7 2.71-13.07 8.38-18-.06-.47-.1-1-.14-1.43-.37-4.91.68-8.17 3.12-9.69 4-2.47 9.82.9 10.06 1l-1.31 2.25c-1.31-.77-5.22-2.45-7.38-1.09-1.86 1.17-2.08 4.38-1.92 7a55.46 55.46 0 0 1 18-8 96.61 96.61 0 0 1 16.95-2.89c0-.61.08-1.16.14-1.61.18-1.2.6-2.61 1.78-2.9a2 2 0 0 1 2.1 1.1 6.24 6.24 0 0 1 .8 3.15c1.88 0 3.63 0 5.18.11v-.1a29.77 29.77 0 0 1 .4-9c.66-3 1.74-4.52 3.25-4.67a2 2 0 0 1 2.06 1.27c.85 2-.74 7.55-3 12.84 2.15.37 3.61 1 4.07 1.8a1.93 1.93 0 0 1 -.52 2.43c-1.74 1.61-3.13 1.2-3.8.82a3.71 3.71 0 0 1 -1.39-1.59c-1.74 3.43-3.63 6.37-5.12 7.62a2.58 2.58 0 0 1 -3 .44 2.66 2.66 0 0 1 -.65-.53 36.26 36.26 0 0 1 -2 4.1c-2.72 4.77-5.78 7.22-8.85 7.07a5 5 0 0 1 -3.32-1.46 48.27 48.27 0 0 1 -6 9.8c-2.16 2.66-4.92 3.64-7.76 2.75-5-1.58-9.6-8.87-11.31-17.5a19.5 19.5 0 0 0 -6.26 14.91c.2 7.49 4.79 11.66 13.66 12.4 22.38 1.87 61.61-18.94 64.59-34.25-2.46 12.38-21.04 26.56-41.08 33.06zm-28.63-28.19c1.37 9.11 5.93 15.81 9.8 17 1.81.56 3.49-.08 5-1.91a44.79 44.79 0 0 0 6.25-10.69 15.71 15.71 0 0 1 -1.08-3.39 24.39 24.39 0 0 1 0-10 65.84 65.84 0 0 0 -12.25 4.27 40 40 0 0 0 -7.72 4.72zm23.89 4.26a3 3 0 0 0 2.29 1.56c2 .08 4.33-2 6.47-5.77a34.2 34.2 0 0 0 2.68-6 26.24 26.24 0 0 1 -.73-5.29c-2.88.24-6 .62-9.25 1.21 1.69 3.23.71 8.77-1.46 14.29zm14.15-10.22c.41 1.22.77 1.46.77 1.46 1.46-1.24 3.11-4 4.62-7-1.23 0-2.62-.06-4.13 0a31.34 31.34 0 0 1 -1.26 5.5zm-15.24-3.34c-.66 1.38-1.14 5.79-.34 9.72 1.31-4.31 1.58-8.03.34-9.72zm25.19-14.98a16.27 16.27 0 0 0 -.62 2.71 20.14 20.14 0 0 0 .62-2.71z" fill="#a8c3f7" transform="translate(-193 -185.56)"/><path d="m1323.5 662.59h348.32v11.43h-348.32z" fill="#aec3ff"/><path d="m1507.18 632.09h246.65v11.43h-246.65z" fill="#aec3ff"/><path d="m1241.5 632.09h240.27v11.43h-240.27z" fill="#aec3ff"/><path d="m1517.49 601.59h212.19v11.43h-212.19z" fill="#aec3ff"/><path d="m1265.65 601.59h212.19v11.43h-212.19z" fill="#aec3ff"/><path d="m2303.79 869.91s53.33 204.3-108.81 170.34c-43.78-9.17-160.41-125.39-160.41-125.39s11.23-17.71 25-15.83c0 0 112.68 36.64 130.7 49.9 10 7.35 21.37-108.4 55.89-106.75s57.63 27.73 57.63 27.73z" fill="#91cecf" transform="translate(-193 -185.56)"/><path d="m2376.86 1733.79s-3 48-12.28 48.74c-1.23.09-47.14.09-47.14.09l-58.62-.34s.39-14.12 17.52-17.11 45.81-15 56.19-37.67c10.91-23.82 44.33 6.29 44.33 6.29z" fill="#163560" transform="translate(-193 -185.56)"/><path d="m2380.24 1737.12s-17.82 6-31.73 6a116.39 116.39 0 0 1 -29.62-4.23s-3.35-32.44-21.81-103.92c-9.68-37.46-23.5-85.63-43.16-145.49-54.37-165.42-70.9-262.19-72.41-271.36-.08-.48-.11-.72-.11-.72l.17-.08 167.14-73.39s-20.65 228 5.7 315.51a368.43 368.43 0 0 1 9.57 41.92c16.64 95.03 16.26 235.76 16.26 235.76z" fill="#2b478b" transform="translate(-193 -185.56)"/><path d="m2364 1501.33-66.9 133.61c-9.68-37.46-23.5-85.63-43.16-145.49-54.37-165.42-70.9-262.19-72.41-271.36 0-.27 0-.53.06-.8l167.14-73.39s-20.65 228 5.7 315.51a368.43 368.43 0 0 1 9.57 41.92z" fill="#233862" transform="translate(-193 -185.56)"/><path d="m2246.31 1733.79s-3 48-12.27 48.74c-1.24.09-47.15.09-47.15.09l-58.61-.34s.38-14.12 17.51-17.11 45.81-15 56.19-37.67c10.92-23.82 44.33 6.29 44.33 6.29z" fill="#163560" transform="translate(-193 -185.56)"/><path d="m2151.55 1149.28s-2.17 147.74 23.39 329.14 16.9 258.4 16.9 258.4 17.56 5.69 24.65 6.27c18.06 1.47 36.57-4.24 36.57-4.24s36.59-181.46 26.1-272.26 50.1-311.56 50.1-311.56z" fill="#2b478b" transform="translate(-193 -185.56)"/><path d="m2273.29 797.71-29.29 25.74-47.91-2.11c.11-3.86 1-19.91 1.8-34.45.05-.86.1-1.72.15-2.56.7-12.38 1.32-23 1.32-23l40.88-25.39 15.24-9.46c0 .25.63 13.53.73 15.47 1.73 34.39 17.08 55.76 17.08 55.76z" fill="#ffb27d" transform="translate(-193 -185.56)"/><path d="m2141.81 1155.67c.67 78 5.87 260.41 9.69 264.12 40.62 39.2 219.27-10.75 228.75-53.94s-36-553.83-105.38-574.22c-14.39-4.23-91.36 20.65-91.36 20.65a488.72 488.72 0 0 0 -20 71.81c-2.93 14.91-12.51 121.26-18.1 192.34-1.48 18.94-2.69 35.37-3.4 46.9-.27 4.76-.33 16.37-.2 32.34z" fill="#abddda" transform="translate(-193 -185.56)"/><path d="m2253 743c-7.28 17.57-41 36.63-55.13 43.89.05-.86.1-1.72.15-2.56.7-12.38 1.32-23 1.32-23l40.88-25.39c9.62-1.5 15.78-.17 12.78 7.06z" fill="#fca56b" transform="translate(-193 -185.56)"/><path d="m2184.22 763.05s74 6.88 77.55-39.25 15.53-76.32-31.55-82.66-57.63 10.55-62.57 25.66-2.58 93.28 16.57 96.25z" fill="#ffb27d" transform="translate(-193 -185.56)"/><path d="m2169.48 662s15.18 49.57 25.16 45.15 19.1-8.06 20.82 7.5-9 36.21 23.73 32.06 61.38-97 49.19-110.87c-35.17-39.84-167.55-21.29-118.9 26.16z" fill="#163560" transform="translate(-193 -185.56)"/><path d="m2202.38 792.75c.92-.38 52.8-23.66 58.87-21.65s13.63 20.53 13.63 20.53l-91.36 20.65s7.19-14.62 18.86-19.53z" fill="#91cecf" transform="translate(-193 -185.56)"/><path d="m2141.81 1211.53c139-100.52 149.82-259.85 149.82-259.85-66.14 37.31-129 99-149.33 166.78-1.47 19 .44 49.21-.27 60.73-.29 4.81-.35 16.37-.22 32.34z" fill="#91cecf" transform="translate(-193 -185.56)"/><path d="m2054.53 1160.1s-1.75-1.39-5.64-1.7c-3.36-1.13-12.73-5.26-14.33-6.71-5.09-4.62-6.87.29-3.32 5.19.77 1.06 3.52 2.87 4.48 3.88-7.61 2.88-17.77 8.81-31 20.39 0 0-10.56 8.51 3.7 10.37 9.54 1.24 13.14-2.31 26.61-.78s26.54-3.28 31.32-12.07l8.87-7-7.56-17.8z" fill="#ffb27d" transform="translate(-193 -185.56)"/><path d="m2232.59 816s146.41-7 14 239.3c-21.17 39.4-172.48 125-172.48 125s-14.22-15.4-8.85-28.27c0 0 98.53-112.13 111.74-116.69 11.71-4 9.29-140.58 19.77-173.5s35.82-45.84 35.82-45.84z" fill="#abddda" transform="translate(-193 -185.56)"/><path d="m2059.36 1780h-106.14-56.14a39.73 39.73 0 0 1 -39.6-39.64l.12-392.19a39.71 39.71 0 0 1 39.62-39.6h49.78 112.49a39.74 39.74 0 0 1 39.61 39.64l-.12 392.19a39.74 39.74 0 0 1 -39.62 39.6z" fill="#c0d8fb" opacity=".5" transform="translate(-193 -185.56)"/><path d="m2081.87 1668.83-2.82-20.64-2.82-20.65a19.4 19.4 0 0 0 -21.77-16.55c-.59.08-1.16.2-1.72.33a19.25 19.25 0 0 0 3.33-9.15 19.33 19.33 0 0 0 36.64-11.92l-4.85-20.26-4.85-20.27a19.34 19.34 0 1 0 -37.62 9l7.31 30.53a19.14 19.14 0 0 0 -15.26-8.21 52.93 52.93 0 0 0 -4-40.79l-32.12-26.55a19.33 19.33 0 0 0 -26.36 28.19 19.06 19.06 0 0 0 -5.15.66l-20.1 5.5-20.1 5.5a19.39 19.39 0 0 0 -13.67 14.09l-2.11-5.05-8-19.23a19.34 19.34 0 0 0 -35.7 14.91l8 19.23 5.15 12.32a19.36 19.36 0 0 0 -12.22 17l-1 20.81-1 20.81a19.28 19.28 0 0 0 24.86 19.48 19.46 19.46 0 0 0 -1.53 13.07 19.1 19.1 0 0 0 -8.2 9.31l-8 19.25-8 19.26a19.33 19.33 0 0 0 32.09 20.47 19.16 19.16 0 0 0 6 7.78 19.39 19.39 0 0 0 27.11-3.6l12.66-16.55 12.67-16.55a19.09 19.09 0 0 0 3.45-7.36 19.24 19.24 0 0 0 12.89-3.3l3.31-2.28-4.59 6-12.66 16.54a19.34 19.34 0 0 0 30.71 23.51l12.66-16.54 12.67-16.55c.16-.21.3-.44.45-.65a19.44 19.44 0 0 0 3.71 4.36l-4.51 5.89a19.34 19.34 0 0 0 30.72 23.51l25.33-33.09a19.26 19.26 0 0 0 -8.23-29.71l.71-.06a19.39 19.39 0 0 0 16.53-21.8zm-174.29-18.45.36-7.1a18.53 18.53 0 0 0 7.2 7l-8.86 6.11a19.31 19.31 0 0 0 1.3-6.01zm130.33-17.61 3.79 27.76a19.41 19.41 0 0 0 -20.08-10.64 19.24 19.24 0 0 0 5.26-4.71l10.88-14.21q.03.9.15 1.8zm-44-75 4.87 4-5 3.46a19.23 19.23 0 0 0 .14-7.45zm4.2 61.33a19.25 19.25 0 0 0 -3.42-8.21 19.12 19.12 0 0 0 4.16-2.15l15.24-10.51zm12.65 36.19a19.48 19.48 0 0 0 -14.58-4.4l.41-5.21a19 19 0 0 0 3.17 3.09 19.23 19.23 0 0 0 14.5 3.75 19.67 19.67 0 0 0 -3.49 2.78zm-39-73.2a19.38 19.38 0 0 0 .15 21.71c.08.12.18.23.26.35a19.42 19.42 0 0 0 -4 2.06 19.38 19.38 0 0 0 -6.63-21.28h-.06zm-19.25 46.51 7.46-9.75a18.3 18.3 0 0 0 -.24 1.83l-1.42 17.9a19.26 19.26 0 0 0 -9.82-4.73l4-5.25zm-34.92 81.74 2.18-5.29a19.15 19.15 0 0 0 .93-11.77 13.57 13.57 0 0 0 1.31-.81l34.31-23.66c.22-.15.42-.32.63-.48a19.36 19.36 0 0 0 2.18 5.29l-6.11 4.21a19.28 19.28 0 0 0 -7.81 11.54 19.36 19.36 0 0 0 -17.27 7.45zm91-23.84 1.07 4.48a19 19 0 0 0 -5.36-1.52zm40.85 4.52-1.49-6.23-.28-1.19a19.49 19.49 0 0 0 7.9 5.81 19.3 19.3 0 0 0 -6.08 1.59zm-117.15-99.65-10.5 13.72-12.66 16.54c-.06.07-.1.15-.16.23l.66-13.11c0-.34 0-.67 0-1 .6-.19 1.19-.4 1.78-.64a19.43 19.43 0 0 0 11.81-19.36 19.44 19.44 0 0 0 9.12 3.63z" fill="#afcdfb" transform="translate(-193 -185.56)"/><path d="m1953.22 1780h-56.14a39.73 39.73 0 0 1 -39.6-39.64l.12-392.19a39.71 39.71 0 0 1 39.62-39.6h49.78a48.54 48.54 0 0 1 6.5 24.5l-.13 443c.01 1.3-.04 2.62-.15 3.93z" fill="#afcdfb" opacity=".5" transform="translate(-193 -185.56)"/><path d="m2096.5 1327.07h-150.74-85.55a7.72 7.72 0 0 1 -7.7-7.71v-36.93a7.72 7.72 0 0 1 7.71-7.7h85.43 150.84a7.72 7.72 0 0 1 7.7 7.7v36.94a7.71 7.71 0 0 1 -7.69 7.7z" fill="#f99746" transform="translate(-193 -185.56)"/><path d="m1945.76 1327h-85.55a7.72 7.72 0 0 1 -7.7-7.71v-36.93a7.72 7.72 0 0 1 7.71-7.7h85.43a7.73 7.73 0 0 1 7.68 7.71v36.93a7.73 7.73 0 0 1 -7.57 7.7z" fill="#ef7e29" transform="translate(-193 -185.56)"/><path d="m2651.71 1756.54a26.07 26.07 0 0 1 -26 26h-122.66a26 26 0 0 1 0-52h122.68a26.06 26.06 0 0 1 25.98 26z" fill="#ef7e29" transform="translate(-193 -185.56)"/><path d="m2588.42 1756.54a26.05 26.05 0 0 1 -26 26h-59.4a26 26 0 0 1 0-52h59.4a26 26 0 0 1 26 26z" fill="#f99746" transform="translate(-193 -185.56)"/><rect fill="#ffe2cc" height="8.19" opacity=".5" rx="3.68" width="124.39" x="2314.1" y="1550.76"/><path d="m1532.22 1075.28v365.81a40.94 40.94 0 0 1 -40.82 40.82h-217.4a40.31 40.31 0 0 1 -16.38-3.46 41 41 0 0 1 -24.43-37.36v-365.81a40.93 40.93 0 0 1 40.81-40.81h217.4a40.93 40.93 0 0 1 40.82 40.81z" fill="#fcecdb" transform="translate(-193 -185.56)"/><path d="m1435.9 1172a44.44 44.44 0 1 1 57.22-26 44.43 44.43 0 0 1 -57.22 26z" fill="#f7e0cb" transform="translate(-193 -185.56)"/><path d="m1493.12 1146.05-83.19-31.24a44.43 44.43 0 1 1 83.19 31.24z" fill="#efcbab" transform="translate(-193 -185.56)"/><path d="m1285.75 1164.85a44.43 44.43 0 1 1 62.52-6.32 44.44 44.44 0 0 1 -62.52 6.32z" fill="#f7e0cb" transform="translate(-193 -185.56)"/><path d="m1348.27 1158.53-68.84-56.2a44.43 44.43 0 0 1 68.84 56.2z" fill="#efcbab" transform="translate(-193 -185.56)"/><path d="m1435.9 1443.06a44.43 44.43 0 1 1 57.22-26 44.42 44.42 0 0 1 -57.22 26z" fill="#f7e0cb" transform="translate(-193 -185.56)"/><path d="m1493.12 1420.11-83.19-31.24a44.43 44.43 0 1 1 83.19 31.24z" fill="#efcbab" transform="translate(-193 -185.56)"/><path d="m1285.75 1435.89a44.43 44.43 0 1 1 62.52-6.32 44.44 44.44 0 0 1 -62.52 6.32z" fill="#f7e0cb" transform="translate(-193 -185.56)"/><path d="m1348.27 1432.58-68.84-56.19a44.43 44.43 0 0 1 68.84 56.19z" fill="#efcbab" transform="translate(-193 -185.56)"/><path d="m1470.55 1311.14a44.43 44.43 0 1 1 21.12-59.17 44.42 44.42 0 0 1 -21.12 59.17z" fill="#f7e0cb" transform="translate(-193 -185.56)"/><path d="m1491.67 1252-80.3 38a44.43 44.43 0 1 1 80.3-38z" fill="#efcbab" transform="translate(-193 -185.56)"/><path d="m1272.6 1254.48a44.43 44.43 0 1 1 24.74 57.76 44.43 44.43 0 0 1 -24.74-57.76z" fill="#f7e0cb" transform="translate(-193 -185.56)"/><path d="m1297.34 1312.24 33-82.5a44.43 44.43 0 1 1 -33 82.5z" fill="#efcbab" transform="translate(-193 -185.56)"/><path d="m1532.22 1125.35v318.32c0 21-16.8 38.24-37.35 38.24h-199a36.28 36.28 0 0 1 -15-3.24v-309.26a44.45 44.45 0 0 1 13.69-32.15 43.43 43.43 0 0 1 10.51-7.44 41.87 41.87 0 0 1 18.84-4.47z" fill="#efcbab" opacity=".5" transform="translate(-193 -185.56)"/><rect fill="#fcecdb" height="299.06" rx="40.82" transform="matrix(0 1 -1 0 2595.68 -271.99)" width="447.44" x="1213.83" y="1201.59"/><path d="m1490.77 1265a44.43 44.43 0 1 1 57.22-26 44.42 44.42 0 0 1 -57.22 26z" fill="#f7e0cb" transform="translate(-193 -185.56)"/><path d="m1548 1239-83.19-31.24a44.43 44.43 0 1 1 83.19 31.24z" fill="#efcbab" transform="translate(-193 -185.56)"/><path d="m1340.62 1257.79a44.43 44.43 0 1 1 62.52-6.32 44.44 44.44 0 0 1 -62.52 6.32z" fill="#f7e0cb" transform="translate(-193 -185.56)"/><path d="m1403.14 1251.47-68.84-56.2a44.43 44.43 0 0 1 68.84 56.2z" fill="#efcbab" transform="translate(-193 -185.56)"/><path d="m1490.77 1536a44.43 44.43 0 1 1 57.22-26 44.42 44.42 0 0 1 -57.22 26z" fill="#f7e0cb" transform="translate(-193 -185.56)"/><path d="m1548 1513-83.19-31.23a44.43 44.43 0 0 1 83.19 31.23z" fill="#efcbab" transform="translate(-193 -185.56)"/><circle cx="1368.72" cy="1494.41" fill="#f7e0cb" r="44.43" transform="matrix(.40896764 -.91254889 .91254889 .40896764 -747.8 1946.6)"/><path d="m1403.14 1525.52-68.84-56.19a44.43 44.43 0 0 1 68.84 56.19z" fill="#efcbab" transform="translate(-193 -185.56)"/><path d="m1525.42 1404.08a44.43 44.43 0 1 1 21.12-59.18 44.42 44.42 0 0 1 -21.12 59.18z" fill="#f7e0cb" transform="translate(-193 -185.56)"/><path d="m1546.54 1344.9-80.3 38.06a44.43 44.43 0 0 1 80.3-38.06z" fill="#efcbab" transform="translate(-193 -185.56)"/><path d="m1327.47 1347.42a44.43 44.43 0 1 1 24.74 57.76 44.43 44.43 0 0 1 -24.74-57.76z" fill="#f7e0cb" transform="translate(-193 -185.56)"/><path d="m1352.21 1405.18 33-82.5a44.43 44.43 0 1 1 -33 82.5z" fill="#efcbab" transform="translate(-193 -185.56)"/><path d="m1018.94 1087.75h341.49v509.63h-341.49z" fill="#ef7e29"/><path d="m1066.51 1087.75h341.49v509.64h-341.49z" fill="#f99746"/><path d="m1066.51 1117.33-16.37 25.45h-31.2v-55.03h47.57z" fill="#d8661a"/><path d="m1037.34 1127.9h-47.57l29.17-40.15h47.57z" fill="#f99746"/><path d="m1242.64 1599.01h-176.13v-488.03l176.13 16.92z" fill="#efcbab" opacity=".5"/><path d="m1408 1127.9-27.71 14.88h-297.32l-16.46-25.45v-29.58z" fill="#ef7e29"/><path d="m1432.12 1127.9h-341.49l-24.12-40.15h341.49z" fill="#f99746"/><path d="m875.2 1142.3c-9-29-48.34-34.47-64.16-8.51a32.32 32.32 0 0 0 -4.8 16.18c-.87 34 66.25 165.75 75.15 177.4 16.22 21.21 114.11 72.22 114.11 72.22l20.8-3a153.8 153.8 0 0 1 -23.93-19.59c-25.16-25.1-61.82-65.93-68.54-71.58-11.53-9.7-31.46-108.02-48.63-163.12z" fill="#ed985f" transform="translate(-193 -185.56)"/><rect fill="#fcecdb" height="370.93" rx="50.27" width="547.13" x="767.48" y="1225.27"/><g transform="translate(-193 -185.56)"><path d="m1128.69 1530.29c-10.55 28.5-41.87 42.91-70 32.21s-42.32-42.45-31.76-71 41.87-42.91 70-32.22 42.31 42.52 31.76 71.01z" fill="#f7e0cb"/><path d="m1096.93 1459.32-38.2 103.18c-28.09-10.69-42.32-42.45-31.76-71s41.87-42.87 69.96-32.18z" fill="#efcbab"/><path d="m1119.92 1716.52a53.81 53.81 0 0 1 -76.45 7.83 55.64 55.64 0 0 1 -7.73-77.53 53.81 53.81 0 0 1 76.45-7.84 55.66 55.66 0 0 1 7.73 77.54z" fill="#f7e0cb"/><path d="m1112.19 1639-68.72 85.37a55.64 55.64 0 0 1 -7.73-77.53 53.81 53.81 0 0 1 76.45-7.84z" fill="#efcbab"/><path d="m1460.12 1530.29c-10.56 28.5-41.88 42.91-70 32.21s-42.31-42.45-31.76-71 41.87-42.91 70-32.22 42.3 42.52 31.76 71.01z" fill="#f7e0cb"/><path d="m1428.36 1459.32-38.19 103.18c-28.09-10.69-42.32-42.45-31.77-71s41.88-42.87 69.96-32.18z" fill="#efcbab"/><path d="m1451.34 1716.51a53.77 53.77 0 0 1 -74 9.72c-.83-.58-1.63-1.22-2.44-1.88a55.65 55.65 0 0 1 -7.72-77.54 53.8 53.8 0 0 1 76.44-7.83c.79.66 1.55 1.32 2.31 2a55.67 55.67 0 0 1 5.41 75.53z" fill="#f7e0cb"/><path d="m1445.92 1641-68.59 85.23c-.83-.58-1.63-1.22-2.44-1.88a55.65 55.65 0 0 1 -7.72-77.54 53.8 53.8 0 0 1 76.44-7.83c.79.66 1.55 1.32 2.31 2.02z" fill="#efcbab"/><path d="m1298.81 1487.31c12.85 27.52 1.28 60.37-25.83 73.4a54 54 0 0 1 -72.37-26.19c-12.84-27.5-1.28-60.37 25.83-73.4a54 54 0 0 1 72.37 26.19z" fill="#f7e0cb"/><path d="m1226.44 1461.12 46.54 99.59a54 54 0 0 1 -72.37-26.19c-12.84-27.52-1.28-60.37 25.83-73.4z" fill="#efcbab"/><path d="m1229.52 1732.83c-27.87-11.32-41.4-43.39-30.25-71.64s42.76-42 70.63-30.69 41.4 43.39 30.25 71.64-42.78 41.99-70.63 30.69z" fill="#f7e0cb"/><path d="m1300.15 1702.14-100.88-41c11.15-28.25 42.76-42 70.63-30.69s41.4 43.44 30.25 71.69z" fill="#efcbab"/><path d="m903.62 975.81c.54-2.18-47.49 21.71-49.93 24.41-22.52 25-16.1 57.59-3.21 57.9 8.27.2 6.67 14 6.67 14l92.08-39s-11.08-64.67-45.61-57.31z" fill="#b5453c"/><path d="m915 980.85s3.25-35.85-36.84-35.85c0 0 12.15 3.29 18.43 9.88 0 0-25.56-15-53.38 8.06s-10.54 80.9-19 91.88-41.4 13.18-37.38 48.69 104.56 80 98.11 109.35c0 0 39.4-57.91 11.22-84.34 0 0 13.74 12.93 15.13 28.31 0 0 3.73-30-15.37-39.62-16.9-8.5-30.75-39.57-29.29-45.12s48.37-91.24 48.37-91.24z" fill="#b5453c"/><path d="m802.37 1756.54-19.93-2.93s-67-53.24-77-152.6a177.76 177.76 0 0 1 -.48-30.72 5.36 5.36 0 0 0 -.69-3.39c-2.14-3.29-7.48-11.52-14.7-23.24-7.13-11.54-19.32-33.35-32.73-57.84-24.16-44.08-52.29-96.81-61.94-113.61-30.74-53.52-15.92-89.51-15.92-89.51s85.76-8.48 109.26-29l8.46 13s18.58 82.26 17.71 82.64c.91 2.8 1.84 5.64 2.79 8.54 14.66 45.26 31.53 101.83 40.72 147.91 5.17 25.92 7.91 48.51 6.44 63.9-.51 5.27.11 13.39 1.51 23.4 8.3 59.02 36.5 163.45 36.5 163.45z" fill="#2b478b"/><path d="m844.17 1781.75h-83.17s-2-12.67 2.35-22.28c4.16-9.22 10.09-9.52.76-24 5.28 5.44 22.26 7.69 34.28 6.07 1.48 2.39 9.5 18.41 14.42 21.94 5.46 3.93 29.69 2.52 31.36 18.27z" fill="#233862"/><path d="m717.19 1357.86c-7.27 40.06-24.42 106.72-60.36 127.93-24.16-44.08-52.29-96.81-61.94-113.61-30.74-53.52-15.92-89.51-15.92-89.51s85.76-8.48 109.26-29l8.46 13s18.58 82.26 17.71 82.64c.91 2.81 1.84 5.69 2.79 8.55z" fill="#233862"/><path d="m658.88 1288.85.28-15.55c-31 3.91-106.83-37-106.83-37s-32.41 21.56-36.84 83.12c-2.17 30-15.87 157.13-17.39 195.08-.55 13.75-.73 23.57-.79 27.49a5.42 5.42 0 0 1 -1.32 3.2 176.77 176.77 0 0 0 -16.78 25.73c-47.28 88-22.56 207.47-22.56 207.47l11-2.79s40-123.9 66.1-177.49c4.43-9.09 8.46-16.16 11.83-20.25 9.82-11.93 20.18-32.19 30.39-56.58 19.3-46.1 38-106.93 51.4-154 .92.16 31.51-78.43 31.51-78.43z" fill="#2b478b"/><path d="m840.18 1185.07c-50.65-11.62-18.29-82.79-15.36-81.54 7-1.43 22.43-13.75 36.22-37.82l1.86 1.62 31.1 27.27s-7.19 10.61-13.24 21c-4.73 8.13-8.75 16.15-8.11 18.9 2.51 1.97-18.96 53.67-32.47 50.57z" fill="#ffb27d"/><path d="m872.15 1132.2s8.91 17.58 13.66 32.8 16.64 63.63 16.64 63.63-24.52 28-58.62 26.35c0 0-18.34-28.71-11.88-54.63s40.2-68.15 40.2-68.15z" fill="#91cecf"/><path d="m894 1094.61s-7.2 10.59-13.24 21c-19.34-11.93-19.36-35.87-17.87-48.27z" fill="#ed985f"/><path d="m894.87 1108.27s-47-26.13-30.24-55.13 21.93-51.89 52.62-36.43 30.08 29.85 26.85 40.89-36.59 56.72-49.23 50.67z" fill="#ffb27d"/><path d="m952 1040.69c-2.15-12.88-8.69-14.11-13.25-13.25-17.34-28.68-45.67-17.48-45.67-17.48-15.14 19-37 22.23-37 22.23s5.45 10.14 27.9 16.41c6.86 1.92 14.64.76 22.15-1.77a125.13 125.13 0 0 1 -31.87 12c29.59 2.71 57.74-24.34 60.66-27.23 1.36 4.19 3.76 13 2.32 19.38-1.94 8.72-9.68 24.51-5 26.56.06.01 23.02-17.54 19.76-36.85z" fill="#b5453c"/><path d="m522.77 1781.75h-83.14s-2-12.67 2.35-22.28c4.16-9.22 10.68-13.42 9.11-24.58 5.29 5.44 13.9 11.53 25.92 9.91 1.47 2.39 9.5 15.17 14.42 18.7 5.44 3.91 29.66 2.5 31.34 18.25z" fill="#233862"/><path d="m846.14 1241.49c-10.7 3.73-25.71 5.78-41.07 7.45-21.86 2.39-44.44 4-56.26 8.74a75 75 0 0 0 -15.77 8.6 3.6 3.6 0 0 0 -.46.35 50 50 0 0 0 -6.52 5.62 35.75 35.75 0 0 0 -7.63 11.32c-4.34 10.71 1.41 40.41 5.09 56.65a14.75 14.75 0 0 1 -7.52 16.38q-12.48 6.45-24.51 11.9l-1.27.57c.08-1.65.11-3.29.11-4.89a151.24 151.24 0 0 0 -1.41-20.52c-2 11.3-9.42 23.51-16.37 32.91-111.57 44.77-189.52 25.31-188.25 3 4.41-77.43 56.62-143.29 56.62-143.29 97.39-113.25 294.39-143.07 294.39-143.07s9.44-1.13 20.82 12.55c16.38 19.7 17.19 24.84 17.19 24.84s4.3 99.91-27.18 110.89z" fill="#abddda"/><path d="m805.06 1248.94c-21.86 2.38-44.43 4-56.25 8.73-4.84-72.2 29.24-126.51 29.24-126.51s22.22 90.45 27.01 117.78z" fill="#91cecf"/><path d="m828 1117.19s-54.79 5.41-59.18 41 52.53 180.6 60.68 193.74c14.84 23.9 102.23 105.84 102.23 105.84l16.11-9.76s-62-104.94-71.59-114.76c-15.04-15.4-29.67-203.73-48.25-216.06z" fill="#ffb27d"/><path d="m856.1 1185.2s5.62-91.79-64.64-69.59 10.91 180.08 10.91 180.08 41.23-2 55.86-38z" fill="#abddda"/><path d="m723.52 1340.24a14.75 14.75 0 0 1 -7.52 16.36q-12.48 6.45-24.51 11.9c-.43-1.37-.82-2.8-1.16-4.32a75.1 75.1 0 0 1 -1.41-20.52c1.86-34.28 25.2-60.24 37.17-71.39a35.75 35.75 0 0 0 -7.63 11.32c-4.37 10.71 1.38 40.41 5.06 56.65z" fill="#91cecf"/><path d="m835.28 1093.21s8.58-10.84 14.38-10.49c0 0 23.44 32.82 23.63 47.88 0-0-29.24-38.91-38.01-37.39z" fill="#91cecf"/><path d="m1060.21 1410.82s-12.47.22-15.16-.16-6.17-1.53-9.72-1.66-6.7 1-10 1.68a7.35 7.35 0 0 1 -1.48.14h-20.68s-2.07-1-4.34-4.64c-1-1.58-1.11-5.34-3.35-6.59-12.52-7 20.8-3 20.8-3s20.92-.38 22.86 1.06c3.45 2.56 21.86 12.18 21.07 13.17z" fill="#ed985f"/><path d="m1003.19 1410.83s12.7 3.66 16.15 6l3.64 2.3s2.11-2.35-1.21-5c-1.75-1.38-6.59-5.41-6.75-10s-14.48-.57-11.83 6.7z" fill="#ed985f"/><path d="m947.86 1448s9.07 8.06 16 9.76 14.74 21.46 16 24.28-6.58-1.25-9.72-6.06-5.28-6.69-6.19-5.65.55 14.22 5.77 21.54 8.37 13.79 4.6 13.38-26.13-5.86-30.73-19.45-1.23-14.06-11.8-28 16.07-9.8 16.07-9.8z" fill="#ffb27d"/><path d="m1948.54 1752.57a28.71 28.71 0 0 1 -28.61 28.61h-135.12a28.61 28.61 0 0 1 0-57.21h135.12a28.69 28.69 0 0 1 28.61 28.6z" fill="#2b478b"/><path d="m1878.84 1752.57a28.7 28.7 0 0 1 -28.61 28.61h-65.42a28.61 28.61 0 0 1 0-57.21h65.42a28.69 28.69 0 0 1 28.61 28.6z" fill="#699ff0"/></g><rect fill="#e9f3fe" height="9.02" opacity=".4" rx="4.05" width="136.99" x="1596.28" y="1544.75"/><path d="m1833.24 1671.53a30.43 30.43 0 0 1 -13.53 40.71l-128.06 64.18a30.33 30.33 0 0 1 -27.18-54.23l128.07-64.19a30.42 30.42 0 0 1 40.7 13.53z" fill="#ef7e29" transform="translate(-193 -185.56)"/><path d="m1767.18 1704.64a30.42 30.42 0 0 1 -13.52 40.7l-62 31.08a30.33 30.33 0 0 1 -27.18-54.23l62-31.08a30.41 30.41 0 0 1 40.7 13.53z" fill="#f99746" transform="translate(-193 -185.56)"/><path d="m1802 1671.49-122.15 61.21a4.31 4.31 0 0 1 -5.77-1.91l-.43-.87a4.31 4.31 0 0 1 1.91-5.77l122.16-61.22a4.33 4.33 0 0 1 5.77 1.92l.43.87a4.31 4.31 0 0 1 -1.92 5.77z" fill="#ffe2cc" opacity=".5" transform="translate(-193 -185.56)"/><rect fill="#2e3552" height="7.13" rx="3.13" width="2845.07" y="1595.07"/></svg>