<svg width="24" height="24" viewBox="0 0 24 24" fill="none" xmlns="http://www.w3.org/2000/svg">
<g clip-path="url(#clip0_445_3470)">
<path d="M7.42383 21C7.81149 21.8914 8.45106 22.6502 9.26398 23.1831C10.0769 23.716 11.0278 23.9999 11.9998 23.9999C12.9719 23.9999 13.9228 23.716 14.7357 23.1831C15.5486 22.6502 16.1882 21.8914 16.5758 21H7.42383Z" fill="black"/>
<path d="M22.3918 12.5487L20.6558 6.82569C20.0999 4.82403 18.8912 3.06546 17.2217 1.82919C15.5522 0.592914 13.5175 -0.0501967 11.4407 0.00196372C9.36396 0.0541241 7.36413 0.798566 5.75878 2.11709C4.15342 3.43562 3.03455 5.25265 2.57981 7.27969L1.23181 12.8167C1.05264 13.5524 1.04293 14.3193 1.20342 15.0593C1.3639 15.7994 1.69039 16.4933 2.15823 17.0888C2.62607 17.6842 3.22306 18.1656 3.90412 18.4966C4.58519 18.8277 5.33255 18.9997 6.08981 18.9997H17.6068C18.3875 18.9997 19.1574 18.8169 19.8548 18.4659C20.5522 18.1149 21.1577 17.6055 21.6228 16.9784C22.088 16.3514 22.3998 15.6241 22.5333 14.8549C22.6668 14.0856 22.6184 13.2958 22.3918 12.5487V12.5487Z" fill="black"/>
</g>
<defs>
<clipPath id="clip0_445_3470">
<rect width="24" height="24" fill="white"/>
</clipPath>
</defs>
</svg>
