<svg width="26" height="26" viewBox="0 0 26 26" fill="none" xmlns="http://www.w3.org/2000/svg">
<g clip-path="url(#clip0_163_4942)">
<path d="M24.4347 14.8005L22.3764 7.39482C21.773 5.22527 20.4618 3.31963 18.6511 1.98083C16.8405 0.642031 14.6342 -0.0531079 12.3831 0.00591222C10.132 0.0649323 7.96521 0.874724 6.22717 2.30657C4.48913 3.73841 3.27957 5.71013 2.79077 7.90832L1.19719 15.0746C1.02116 15.8664 1.02523 16.6877 1.20909 17.4778C1.39296 18.2678 1.75192 19.0065 2.25948 19.6393C2.76704 20.272 3.41024 20.7827 4.14159 21.1336C4.87294 21.4845 5.67376 21.6667 6.48494 21.6667H7.69177C7.94041 22.8911 8.60473 23.992 9.57216 24.7827C10.5396 25.5735 11.7506 26.0054 13.0001 26.0054C14.2496 26.0054 15.4606 25.5735 16.428 24.7827C17.3955 23.992 18.0598 22.8911 18.3084 21.6667H19.2163C20.0513 21.6667 20.8751 21.4737 21.6232 21.1027C22.3713 20.7317 23.0235 20.1928 23.5288 19.528C24.0342 18.8632 24.379 18.0906 24.5363 17.2705C24.6936 16.4504 24.6592 15.6051 24.4358 14.8005H24.4347ZM13.0001 23.8333C12.3303 23.8305 11.6778 23.6209 11.1317 23.2331C10.5856 22.8452 10.1727 22.2981 9.94944 21.6667H16.0508C15.8275 22.2981 15.4146 22.8452 14.8685 23.2331C14.3225 23.6209 13.6699 23.8305 13.0001 23.8333ZM21.8033 18.2162C21.5014 18.6167 21.1103 18.9413 20.661 19.1641C20.2117 19.387 19.7167 19.502 19.2152 19.5H6.48494C5.99829 19.4999 5.51787 19.3905 5.07914 19.1799C4.64041 18.9694 4.25458 18.6629 3.95011 18.2833C3.64565 17.9037 3.43033 17.4605 3.32004 16.9865C3.20976 16.5125 3.20733 16.0198 3.31294 15.5447L4.90544 8.37741C5.28932 6.6508 6.23935 5.10206 7.60451 3.97739C8.96967 2.85273 10.6716 2.21668 12.4398 2.17036C14.2079 2.12403 15.9408 2.6701 17.363 3.72175C18.7852 4.7734 19.815 6.27027 20.2888 7.97441L22.3471 15.3801C22.4831 15.8626 22.5048 16.3701 22.4104 16.8624C22.316 17.3547 22.1081 17.8183 21.8033 18.2162Z" fill="black"/>
</g>
<defs>
<clipPath id="clip0_163_4942">
<rect width="26" height="26" fill="white"/>
</clipPath>
</defs>
</svg>
