<svg width="125" height="125" viewBox="0 0 125 125" fill="none" xmlns="http://www.w3.org/2000/svg">
<g clip-path="url(#clip0_192_3017)">
<path d="M77.8832 81.2935C77.6098 81.4422 77.3095 81.5127 77.0116 81.5127C76.538 81.5127 76.0692 81.3296 75.7177 80.9783L63.037 68.2979C62.6903 67.9512 62.4999 67.4824 62.4999 67.0012C62.4999 67.4824 62.3094 67.9512 61.9628 68.2979L49.2821 80.9783C48.9305 81.3296 48.4618 81.5127 47.9881 81.5127C47.6903 81.5127 47.39 81.4422 47.1165 81.2935L15.5029 64.1587V98.7501C15.5027 98.8135 15.5059 98.8765 15.5122 98.9388C15.5149 98.9654 15.52 98.9913 15.5237 99.0174C15.5283 99.0494 15.532 99.0814 15.5383 99.1129C15.5462 99.1529 15.5569 99.1915 15.5672 99.2301C15.572 99.2481 15.5757 99.2662 15.5811 99.284C15.593 99.3236 15.6074 99.3616 15.6218 99.4C15.6282 99.4171 15.6336 99.4344 15.6406 99.4515C15.6548 99.4859 15.6712 99.5191 15.6873 99.5526C15.6973 99.5731 15.7063 99.5936 15.7171 99.6141C15.7317 99.6412 15.7478 99.6676 15.7637 99.6937C15.7788 99.7188 15.7932 99.7442 15.8093 99.7691C15.8228 99.7896 15.8379 99.8087 15.8523 99.8282C15.8731 99.8573 15.8936 99.8858 15.916 99.9136C15.9285 99.929 15.9424 99.9432 15.9553 99.9581C15.9812 99.9881 16.0071 100.018 16.0349 100.046C16.0496 100.061 16.0652 100.074 16.0803 100.088C16.1082 100.114 16.1355 100.14 16.1651 100.165C16.1936 100.189 16.2239 100.21 16.2537 100.232C16.2713 100.245 16.2876 100.258 16.3057 100.271C16.3582 100.306 16.4126 100.339 16.4688 100.369L61.629 124.78C61.901 124.927 62.2003 125 62.4999 125C62.7994 125 63.099 124.927 63.3705 124.78L108.531 100.369C108.587 100.339 108.641 100.306 108.694 100.271C108.712 100.258 108.728 100.245 108.746 100.232C108.776 100.21 108.806 100.188 108.834 100.165C108.864 100.14 108.891 100.114 108.919 100.088C108.934 100.074 108.95 100.061 108.964 100.046C108.992 100.018 109.018 99.9881 109.044 99.9581C109.057 99.9432 109.071 99.929 109.083 99.9136C109.106 99.8861 109.126 99.8575 109.147 99.8282C109.161 99.8087 109.176 99.7896 109.19 99.7691C109.206 99.7442 109.22 99.7191 109.236 99.6937C109.251 99.6673 109.268 99.6412 109.282 99.6141C109.293 99.5936 109.302 99.5731 109.312 99.5526C109.328 99.5191 109.344 99.4859 109.359 99.4515C109.366 99.4344 109.371 99.4171 109.377 99.4C109.392 99.3619 109.406 99.3236 109.418 99.284C109.424 99.2664 109.427 99.2481 109.432 99.2301C109.442 99.1915 109.453 99.1529 109.461 99.1129C109.467 99.0814 109.471 99.0494 109.476 99.0174C109.479 98.9913 109.485 98.9654 109.487 98.9388C109.493 98.8763 109.497 98.8133 109.496 98.7501V64.1587L77.8832 81.2935Z" fill="#E2AE83"/>
<path d="M61.5404 16.124C62.0482 15.8508 62.3973 15.3501 62.4803 14.7788C62.4925 14.6912 62.4999 14.6033 62.4999 14.5151C62.4999 14.6033 62.5072 14.6912 62.5194 14.7764C62.6024 15.3477 62.9515 15.8459 63.4593 16.1216L108.625 40.5357C108.901 40.6849 109.199 40.7554 109.497 40.7554C109.199 40.7554 108.901 40.8289 108.625 40.9776L63.4593 65.3917C62.9515 65.6654 62.6024 66.1656 62.5194 66.7369C62.5072 66.8251 62.4999 66.9129 62.4999 67.0006C62.4999 66.9129 62.4925 66.8251 62.4803 66.7369C62.3973 66.1656 62.0482 65.6654 61.5404 65.3917L16.3743 40.9776C16.1326 40.8484 15.8738 40.775 15.615 40.7579C15.8738 40.7408 16.1326 40.6678 16.3743 40.5381L61.5404 16.124Z" fill="#C48D69"/>
<path d="M123.867 25.9793C123.95 26.5506 123.762 27.1265 123.354 27.5366L110.796 40.2154C110.444 40.5716 109.973 40.7571 109.497 40.7571C109.199 40.7571 108.901 40.6866 108.625 40.5374L63.4592 16.1233C62.9514 15.8476 62.6023 15.3494 62.5193 14.7781C62.5071 14.6926 62.4998 14.605 62.4998 14.5168C62.4998 14.5144 62.4998 14.5144 62.4998 14.512C62.4998 14.0312 62.6902 13.562 63.0369 13.2182L75.7176 0.537312C76.2888 -0.0364196 77.1702 -0.163129 77.8831 0.222614L122.927 24.6367C123.435 24.9097 123.782 25.408 123.867 25.9793Z" fill="#D39C72"/>
<path d="M123.354 53.9785C123.762 54.3887 123.95 54.9651 123.867 55.5364C123.782 56.1053 123.435 56.6031 122.927 56.8792L77.8831 81.2933C77.6096 81.442 77.3094 81.5125 77.0115 81.5125C76.5379 81.5125 76.0691 81.3294 75.7176 80.9781L63.0369 68.2977C62.6902 67.951 62.4998 67.4822 62.4998 67.001C62.4998 66.9134 62.5071 66.8255 62.5193 66.7374C62.6023 66.1661 62.9514 65.6658 63.4592 65.3921L108.625 40.978C108.901 40.8293 109.199 40.7559 109.497 40.7559C109.973 40.7559 110.444 40.9439 110.796 41.2981L123.354 53.9785Z" fill="#F2C397"/>
<path d="M123.355 53.9785L110.796 41.2981C110.444 40.9439 109.973 40.7559 109.497 40.7559C109.199 40.7559 108.901 40.8293 108.625 40.978L103.857 43.5571C104.133 43.4085 104.431 43.335 104.729 43.335C105.205 43.335 105.676 43.523 106.027 43.8772L118.586 56.5576C118.994 56.9678 119.182 57.5442 119.099 58.1155C119.013 58.6844 118.667 59.1822 118.159 59.4583L122.927 56.8792C123.435 56.6031 123.782 56.1053 123.867 55.5364C123.95 54.9651 123.762 54.3887 123.355 53.9785Z" fill="#E2AE83"/>
<path d="M62.4998 14.5105C62.4998 14.513 62.4998 14.513 62.4998 14.5154C62.4998 14.6036 62.4925 14.6915 62.4803 14.7791C62.3973 15.3504 62.0482 15.8511 61.5404 16.1243L16.3743 40.5384C16.1326 40.6681 15.8738 40.7411 15.615 40.7582C15.5637 40.7557 15.51 40.7557 15.4587 40.7582C14.9973 40.7486 14.5457 40.5631 14.2039 40.2188L1.64524 27.5377C1.23752 27.1275 1.04953 26.5516 1.13254 25.9803C1.21799 25.4114 1.56467 24.9132 2.07248 24.6375L47.1165 0.22341C47.8294 -0.162333 48.7108 -0.0331821 49.282 0.538108L61.9627 13.219C62.3094 13.566 62.4974 14.0323 62.4998 14.5105Z" fill="#E2AE83"/>
<path d="M62.4803 66.7374C62.4925 66.8255 62.4998 66.9134 62.4998 67.001C62.4998 67.4822 62.3094 67.951 61.9627 68.2977L49.282 80.9781C48.9305 81.3294 48.4617 81.5125 47.9881 81.5125C47.6902 81.5125 47.39 81.442 47.1165 81.2933L2.07248 56.8792C1.56467 56.6031 1.21799 56.1053 1.13254 55.5364C1.04953 54.9651 1.23752 54.3887 1.64524 53.9785L14.2039 41.2981C14.5457 40.9539 14.9973 40.7683 15.4587 40.7583C15.4734 40.7607 15.488 40.7607 15.5027 40.7607C15.5393 40.7607 15.5759 40.7607 15.615 40.7583C15.8738 40.7754 16.1326 40.8489 16.3743 40.978L61.5404 65.3921C62.0482 65.6658 62.3973 66.1661 62.4803 66.7374Z" fill="#FFD2A6"/>
<path d="M15.615 40.7584C15.5759 40.7609 15.5393 40.7609 15.5027 40.7609C15.488 40.7609 15.4734 40.7609 15.4587 40.7584C15.51 40.756 15.5637 40.756 15.615 40.7584Z" fill="#E2AE83"/>
<path d="M108.968 64.4453C108.944 64.4912 108.919 64.5083 108.894 64.4854H108.894L102.172 68.1289V102.718C102.172 102.781 102.169 102.844 102.163 102.906C102.16 102.933 102.155 102.959 102.151 102.985C102.146 103.017 102.143 103.049 102.136 103.08C102.129 103.12 102.118 103.159 102.108 103.198C102.103 103.216 102.099 103.234 102.094 103.252C102.082 103.291 102.067 103.329 102.053 103.368C102.047 103.385 102.041 103.402 102.034 103.419C102.02 103.453 102.004 103.487 101.988 103.52C101.978 103.541 101.969 103.561 101.958 103.582C101.943 103.609 101.927 103.635 101.911 103.661C101.896 103.687 101.882 103.712 101.865 103.737C101.852 103.757 101.837 103.776 101.823 103.796C101.802 103.825 101.781 103.853 101.759 103.881C101.746 103.897 101.732 103.911 101.719 103.926C101.693 103.956 101.668 103.985 101.64 104.013C101.625 104.028 101.61 104.041 101.595 104.055C101.567 104.081 101.54 104.108 101.51 104.132C101.481 104.156 101.451 104.177 101.421 104.199C101.404 104.212 101.387 104.226 101.369 104.238C101.357 104.246 101.344 104.253 101.333 104.261L108.531 100.369C108.587 100.339 108.642 100.306 108.694 100.271C108.712 100.258 108.729 100.244 108.746 100.232C108.776 100.21 108.807 100.188 108.835 100.164C108.865 100.14 108.892 100.114 108.92 100.087C108.935 100.074 108.95 100.06 108.965 100.045C108.993 100.017 109.019 99.9879 109.044 99.9578C109.057 99.9429 109.071 99.9288 109.084 99.9134C109.106 99.8858 109.127 99.8573 109.147 99.828C109.162 99.8084 109.177 99.7894 109.19 99.7689C109.207 99.744 109.221 99.7188 109.236 99.6934C109.252 99.6671 109.268 99.6409 109.283 99.6138C109.293 99.5933 109.303 99.5728 109.313 99.5523C109.329 99.5189 109.345 99.4857 109.359 99.4512C109.366 99.4342 109.372 99.4168 109.378 99.3997C109.392 99.3616 109.407 99.3233 109.419 99.2838C109.424 99.2662 109.428 99.2479 109.433 99.2298C109.443 99.1912 109.454 99.1527 109.461 99.1126C109.468 99.0811 109.471 99.0491 109.476 99.0172C109.48 98.991 109.485 98.9652 109.488 98.9386C109.494 98.8761 109.497 98.8131 109.497 98.7498V64.1587L108.968 64.4453Z" fill="#D39C72"/>
<path d="M61.9628 68.2979L49.2821 80.9783C48.9305 81.3296 48.4618 81.5127 47.9881 81.5127C47.6903 81.5127 47.39 81.4422 47.1165 81.2935L15.5029 64.1587V98.7501C15.5027 98.8135 15.5059 98.8765 15.5122 98.9388C15.5149 98.9654 15.52 98.9913 15.5237 99.0174C15.5283 99.0494 15.532 99.0814 15.5383 99.1129C15.5462 99.1529 15.5569 99.1915 15.5672 99.2301C15.572 99.2481 15.5757 99.2662 15.5811 99.284C15.593 99.3236 15.6074 99.3616 15.6218 99.4C15.6282 99.4171 15.6336 99.4344 15.6406 99.4515C15.6548 99.4859 15.6712 99.5191 15.6873 99.5526C15.6973 99.5731 15.7063 99.5936 15.7171 99.6141C15.7317 99.6412 15.7478 99.6676 15.7637 99.6937C15.7788 99.7188 15.7932 99.7442 15.8093 99.7691C15.8228 99.7896 15.8379 99.8087 15.8523 99.8282C15.8731 99.8573 15.8936 99.8858 15.916 99.9136C15.9285 99.929 15.9424 99.9432 15.9553 99.9581C15.9812 99.9881 16.0071 100.018 16.0349 100.046C16.0496 100.061 16.0652 100.074 16.0803 100.088C16.1082 100.114 16.1355 100.14 16.1651 100.165C16.1936 100.189 16.2239 100.21 16.2537 100.232C16.2713 100.245 16.2876 100.258 16.3057 100.271C16.3582 100.306 16.4126 100.339 16.4688 100.369L61.629 124.78C61.901 124.927 62.2003 125 62.4999 125V67.0012C62.4999 67.4824 62.3094 67.9512 61.9628 68.2979Z" fill="#F2C397"/>
</g>
<defs>
<clipPath id="clip0_192_3017">
<rect width="125" height="125" fill="white"/>
</clipPath>
</defs>
</svg>
