<svg width="24" height="24" viewBox="0 0 24 24" fill="none" xmlns="http://www.w3.org/2000/svg">
<path d="M22.5468 17.3906C23.0646 17.3906 23.4843 16.9709 23.4843 16.4531V12.1406C23.4843 10.5898 22.2226 9.32811 20.6718 9.32811H18.8437V5.62499C18.8437 3.55724 17.1615 1.875 15.0937 1.875H12.8656C12.5029 0.761764 11.4657 0 10.28 0H9.07934C7.8936 0 6.85649 0.761764 6.49372 1.875H4.26562C2.19787 1.875 0.515625 3.55724 0.515625 5.62499V20.25C0.515625 22.3177 2.19787 24 4.26562 24H8.39061C8.90839 24 9.32811 23.5802 9.32811 23.0625C9.32811 22.5447 8.90839 22.125 8.39061 22.125H4.26562C3.23174 22.125 2.39062 21.2838 2.39062 20.25V5.62499C2.39062 4.59112 3.23174 3.74999 4.26562 3.74999H4.35937V6.51561C4.35937 7.03339 4.77909 7.45311 5.29687 7.45311H14.1562C14.674 7.45311 15.0937 7.03339 15.0937 6.51561V3.74999C16.1276 3.74999 16.9687 4.59112 16.9687 5.62499V9.32811H13.9215C12.3709 9.32811 11.1094 10.5897 11.1094 12.1403V21.1878C11.1094 22.7385 12.371 24 13.9223 24L20.6718 23.9965C22.2226 23.9965 23.4843 22.7349 23.4843 21.1844C23.4843 20.6666 23.0646 20.2469 22.5468 20.2469C22.0291 20.2469 21.6093 20.6666 21.6093 21.1844C21.6093 21.7011 21.1888 22.1215 20.6714 22.1215L13.9218 22.125C13.4049 22.125 12.9844 21.7045 12.9844 21.1878V12.1403C12.9844 11.6235 13.4048 11.2031 13.9215 11.2031H20.6718C21.1888 11.2031 21.6093 11.6237 21.6093 12.1406V16.4531C21.6093 16.9709 22.0291 17.3906 22.5468 17.3906ZM13.2187 5.57811H6.23436V3.74999H7.21874C7.64891 3.74999 8.02391 3.45721 8.12825 3.03988L8.25941 2.51517C8.35363 2.13825 8.6908 1.875 9.07934 1.875H10.28C10.6685 1.875 11.0057 2.13825 11.0999 2.51517L11.2311 3.03988C11.3354 3.45721 11.7104 3.74999 12.1406 3.74999H13.2187V5.57811Z" fill="black"/>
<path d="M18.7969 13.0781H15.7969C15.2791 13.0781 14.8594 13.4978 14.8594 14.0156C14.8594 14.5334 15.2791 14.9531 15.7969 14.9531H18.7969C19.3146 14.9531 19.7344 14.5334 19.7344 14.0156C19.7344 13.4978 19.3147 13.0781 18.7969 13.0781Z" fill="black"/>
<path d="M18.7969 16.3594H15.7969C15.2791 16.3594 14.8594 16.7791 14.8594 17.2969C14.8594 17.8147 15.2791 18.2344 15.7969 18.2344H18.7969C19.3146 18.2344 19.7344 17.8147 19.7344 17.2969C19.7344 16.7791 19.3147 16.3594 18.7969 16.3594Z" fill="black"/>
</svg>
