<svg width="26" height="26" viewBox="0 0 26 26" fill="none" xmlns="http://www.w3.org/2000/svg">
<g clip-path="url(#clip0_157_2027)">
<path d="M18.4165 15.1667C18.4165 15.454 18.3024 15.7296 18.0992 15.9327C17.896 16.1359 17.6205 16.25 17.3332 16.25H8.6665C8.37919 16.25 8.10364 16.1359 7.90047 15.9327C7.69731 15.7296 7.58317 15.454 7.58317 15.1667C7.58317 14.8794 7.69731 14.6038 7.90047 14.4007C8.10364 14.1975 8.37919 14.0834 8.6665 14.0834H17.3332C17.6205 14.0834 17.896 14.1975 18.0992 14.4007C18.3024 14.6038 18.4165 14.8794 18.4165 15.1667ZM14.0832 18.4167H8.6665C8.37919 18.4167 8.10364 18.5308 7.90047 18.734C7.69731 18.9372 7.58317 19.2127 7.58317 19.5C7.58317 19.7873 7.69731 20.0629 7.90047 20.2661C8.10364 20.4692 8.37919 20.5834 8.6665 20.5834H14.0832C14.3705 20.5834 14.646 20.4692 14.8492 20.2661C15.0524 20.0629 15.1665 19.7873 15.1665 19.5C15.1665 19.2127 15.0524 18.9372 14.8492 18.734C14.646 18.5308 14.3705 18.4167 14.0832 18.4167ZM23.8332 11.3588V20.5834C23.8315 22.0194 23.2602 23.3962 22.2448 24.4116C21.2293 25.4271 19.8526 25.9983 18.4165 26H7.58317C6.14711 25.9983 4.77036 25.4271 3.75491 24.4116C2.73946 23.3962 2.16822 22.0194 2.1665 20.5834V5.41669C2.16822 3.98063 2.73946 2.60388 3.75491 1.58843C4.77036 0.57298 6.14711 0.00174515 7.58317 2.49694e-05H12.4744C13.4707 -0.0025392 14.4576 0.192412 15.378 0.573606C16.2984 0.9548 17.1342 1.51467 17.8369 2.22086L21.6113 5.99736C22.3178 6.69962 22.8781 7.5351 23.2595 8.45541C23.6409 9.37572 23.8359 10.3626 23.8332 11.3588ZM16.3051 3.75269C15.9641 3.42245 15.5813 3.13836 15.1665 2.90769V7.58336C15.1665 7.87068 15.2806 8.14623 15.4838 8.34939C15.687 8.55256 15.9625 8.66669 16.2498 8.66669H20.9255C20.6947 8.25198 20.4102 7.86952 20.0794 7.52919L16.3051 3.75269ZM21.6665 11.3588C21.6665 11.18 21.6318 11.0089 21.6156 10.8334H16.2498C15.3879 10.8334 14.5612 10.4909 13.9517 9.88146C13.3422 9.27196 12.9998 8.44531 12.9998 7.58336V2.21761C12.8243 2.20136 12.6521 2.16669 12.4744 2.16669H7.58317C6.72122 2.16669 5.89457 2.5091 5.28507 3.11859C4.67558 3.72809 4.33317 4.55474 4.33317 5.41669V20.5834C4.33317 21.4453 4.67558 22.272 5.28507 22.8815C5.89457 23.4909 6.72122 23.8334 7.58317 23.8334H18.4165C19.2785 23.8334 20.1051 23.4909 20.7146 22.8815C21.3241 22.272 21.6665 21.4453 21.6665 20.5834V11.3588Z" fill="black"/>
<path d="M15.5 22.4C15.5 21.3507 16.3507 20.5 17.4 20.5H23.4C24.4493 20.5 25.3 21.3507 25.3 22.4V23.6C25.3 24.6493 24.4493 25.5 23.4 25.5H17.4C16.3507 25.5 15.5 24.6493 15.5 23.6V22.4Z" fill="#D9D9D9" stroke="black"/>
<path d="M17.1997 24V21.6912H18.195C18.3884 21.6912 18.5496 21.7286 18.6786 21.8035C18.8075 21.8784 18.9032 21.9751 18.9656 22.0936C19.0301 22.2122 19.0623 22.336 19.0623 22.4649C19.0623 22.596 19.0301 22.7208 18.9656 22.8393C18.9032 22.9579 18.8075 23.0556 18.6786 23.1326C18.5496 23.2075 18.3884 23.2449 18.195 23.2449H17.7395V24H17.1997ZM18.1919 22.1623H17.7395V22.7769H18.1919C18.3021 22.7769 18.3843 22.7447 18.4383 22.6802C18.4924 22.6157 18.5195 22.545 18.5195 22.468C18.5195 22.3911 18.4924 22.3214 18.4383 22.259C18.3843 22.1945 18.3021 22.1623 18.1919 22.1623Z" fill="black"/>
<path d="M19.3538 24V21.6912H20.268C20.4573 21.6912 20.6237 21.7244 20.7672 21.791C20.9107 21.8555 21.0293 21.9428 21.1229 22.0531C21.2186 22.1633 21.2903 22.2871 21.3382 22.4244C21.386 22.5616 21.4099 22.702 21.4099 22.8456C21.4099 22.9891 21.386 23.1295 21.3382 23.2668C21.2903 23.404 21.2186 23.5278 21.1229 23.638C21.0293 23.7483 20.9107 23.8367 20.7672 23.9032C20.6237 23.9677 20.4573 24 20.268 24H19.3538ZM20.243 22.1654H19.8936V23.5195H20.243C20.3866 23.5195 20.5041 23.4862 20.5956 23.4196C20.6892 23.3531 20.7578 23.2688 20.8015 23.1669C20.8452 23.0629 20.867 22.9537 20.867 22.8393C20.867 22.7291 20.8452 22.622 20.8015 22.518C20.7578 22.414 20.6892 22.3297 20.5956 22.2652C20.5041 22.1987 20.3866 22.1654 20.243 22.1654Z" fill="black"/>
<path d="M21.7182 24V21.6912H23.3593V22.1592H22.258V22.7114H23.2189V23.1607H22.258V24H21.7182Z" fill="black"/>
</g>
<defs>
<clipPath id="clip0_157_2027">
<rect width="26" height="26" fill="white"/>
</clipPath>
</defs>
</svg>
