<svg width="24" height="24" viewBox="0 0 24 24" fill="none" xmlns="http://www.w3.org/2000/svg">
<g clip-path="url(#clip0_446_3515)">
<path d="M14 7V0.46C14.9251 0.809335 15.7653 1.35131 16.465 2.05L19.949 5.536C20.6485 6.23488 21.1909 7.0749 21.54 8H15C14.7348 8 14.4804 7.89464 14.2929 7.70711C14.1054 7.51957 14 7.26522 14 7ZM22 10.485V19C21.9984 20.3256 21.4711 21.5964 20.5338 22.5338C19.5964 23.4711 18.3256 23.9984 17 24H7C5.67441 23.9984 4.40356 23.4711 3.46622 22.5338C2.52888 21.5964 2.00159 20.3256 2 19V5C2.00159 3.6744 2.52888 2.40356 3.46622 1.46622C4.40356 0.528882 5.67441 0.00158786 7 0L11.515 0C11.678 0 11.839 0.013 12 0.024V7C12 7.79565 12.3161 8.55871 12.8787 9.12132C13.4413 9.68393 14.2044 10 15 10H21.976C21.987 10.161 22 10.322 22 10.485ZM14 19C14 18.7348 13.8946 18.4804 13.7071 18.2929C13.5196 18.1054 13.2652 18 13 18H8C7.73478 18 7.48043 18.1054 7.29289 18.2929C7.10536 18.4804 7 18.7348 7 19C7 19.2652 7.10536 19.5196 7.29289 19.7071C7.48043 19.8946 7.73478 20 8 20H13C13.2652 20 13.5196 19.8946 13.7071 19.7071C13.8946 19.5196 14 19.2652 14 19ZM17 15C17 14.7348 16.8946 14.4804 16.7071 14.2929C16.5196 14.1054 16.2652 14 16 14H8C7.73478 14 7.48043 14.1054 7.29289 14.2929C7.10536 14.4804 7 14.7348 7 15C7 15.2652 7.10536 15.5196 7.29289 15.7071C7.48043 15.8946 7.73478 16 8 16H16C16.2652 16 16.5196 15.8946 16.7071 15.7071C16.8946 15.5196 17 15.2652 17 15Z" fill="black"/>
<path d="M14.4115 17.6562H21.2604C22.4991 17.6562 23.5 18.656 23.5 19.8852V21.2497C23.5 22.4788 22.4991 23.4786 21.2604 23.4786H14.4115C13.1727 23.4786 12.1719 22.4788 12.1719 21.2497V19.8852C12.1719 18.656 13.1727 17.6562 14.4115 17.6562Z" fill="#D9D9D9" stroke="black"/>
<path d="M14.1855 21.7045V19.0713H15.3266C15.5484 19.0713 15.7332 19.114 15.881 19.1994C16.0289 19.2848 16.1386 19.3951 16.2101 19.5303C16.284 19.6655 16.321 19.8067 16.321 19.9538C16.321 20.1032 16.284 20.2456 16.2101 20.3808C16.1386 20.516 16.0289 20.6275 15.881 20.7153C15.7332 20.8007 15.5484 20.8434 15.3266 20.8434H14.8044V21.7045H14.1855ZM15.323 19.6086H14.8044V20.3096H15.323C15.4494 20.3096 15.5436 20.2728 15.6056 20.1993C15.6676 20.1258 15.6986 20.0451 15.6986 19.9573C15.6986 19.8695 15.6676 19.7901 15.6056 19.7189C15.5436 19.6454 15.4494 19.6086 15.323 19.6086Z" fill="black"/>
<path d="M16.6552 21.7045V19.0713H17.7032C17.9202 19.0713 18.111 19.1092 18.2755 19.1852C18.4401 19.2587 18.576 19.3583 18.6833 19.4841C18.793 19.6098 18.8753 19.7509 18.9301 19.9075C18.985 20.0641 19.0124 20.2242 19.0124 20.3879C19.0124 20.5516 18.985 20.7117 18.9301 20.8683C18.8753 21.0248 18.793 21.166 18.6833 21.2917C18.576 21.4174 18.4401 21.5183 18.2755 21.5942C18.111 21.6677 17.9202 21.7045 17.7032 21.7045H16.6552ZM17.6746 19.6122H17.274V21.1565H17.6746C17.8391 21.1565 17.9739 21.1185 18.0788 21.0426C18.1861 20.9667 18.2648 20.8706 18.3149 20.7544C18.3649 20.6358 18.39 20.5112 18.39 20.3808C18.39 20.255 18.3649 20.1329 18.3149 20.0143C18.2648 19.8956 18.1861 19.7996 18.0788 19.726C17.9739 19.6501 17.8391 19.6122 17.6746 19.6122Z" fill="black"/>
<path d="M19.3658 21.7045V19.0713H21.2473V19.605H19.9846V20.2349H21.0863V20.7473H19.9846V21.7045H19.3658Z" fill="black"/>
</g>
<defs>
<clipPath id="clip0_446_3515">
<rect width="24" height="24" fill="white"/>
</clipPath>
</defs>
</svg>
