<svg width="26" height="26" viewBox="0 0 26 26" fill="none" xmlns="http://www.w3.org/2000/svg">
<g clip-path="url(#clip0_135_859)">
<path d="M20.5833 1.0835H5.41667C3.98061 1.08522 2.60385 1.65645 1.5884 2.6719C0.572955 3.68735 0.00172018 5.0641 0 6.50016L0 15.1668C0.00172018 16.6029 0.572955 17.9796 1.5884 18.9951C2.60385 20.0105 3.98061 20.5818 5.41667 20.5835H11.9167V22.7502H7.58333C7.29602 22.7502 7.02047 22.8643 6.8173 23.0675C6.61414 23.2706 6.5 23.5462 6.5 23.8335C6.5 24.1208 6.61414 24.3964 6.8173 24.5995C7.02047 24.8027 7.29602 24.9168 7.58333 24.9168H18.4167C18.704 24.9168 18.9795 24.8027 19.1827 24.5995C19.3859 24.3964 19.5 24.1208 19.5 23.8335C19.5 23.5462 19.3859 23.2706 19.1827 23.0675C18.9795 22.8643 18.704 22.7502 18.4167 22.7502H14.0833V20.5835H20.5833C22.0194 20.5818 23.3961 20.0105 24.4116 18.9951C25.427 17.9796 25.9983 16.6029 26 15.1668V6.50016C25.9983 5.0641 25.427 3.68735 24.4116 2.6719C23.3961 1.65645 22.0194 1.08522 20.5833 1.0835V1.0835ZM23.8333 15.1668C23.8333 16.0288 23.4909 16.8554 22.8814 17.4649C22.2719 18.0744 21.4453 18.4168 20.5833 18.4168H5.41667C4.55471 18.4168 3.72806 18.0744 3.11857 17.4649C2.50908 16.8554 2.16667 16.0288 2.16667 15.1668V6.50016C2.16667 5.63821 2.50908 4.81156 3.11857 4.20207C3.72806 3.59257 4.55471 3.25016 5.41667 3.25016H20.5833C21.4453 3.25016 22.2719 3.59257 22.8814 4.20207C23.4909 4.81156 23.8333 5.63821 23.8333 6.50016V15.1668ZM21.6667 10.8335C21.6667 11.1208 21.5525 11.3964 21.3494 11.5995C21.1462 11.8027 20.8707 11.9168 20.5833 11.9168H17.3713L15.5296 14.6847C15.4303 14.8335 15.2958 14.9554 15.1379 15.0395C14.9801 15.1237 14.8039 15.1674 14.625 15.1668C14.6023 15.1668 14.5795 15.1668 14.5578 15.1668C14.3683 15.1552 14.1852 15.0939 14.0268 14.9891C13.8684 14.8843 13.7403 14.7398 13.6554 14.5699L11.2407 9.73716L10.1097 11.4347C10.0107 11.5831 9.87666 11.7047 9.71943 11.7888C9.5622 11.8729 9.38664 11.9169 9.20833 11.9168H5.41667C5.12935 11.9168 4.8538 11.8027 4.65063 11.5995C4.44747 11.3964 4.33333 11.1208 4.33333 10.8335C4.33333 10.5462 4.44747 10.2706 4.65063 10.0675C4.8538 9.8643 5.12935 9.75016 5.41667 9.75016H8.62875L10.4704 6.98225C10.5747 6.82252 10.7198 6.69359 10.8906 6.60883C11.0615 6.52406 11.2519 6.48654 11.4422 6.50016C11.6317 6.51184 11.8148 6.57313 11.9732 6.6779C12.1316 6.78266 12.2597 6.92722 12.3446 7.09708L14.7593 11.9277L15.8903 10.2301C15.9895 10.0822 16.1237 9.96097 16.2809 9.87726C16.4381 9.79355 16.6136 9.7499 16.7917 9.75016H20.5833C20.8707 9.75016 21.1462 9.8643 21.3494 10.0675C21.5525 10.2706 21.6667 10.5462 21.6667 10.8335Z" fill="black"/>
</g>
<defs>
<clipPath id="clip0_135_859">
<rect width="26" height="26" fill="white"/>
</clipPath>
</defs>
</svg>
