<svg width="26" height="26" viewBox="0 0 26 26" fill="none" xmlns="http://www.w3.org/2000/svg">
<g clip-path="url(#clip0_159_1508)">
<path d="M17.3333 0H8.66667C7.23061 0.00172018 5.85385 0.572955 4.8384 1.5884C3.82296 2.60385 3.25172 3.98061 3.25 5.41667V24.9167C3.25015 25.1137 3.30404 25.307 3.40587 25.4757C3.5077 25.6444 3.65361 25.7821 3.82789 25.874C4.00217 25.966 4.19823 26.0086 4.39495 25.9974C4.59168 25.9862 4.78162 25.9216 4.94433 25.8104L7.22583 24.2515L9.50733 25.8104C9.68759 25.9339 9.90095 25.9999 10.1194 25.9999C10.3379 25.9999 10.5512 25.9339 10.7315 25.8104L13.0065 24.2515L15.2815 25.8104C15.4619 25.9341 15.6754 26.0003 15.8941 26.0003C16.1128 26.0003 16.3264 25.9341 16.5068 25.8104L18.7818 24.2526L21.0568 25.8093C21.2194 25.9201 21.4091 25.9845 21.6056 25.9956C21.802 26.0067 21.9978 25.9641 22.1719 25.8723C22.346 25.7806 22.4917 25.6431 22.5936 25.4747C22.6954 25.3064 22.7495 25.1134 22.75 24.9167V5.41667C22.7483 3.98061 22.177 2.60385 21.1616 1.5884C20.1461 0.572955 18.7694 0.00172018 17.3333 0V0ZM20.5833 22.8583L19.3917 22.0437C19.2112 21.9198 18.9974 21.8534 18.7785 21.8534C18.5596 21.8534 18.3458 21.9198 18.1653 22.0437L15.8903 23.6026L13.6153 22.0437C13.435 21.92 13.2214 21.8538 13.0027 21.8538C12.784 21.8538 12.5704 21.92 12.3901 22.0437L10.1151 23.6026L7.84008 22.0437C7.65994 21.9205 7.44678 21.8546 7.22854 21.8546C7.0103 21.8546 6.79714 21.9205 6.617 22.0437L5.41667 22.8583V5.41667C5.41667 4.55471 5.75908 3.72806 6.36857 3.11857C6.97806 2.50908 7.80471 2.16667 8.66667 2.16667H17.3333C18.1953 2.16667 19.0219 2.50908 19.6314 3.11857C20.2409 3.72806 20.5833 4.55471 20.5833 5.41667V22.8583Z" fill="black"/>
<path d="M17.3335 8.66675H8.66683C8.06852 8.66675 7.5835 9.15177 7.5835 9.75008C7.5835 10.3484 8.06852 10.8334 8.66683 10.8334H17.3335C17.9318 10.8334 18.4168 10.3484 18.4168 9.75008C18.4168 9.15177 17.9318 8.66675 17.3335 8.66675Z" fill="black"/>
<path d="M15.1668 13H8.66683C8.06852 13 7.5835 13.485 7.5835 14.0833C7.5835 14.6816 8.06852 15.1667 8.66683 15.1667H15.1668C15.7651 15.1667 16.2502 14.6816 16.2502 14.0833C16.2502 13.485 15.7651 13 15.1668 13Z" fill="black"/>
</g>
<defs>
<clipPath id="clip0_159_1508">
<rect width="26" height="26" fill="white"/>
</clipPath>
</defs>
</svg>
