<svg width="26" height="26" viewBox="0 0 26 26" fill="none" xmlns="http://www.w3.org/2000/svg">
<path d="M7.70891 5.80654L9.04305 4.4724M10.2622 7.91863L11.5922 6.58863M12.4474 9.89684L13.7774 8.56684M14.4999 12.0283L15.8299 10.6983M16.4177 14.0283L17.4998 13.0283M18.4998 16.0283L19.9998 14.5283M20.4998 18.0283L21.9998 16.5283M21.3165 24.2968L24.3463 21.2736C25.1282 20.4935 25.1297 19.2271 24.3495 18.4452L7.95865 2.01776C7.17847 1.23584 5.91214 1.23443 5.13022 2.0146L2.10036 5.03771C1.31844 5.81789 1.31702 7.08422 2.0972 7.86614L18.488 24.2936C19.2682 25.0755 20.5345 25.0769 21.3165 24.2968Z" stroke="black" stroke-width="2" stroke-linecap="round"/>
</svg>
