<svg width="26" height="26" viewBox="0 0 26 26" fill="none" xmlns="http://www.w3.org/2000/svg">
<g clip-path="url(#clip0_157_1992)">
<path d="M12.9998 8.66675C12.1428 8.66675 11.305 8.92089 10.5924 9.39705C9.87976 9.8732 9.32434 10.55 8.99636 11.3418C8.66838 12.1336 8.58257 13.0049 8.74977 13.8455C8.91697 14.6861 9.32968 15.4582 9.93571 16.0642C10.5417 16.6702 11.3139 17.0829 12.1544 17.2502C12.995 17.4174 13.8663 17.3315 14.6581 17.0036C15.4499 16.6756 16.1267 16.1202 16.6029 15.4076C17.079 14.6949 17.3332 13.8571 17.3332 13.0001C17.3332 11.8508 16.8766 10.7486 16.064 9.93595C15.2513 9.12329 14.1491 8.66675 12.9998 8.66675ZM12.9998 15.1667C12.5713 15.1667 12.1524 15.0397 11.7961 14.8016C11.4398 14.5635 11.1621 14.2251 10.9981 13.8292C10.8341 13.4333 10.7912 12.9977 10.8748 12.5774C10.9584 12.1571 11.1648 11.771 11.4678 11.468C11.7708 11.165 12.1569 10.9586 12.5771 10.875C12.9974 10.7914 13.4331 10.8344 13.829 10.9983C14.2249 11.1623 14.5633 11.44 14.8014 11.7963C15.0394 12.1527 15.1665 12.5716 15.1665 13.0001C15.1665 13.5747 14.9382 14.1258 14.5319 14.5321C14.1256 14.9385 13.5745 15.1667 12.9998 15.1667Z" fill="black"/>
<path d="M23.0686 15.0583L22.5876 14.781C22.8042 13.6028 22.8042 12.395 22.5876 11.2168L23.0686 10.9395C23.4385 10.7261 23.7627 10.4419 24.0228 10.1032C24.2829 9.76453 24.4737 9.37792 24.5843 8.96547C24.695 8.55302 24.7233 8.12282 24.6677 7.69942C24.6121 7.27602 24.4737 6.86772 24.2603 6.49783C24.0469 6.12794 23.7627 5.80371 23.424 5.54364C23.0853 5.28357 22.6987 5.09276 22.2862 4.9821C21.8738 4.87144 21.4436 4.84311 21.0202 4.89871C20.5968 4.95432 20.1885 5.09277 19.8186 5.30617L19.3365 5.58458C18.426 4.80666 17.3797 4.2036 16.2501 3.80575V3.25C16.2501 2.38805 15.9077 1.5614 15.2982 0.951903C14.6887 0.34241 13.8621 0 13.0001 0C12.1382 0 11.3115 0.34241 10.702 0.951903C10.0925 1.5614 9.75011 2.38805 9.75011 3.25V3.80575C8.62061 4.20503 7.57461 4.80957 6.66477 5.58892L6.18052 5.30833C5.4335 4.87736 4.54586 4.76079 3.71289 4.98427C2.87991 5.20775 2.16983 5.75297 1.73886 6.5C1.30788 7.24703 1.19131 8.13466 1.41479 8.96764C1.63827 9.80061 2.1835 10.5107 2.93052 10.9417L3.41152 11.219C3.19498 12.3972 3.19498 13.605 3.41152 14.7832L2.93052 15.0605C2.1835 15.4915 1.63827 16.2016 1.41479 17.0345C1.19131 17.8675 1.30788 18.7551 1.73886 19.5022C2.16983 20.2492 2.87991 20.7944 3.71289 21.0179C4.54586 21.2414 5.4335 21.1248 6.18052 20.6938L6.66261 20.4154C7.57344 21.1935 8.62017 21.7965 9.75011 22.1943V22.75C9.75011 23.612 10.0925 24.4386 10.702 25.0481C11.3115 25.6576 12.1382 26 13.0001 26C13.8621 26 14.6887 25.6576 15.2982 25.0481C15.9077 24.4386 16.2501 23.612 16.2501 22.75V22.1943C17.3796 21.795 18.4256 21.1904 19.3354 20.4111L19.8197 20.6906C20.5667 21.1216 21.4544 21.2381 22.2873 21.0147C23.1203 20.7912 23.8304 20.2459 24.2614 19.4989C24.6923 18.7519 24.8089 17.8643 24.5854 17.0313C24.3619 16.1983 23.8167 15.4882 23.0697 15.0573L23.0686 15.0583ZM20.3083 10.9677C20.6751 12.297 20.6751 13.7008 20.3083 15.0302C20.2442 15.2615 20.2588 15.5076 20.3498 15.7298C20.4408 15.952 20.603 16.1376 20.8109 16.2576L21.9853 16.9358C22.2342 17.0794 22.4159 17.3161 22.4904 17.5937C22.5649 17.8713 22.526 18.1672 22.3823 18.4161C22.2387 18.6651 22.002 18.8468 21.7244 18.9212C21.4467 18.9957 21.1509 18.9568 20.9019 18.8132L19.7254 18.1328C19.5173 18.0123 19.275 17.9644 19.0367 17.9968C18.7984 18.0292 18.5776 18.1399 18.4092 18.3116C17.4449 19.296 16.2301 19.9983 14.8959 20.3428C14.6631 20.4027 14.4567 20.5384 14.3094 20.7284C14.1621 20.9185 14.0822 21.1521 14.0824 21.3926V22.75C14.0824 23.0373 13.9682 23.3129 13.7651 23.516C13.5619 23.7192 13.2863 23.8333 12.999 23.8333C12.7117 23.8333 12.4362 23.7192 12.233 23.516C12.0298 23.3129 11.9157 23.0373 11.9157 22.75V21.3937C11.9158 21.1532 11.8359 20.9196 11.6886 20.7295C11.5413 20.5394 11.335 20.4038 11.1021 20.3439C9.76782 19.998 8.55338 19.2941 7.58994 18.3083C7.42151 18.1367 7.20074 18.0259 6.96243 17.9936C6.72411 17.9612 6.48181 18.009 6.27369 18.1296L5.09936 18.8088C4.97611 18.8811 4.83978 18.9283 4.69823 18.9476C4.55667 18.967 4.41269 18.9581 4.27457 18.9216C4.13644 18.8851 4.0069 18.8216 3.89341 18.7348C3.77992 18.648 3.68472 18.5397 3.61328 18.4159C3.54184 18.2922 3.49559 18.1556 3.47717 18.0139C3.45876 17.8722 3.46855 17.7283 3.50598 17.5904C3.54341 17.4525 3.60775 17.3234 3.69528 17.2105C3.78282 17.0976 3.89182 17.0031 4.01602 16.9325L5.19036 16.2543C5.3983 16.1344 5.56051 15.9487 5.65149 15.7265C5.74247 15.5044 5.75708 15.2583 5.69302 15.0269C5.32616 13.6976 5.32616 12.2937 5.69302 10.9644C5.75593 10.7335 5.74062 10.4883 5.64949 10.2671C5.55836 10.0458 5.39653 9.86094 5.18927 9.74133L4.01494 9.06317C3.76598 8.91951 3.58428 8.68283 3.50982 8.40521C3.43536 8.12759 3.47424 7.83175 3.6179 7.58279C3.76156 7.33383 3.99823 7.15213 4.27586 7.07768C4.55348 7.00322 4.84931 7.04209 5.09827 7.18575L6.27477 7.86608C6.48232 7.98689 6.72412 8.03531 6.96218 8.00374C7.20024 7.97217 7.42106 7.86239 7.58994 7.69167C8.5542 6.70729 9.76899 6.00494 11.1032 5.66042C11.3368 5.60036 11.5437 5.46407 11.691 5.27313C11.8384 5.08219 11.9179 4.84753 11.9168 4.60633V3.25C11.9168 2.96268 12.0309 2.68713 12.2341 2.48397C12.4372 2.2808 12.7128 2.16667 13.0001 2.16667C13.2874 2.16667 13.563 2.2808 13.7661 2.48397C13.9693 2.68713 14.0834 2.96268 14.0834 3.25V4.60633C14.0833 4.84679 14.1632 5.08045 14.3105 5.2705C14.4578 5.46056 14.6641 5.59621 14.897 5.65608C16.2317 6.00183 17.4465 6.70571 18.4103 7.69167C18.5787 7.86334 18.7995 7.97408 19.0378 8.00645C19.2761 8.03881 19.5184 7.99095 19.7265 7.87042L20.9009 7.19117C21.0241 7.11891 21.1604 7.07175 21.302 7.05239C21.4435 7.03304 21.5875 7.04188 21.7257 7.07839C21.8638 7.11491 21.9933 7.17839 22.1068 7.26517C22.2203 7.35196 22.3155 7.46033 22.3869 7.58406C22.4584 7.70779 22.5046 7.84443 22.523 7.9861C22.5415 8.12778 22.5317 8.2717 22.4942 8.40958C22.4568 8.54746 22.3925 8.67657 22.3049 8.78949C22.2174 8.9024 22.1084 8.99689 21.9842 9.0675L20.8099 9.74567C20.603 9.8656 20.4416 10.0506 20.3509 10.2718C20.2602 10.4931 20.2452 10.7381 20.3083 10.9688V10.9677Z" fill="black"/>
</g>
<defs>
<clipPath id="clip0_157_1992">
<rect width="26" height="26" fill="white"/>
</clipPath>
</defs>
</svg>
