<svg width="26" height="26" viewBox="0 0 26 26" fill="none" xmlns="http://www.w3.org/2000/svg">
<path d="M20.9488 15.8713C20.1306 15.872 19.3249 16.0717 18.6012 16.4533C17.8775 16.8348 17.2574 17.3868 16.7946 18.0615L9.75131 14.8812C10.2516 13.6732 10.2535 12.3163 9.75672 11.1069L16.7903 7.91036C17.4762 8.90237 18.495 9.61569 19.6617 9.92093C20.8285 10.2262 22.0661 10.1031 23.1499 9.57407C24.2337 9.04503 25.092 8.14506 25.5692 7.0374C26.0463 5.92973 26.1106 4.68775 25.7504 3.53673C25.3903 2.38571 24.6295 1.4019 23.6061 0.763743C22.5827 0.125589 21.3645 -0.124635 20.1724 0.0584584C18.9804 0.241552 17.8934 0.845837 17.1087 1.7617C16.324 2.67756 15.8936 3.84434 15.8954 5.05039C15.9 5.33584 15.929 5.62039 15.982 5.90091L8.50474 9.29868C7.7866 8.62586 6.88757 8.17746 5.91809 8.00857C4.9486 7.83968 3.9509 7.95766 3.04755 8.34802C2.1442 8.73837 1.37455 9.3841 0.833145 10.2059C0.291744 11.0276 0.00217438 11.9896 1.21975e-05 12.9737C-0.00214998 13.9578 0.283189 14.9211 0.820975 15.7452C1.35876 16.5694 2.12557 17.2185 3.02719 17.6128C3.92882 18.0071 4.92599 18.1295 5.89621 17.9649C6.86642 17.8002 7.76742 17.3558 8.48851 16.6861L15.9852 20.0709C15.9332 20.3512 15.9046 20.6353 15.8998 20.9203C15.8995 21.9193 16.1956 22.8958 16.7504 23.7264C17.3052 24.5571 18.0939 25.2046 19.0168 25.5869C19.9396 25.9693 20.9551 26.0694 21.9348 25.8746C22.9146 25.6797 23.8145 25.1987 24.5209 24.4924C25.2272 23.7861 25.7082 22.8861 25.903 21.9064C26.0978 20.9267 25.9977 19.9112 25.6154 18.9883C25.233 18.0655 24.5856 17.2768 23.7549 16.722C22.9242 16.1671 21.9477 15.8711 20.9488 15.8713ZM20.9488 2.16445C21.5196 2.16424 22.0777 2.33331 22.5524 2.65029C23.0272 2.96727 23.3972 3.41792 23.6158 3.94524C23.8344 4.47256 23.8917 5.05286 23.7805 5.61274C23.6693 6.17263 23.3945 6.68696 22.9909 7.09067C22.5874 7.49439 22.0731 7.76935 21.5133 7.88079C20.9534 7.99224 20.3731 7.93515 19.8457 7.71675C19.3183 7.49835 18.8675 7.12846 18.5504 6.65384C18.2332 6.17923 18.0639 5.62122 18.0639 5.05039C18.0645 4.28535 18.3686 3.5518 18.9095 3.01074C19.4503 2.46967 20.1838 2.16531 20.9488 2.16445ZM5.07884 15.8713C4.50801 15.8715 3.94994 15.7024 3.47521 15.3855C3.00048 15.0685 2.63041 14.6178 2.41181 14.0905C2.19322 13.5632 2.13591 12.9829 2.24714 12.423C2.35838 11.8631 2.63315 11.3488 3.03671 10.9451C3.44027 10.5414 3.9545 10.2664 4.51434 10.155C5.07419 10.0435 5.65451 10.1006 6.18191 10.319C6.70931 10.5374 7.1601 10.9073 7.47726 11.3819C7.79441 11.8565 7.9637 12.4145 7.9637 12.9854C7.96284 13.7503 7.65866 14.4837 7.11786 15.0247C6.57706 15.5657 5.84379 15.8702 5.07884 15.8713ZM20.9488 23.8063C20.378 23.8063 19.82 23.637 19.3455 23.3199C18.8709 23.0028 18.501 22.5521 18.2825 22.0247C18.0641 21.4974 18.007 20.9171 18.1183 20.3573C18.2297 19.7975 18.5045 19.2833 18.9081 18.8797C19.3117 18.4761 19.826 18.2012 20.3858 18.0899C20.9456 17.9785 21.5259 18.0357 22.0532 18.2541C22.5805 18.4725 23.0313 18.8424 23.3484 19.317C23.6655 19.7916 23.8347 20.3496 23.8347 20.9203C23.8342 21.6856 23.5299 22.4193 22.9888 22.9604C22.4477 23.5015 21.714 23.8057 20.9488 23.8063Z" fill="black"/>
</svg>
