<svg width="24" height="24" viewBox="0 0 24 24" fill="none" xmlns="http://www.w3.org/2000/svg">
<g clip-path="url(#clip0_445_3466)">
<path d="M8.00192 21H3.41094C3.18528 20.9994 3.00247 20.8167 3.00195 20.591V3.40898C3.00252 3.18333 3.18528 3.00052 3.41094 3H8.00192C8.83034 3 9.50192 2.32842 9.50192 1.5C9.50192 0.671578 8.83034 0 8.00192 0H3.41094C1.52909 0.00220312 0.00415625 1.52719 0.00195312 3.40898V20.591C0.00415625 22.4728 1.52909 23.9978 3.41094 24H8.00192C8.83034 24 9.50192 23.3284 9.50192 22.5C9.50192 21.6716 8.83034 21 8.00192 21Z" fill="black"/>
<path d="M22.684 8.81813L18.802 4.93913C18.216 4.35342 17.2661 4.35366 16.6804 4.93964C16.0947 5.52563 16.095 6.47545 16.681 7.06116L20.0929 10.4722L6.50195 10.5001C5.67353 10.5001 5.00195 11.1717 5.00195 12.0001C5.00195 12.8286 5.67353 13.5001 6.50195 13.5001L20.148 13.4752L16.681 16.9422C16.1165 17.5485 16.1505 18.4977 16.7568 19.0621C17.3331 19.5986 18.2261 19.5982 18.802 19.0612L22.681 15.1822C24.4383 13.4248 24.4383 10.5756 22.681 8.81822L22.681 8.81817L22.684 8.81813Z" fill="black"/>
</g>
<defs>
<clipPath id="clip0_445_3466">
<rect width="24" height="24" fill="white"/>
</clipPath>
</defs>
</svg>
