<svg width="100" height="100" viewBox="0 0 100 100" fill="none" xmlns="http://www.w3.org/2000/svg">
<g clip-path="url(#clip0_157_5565)">
<path d="M50 100C41.1051 99.998 32.3718 97.6232 24.7008 93.1205C17.0298 88.6179 10.6987 82.1504 6.36071 74.3851C2.02267 66.6198 -0.16533 57.8378 0.0223664 48.9449C0.210063 40.052 2.76666 31.3702 7.42849 23.7949C12.0903 16.2195 18.6886 10.0249 26.5428 5.84992C34.3969 1.67494 43.2227 -0.329246 52.1097 0.0440625C60.9967 0.417371 69.6233 3.15466 77.0997 7.97361C84.576 12.7926 90.6316 19.5187 94.6417 27.4583C94.908 27.9486 95.0732 28.4873 95.1275 29.0427C95.1817 29.598 95.1238 30.1585 94.9573 30.691C94.7908 31.2236 94.5191 31.7172 94.1582 32.1427C93.7973 32.5682 93.3546 32.9169 92.8564 33.1681C92.3582 33.4193 91.8146 33.5679 91.2579 33.6051C90.7012 33.6422 90.1427 33.5672 89.6155 33.3844C89.0884 33.2016 88.6033 32.9148 88.1891 32.541C87.7749 32.1672 87.4399 31.714 87.2042 31.2083C82.9812 22.8467 76.0637 16.1521 67.5684 12.205C59.0731 8.25795 49.4955 7.2887 40.3817 9.45373C31.2678 11.6188 23.1494 16.7917 17.3368 24.1377C11.5241 31.4837 8.3565 40.5741 8.3451 49.9416C8.3337 59.309 11.4792 68.4071 17.2739 75.7672C23.0686 83.1273 31.1745 88.32 40.283 90.5072C49.3916 92.6945 58.9715 91.7485 67.4764 87.8221C75.9813 83.8957 82.915 77.218 87.1583 68.8667C87.6791 67.9165 88.5495 67.2066 89.5849 66.8875C90.6204 66.5684 91.7394 66.6651 92.7047 67.1572C93.67 67.6494 94.4056 68.4982 94.7555 69.5236C95.1055 70.549 95.0422 71.6704 94.5791 72.65C90.4144 80.8934 84.04 87.8165 76.1678 92.6463C68.2956 97.476 59.2356 100.022 50 100Z" fill="#F9FEFF"/>
</g>
<defs>
<clipPath id="clip0_157_5565">
<rect width="100" height="100" fill="white"/>
</clipPath>
</defs>
</svg>
