<svg width="20" height="21" viewBox="0 0 20 21" fill="none" xmlns="http://www.w3.org/2000/svg">
<g clip-path="url(#clip0_157_5092)">
<path d="M17.4998 3.83333H14.9165C14.7231 2.89284 14.2114 2.04779 13.4675 1.4406C12.7237 0.833408 11.7933 0.501212 10.8332 0.5L9.1665 0.5C8.20633 0.501212 7.27594 0.833408 6.53213 1.4406C5.78832 2.04779 5.27658 2.89284 5.08317 3.83333H2.49984C2.27882 3.83333 2.06686 3.92113 1.91058 4.07741C1.7543 4.23369 1.6665 4.44565 1.6665 4.66667C1.6665 4.88768 1.7543 5.09964 1.91058 5.25592C2.06686 5.4122 2.27882 5.5 2.49984 5.5H3.33317V16.3333C3.33449 17.438 3.77391 18.497 4.55502 19.2782C5.33614 20.0593 6.39517 20.4987 7.49984 20.5H12.4998C13.6045 20.4987 14.6635 20.0593 15.4447 19.2782C16.2258 18.497 16.6652 17.438 16.6665 16.3333V5.5H17.4998C17.7209 5.5 17.9328 5.4122 18.0891 5.25592C18.2454 5.09964 18.3332 4.88768 18.3332 4.66667C18.3332 4.44565 18.2454 4.23369 18.0891 4.07741C17.9328 3.92113 17.7209 3.83333 17.4998 3.83333ZM9.1665 2.16667H10.8332C11.3501 2.1673 11.8541 2.32781 12.2762 2.6262C12.6983 2.92459 13.0177 3.34624 13.1907 3.83333H6.809C6.98199 3.34624 7.30142 2.92459 7.72349 2.6262C8.14557 2.32781 8.64961 2.1673 9.1665 2.16667ZM14.9998 16.3333C14.9998 16.9964 14.7364 17.6323 14.2676 18.1011C13.7988 18.5699 13.1629 18.8333 12.4998 18.8333H7.49984C6.8368 18.8333 6.20091 18.5699 5.73207 18.1011C5.26323 17.6323 4.99984 16.9964 4.99984 16.3333V5.5H14.9998V16.3333Z" fill="black"/>
<path d="M8.33333 15.4999C8.55435 15.4999 8.76631 15.4121 8.92259 15.2558C9.07887 15.0996 9.16667 14.8876 9.16667 14.6666V9.66659C9.16667 9.44557 9.07887 9.23361 8.92259 9.07733C8.76631 8.92105 8.55435 8.83325 8.33333 8.83325C8.11232 8.83325 7.90036 8.92105 7.74408 9.07733C7.5878 9.23361 7.5 9.44557 7.5 9.66659V14.6666C7.5 14.8876 7.5878 15.0996 7.74408 15.2558C7.90036 15.4121 8.11232 15.4999 8.33333 15.4999Z" fill="black"/>
<path d="M11.6668 15.4999C11.8878 15.4999 12.0998 15.4121 12.2561 15.2558C12.4124 15.0996 12.5002 14.8876 12.5002 14.6666V9.66659C12.5002 9.44557 12.4124 9.23361 12.2561 9.07733C12.0998 8.92105 11.8878 8.83325 11.6668 8.83325C11.4458 8.83325 11.2339 8.92105 11.0776 9.07733C10.9213 9.23361 10.8335 9.44557 10.8335 9.66659V14.6666C10.8335 14.8876 10.9213 15.0996 11.0776 15.2558C11.2339 15.4121 11.4458 15.4999 11.6668 15.4999Z" fill="black"/>
</g>
<defs>
<clipPath id="clip0_157_5092">
<rect width="20" height="20" fill="white" transform="translate(0 0.5)"/>
</clipPath>
</defs>
</svg>
