<svg width="200" height="208" viewBox="0 0 200 208" fill="none" xmlns="http://www.w3.org/2000/svg">
<g filter="url(#filter0_d_253_3336)">
<g clip-path="url(#clip0_253_3336)">
<g filter="url(#filter1_d_253_3336)">
<path d="M38.667 162C33.7783 171.333 31.3336 205.333 31.3336 205.333H168.667C168.667 205.333 166.222 171.333 161.334 162C154 148 100 130 100 130C100 130 46.0003 148 38.667 162Z" fill="black"/>
<mask id="mask0_253_3336" style="mask-type:alpha" maskUnits="userSpaceOnUse" x="31" y="130" width="138" height="76">
<path d="M38.667 162C33.7783 171.333 31.3336 205.333 31.3336 205.333H168.667C168.667 205.333 166.222 171.333 161.334 162C154 148 100 130 100 130C100 130 46.0003 148 38.667 162Z" fill="url(#paint0_linear_253_3336)"/>
</mask>
<g mask="url(#mask0_253_3336)">
<path opacity="0.4" d="M37.3336 199.333C37.3336 198.542 37.0991 197.769 36.6595 197.111C36.22 196.453 35.5953 195.941 34.8644 195.638C34.1335 195.335 33.3292 195.256 32.5533 195.41C31.7774 195.565 31.0646 195.945 30.5052 196.505C29.9458 197.064 29.5649 197.777 29.4105 198.553C29.2562 199.329 29.3354 200.133 29.6381 200.864C29.9409 201.595 30.4536 202.22 31.1114 202.659C31.7692 203.099 32.5425 203.333 33.3336 203.333C34.3945 203.333 35.4119 202.912 36.1621 202.162C36.9122 201.412 37.3336 200.394 37.3336 199.333ZM64.0003 199.333C64.0003 198.542 63.7657 197.769 63.3262 197.111C62.8867 196.453 62.262 195.941 61.5311 195.638C60.8001 195.335 59.9959 195.256 59.22 195.41C58.444 195.565 57.7313 195.945 57.1719 196.505C56.6125 197.064 56.2315 197.777 56.0772 198.553C55.9228 199.329 56.0021 200.133 56.3048 200.864C56.6076 201.595 57.1202 202.22 57.778 202.659C58.4358 203.099 59.2092 203.333 60.0003 203.333C61.0612 203.333 62.0786 202.912 62.8288 202.162C63.5789 201.412 64.0003 200.394 64.0003 199.333ZM90.667 199.333C90.667 198.542 90.4324 197.769 89.9929 197.111C89.5533 196.453 88.9286 195.941 88.1977 195.638C87.4668 195.335 86.6626 195.256 85.8866 195.41C85.1107 195.565 84.398 195.945 83.8386 196.505C83.2792 197.064 82.8982 197.777 82.7439 198.553C82.5895 199.329 82.6687 200.133 82.9715 200.864C83.2742 201.595 83.7869 202.22 84.4447 202.659C85.1025 203.099 85.8759 203.333 86.667 203.333C87.7279 203.333 88.7453 202.912 89.4954 202.162C90.2456 201.412 90.667 200.394 90.667 199.333ZM117.334 199.333C117.334 198.542 117.099 197.769 116.66 197.111C116.22 196.453 115.595 195.941 114.864 195.638C114.133 195.335 113.329 195.256 112.553 195.41C111.777 195.565 111.065 195.945 110.505 196.505C109.946 197.064 109.565 197.777 109.411 198.553C109.256 199.329 109.335 200.133 109.638 200.864C109.941 201.595 110.454 202.22 111.111 202.659C111.769 203.099 112.543 203.333 113.334 203.333C114.395 203.333 115.412 202.912 116.162 202.162C116.912 201.412 117.334 200.394 117.334 199.333ZM144 199.333C144 198.542 143.766 197.769 143.326 197.111C142.887 196.453 142.262 195.941 141.531 195.638C140.8 195.335 139.996 195.256 139.22 195.41C138.444 195.565 137.731 195.945 137.172 196.505C136.612 197.064 136.232 197.777 136.077 198.553C135.923 199.329 136.002 200.133 136.305 200.864C136.608 201.595 137.12 202.22 137.778 202.659C138.436 203.099 139.209 203.333 140 203.333C141.061 203.333 142.079 202.912 142.829 202.162C143.579 201.412 144 200.394 144 199.333ZM170.667 199.333C170.667 198.542 170.432 197.769 169.993 197.111C169.553 196.453 168.929 195.941 168.198 195.638C167.467 195.335 166.663 195.256 165.887 195.41C165.111 195.565 164.398 195.945 163.839 196.505C163.279 197.064 162.898 197.777 162.744 198.553C162.59 199.329 162.669 200.133 162.971 200.864C163.274 201.595 163.787 202.22 164.445 202.659C165.103 203.099 165.876 203.333 166.667 203.333C167.728 203.333 168.745 202.912 169.495 202.162C170.246 201.412 170.667 200.394 170.667 199.333V199.333ZM50.667 186C50.667 185.209 50.4324 184.436 49.9929 183.778C49.5533 183.12 48.9286 182.607 48.1977 182.304C47.4668 182.002 46.6625 181.923 45.8866 182.077C45.1107 182.231 44.398 182.612 43.8386 183.172C43.2792 183.731 42.8982 184.444 42.7439 185.22C42.5895 185.996 42.6687 186.8 42.9715 187.531C43.2742 188.262 43.7869 188.886 44.4447 189.326C45.1025 189.765 45.8759 190 46.667 190C47.7279 190 48.7453 189.579 49.4954 188.828C50.2456 188.078 50.667 187.061 50.667 186ZM77.3337 186C77.3337 185.209 77.0991 184.436 76.6595 183.778C76.22 183.12 75.5953 182.607 74.8644 182.304C74.1335 182.002 73.3292 181.923 72.5533 182.077C71.7774 182.231 71.0646 182.612 70.5052 183.172C69.9458 183.731 69.5649 184.444 69.4105 185.22C69.2562 185.996 69.3354 186.8 69.6381 187.531C69.9409 188.262 70.4536 188.886 71.1114 189.326C71.7692 189.765 72.5425 190 73.3337 190C74.3945 190 75.4119 189.579 76.1621 188.828C76.9122 188.078 77.3337 187.061 77.3337 186ZM104 186C104 185.209 103.766 184.436 103.326 183.778C102.887 183.12 102.262 182.607 101.531 182.304C100.8 182.002 99.9959 181.923 99.22 182.077C98.444 182.231 97.7313 182.612 97.1719 183.172C96.6125 183.731 96.2315 184.444 96.0772 185.22C95.9228 185.996 96.0021 186.8 96.3048 187.531C96.6076 188.262 97.1202 188.886 97.778 189.326C98.4358 189.765 99.2092 190 100 190C101.061 190 102.079 189.579 102.829 188.828C103.579 188.078 104 187.061 104 186ZM130.667 186C130.667 185.209 130.432 184.436 129.993 183.778C129.553 183.12 128.929 182.607 128.198 182.304C127.467 182.002 126.663 181.923 125.887 182.077C125.111 182.231 124.398 182.612 123.839 183.172C123.279 183.731 122.898 184.444 122.744 185.22C122.59 185.996 122.669 186.8 122.971 187.531C123.274 188.262 123.787 188.886 124.445 189.326C125.103 189.765 125.876 190 126.667 190C127.728 190 128.745 189.579 129.495 188.828C130.246 188.078 130.667 187.061 130.667 186ZM157.334 186C157.334 185.209 157.099 184.436 156.66 183.778C156.22 183.12 155.595 182.607 154.864 182.304C154.133 182.002 153.329 181.923 152.553 182.077C151.777 182.231 151.065 182.612 150.505 183.172C149.946 183.731 149.565 184.444 149.411 185.22C149.256 185.996 149.335 186.8 149.638 187.531C149.941 188.262 150.454 188.886 151.111 189.326C151.769 189.765 152.543 190 153.334 190C154.395 190 155.412 189.579 156.162 188.828C156.912 188.078 157.334 187.061 157.334 186ZM37.3336 172.667C37.3336 171.876 37.0991 171.102 36.6595 170.444C36.22 169.787 35.5953 169.274 34.8644 168.971C34.1335 168.668 33.3292 168.589 32.5533 168.744C31.7774 168.898 31.0646 169.279 30.5052 169.838C29.9458 170.398 29.5649 171.11 29.4105 171.886C29.2562 172.662 29.3354 173.466 29.6381 174.197C29.9409 174.928 30.4536 175.553 31.1114 175.993C31.7692 176.432 32.5425 176.667 33.3336 176.667C34.3945 176.667 35.4119 176.245 36.1621 175.495C36.9122 174.745 37.3336 173.728 37.3336 172.667ZM64.0003 172.667C64.0003 171.876 63.7657 171.102 63.3262 170.444C62.8867 169.787 62.262 169.274 61.5311 168.971C60.8001 168.668 59.9959 168.589 59.22 168.744C58.444 168.898 57.7313 169.279 57.1719 169.838C56.6125 170.398 56.2315 171.11 56.0772 171.886C55.9228 172.662 56.0021 173.466 56.3048 174.197C56.6076 174.928 57.1202 175.553 57.778 175.993C58.4358 176.432 59.2092 176.667 60.0003 176.667C61.0612 176.667 62.0786 176.245 62.8288 175.495C63.5789 174.745 64.0003 173.728 64.0003 172.667ZM90.667 172.667C90.667 171.876 90.4324 171.102 89.9929 170.444C89.5533 169.787 88.9286 169.274 88.1977 168.971C87.4668 168.668 86.6626 168.589 85.8866 168.744C85.1107 168.898 84.398 169.279 83.8386 169.838C83.2792 170.398 82.8982 171.11 82.7439 171.886C82.5895 172.662 82.6687 173.466 82.9715 174.197C83.2742 174.928 83.7869 175.553 84.4447 175.993C85.1025 176.432 85.8759 176.667 86.667 176.667C87.7279 176.667 88.7453 176.245 89.4954 175.495C90.2456 174.745 90.667 173.728 90.667 172.667ZM117.334 172.667C117.334 171.876 117.099 171.102 116.66 170.444C116.22 169.787 115.595 169.274 114.864 168.971C114.133 168.668 113.329 168.589 112.553 168.744C111.777 168.898 111.065 169.279 110.505 169.838C109.946 170.398 109.565 171.11 109.411 171.886C109.256 172.662 109.335 173.466 109.638 174.197C109.941 174.928 110.454 175.553 111.111 175.993C111.769 176.432 112.543 176.667 113.334 176.667C114.395 176.667 115.412 176.245 116.162 175.495C116.912 174.745 117.334 173.728 117.334 172.667ZM144 172.667C144 171.876 143.766 171.102 143.326 170.444C142.887 169.787 142.262 169.274 141.531 168.971C140.8 168.668 139.996 168.589 139.22 168.744C138.444 168.898 137.731 169.279 137.172 169.838C136.612 170.398 136.232 171.11 136.077 171.886C135.923 172.662 136.002 173.466 136.305 174.197C136.608 174.928 137.12 175.553 137.778 175.993C138.436 176.432 139.209 176.667 140 176.667C141.061 176.667 142.079 176.245 142.829 175.495C143.579 174.745 144 173.728 144 172.667ZM170.667 172.667C170.667 171.876 170.432 171.102 169.993 170.444C169.553 169.787 168.929 169.274 168.198 168.971C167.467 168.668 166.663 168.589 165.887 168.744C165.111 168.898 164.398 169.279 163.839 169.838C163.279 170.398 162.898 171.11 162.744 171.886C162.59 172.662 162.669 173.466 162.971 174.197C163.274 174.928 163.787 175.553 164.445 175.993C165.103 176.432 165.876 176.667 166.667 176.667C167.728 176.667 168.745 176.245 169.495 175.495C170.246 174.745 170.667 173.728 170.667 172.667V172.667ZM50.667 159.333C50.667 158.542 50.4324 157.769 49.9929 157.111C49.5533 156.453 48.9286 155.941 48.1977 155.638C47.4668 155.335 46.6625 155.256 45.8866 155.41C45.1107 155.565 44.398 155.945 43.8386 156.505C43.2792 157.064 42.8982 157.777 42.7439 158.553C42.5895 159.329 42.6687 160.133 42.9715 160.864C43.2742 161.595 43.7869 162.22 44.4447 162.659C45.1025 163.099 45.8759 163.333 46.667 163.333C47.7279 163.333 48.7453 162.912 49.4954 162.162C50.2456 161.412 50.667 160.394 50.667 159.333ZM77.3337 159.333C77.3337 158.542 77.0991 157.769 76.6595 157.111C76.22 156.453 75.5953 155.941 74.8644 155.638C74.1335 155.335 73.3292 155.256 72.5533 155.41C71.7774 155.565 71.0646 155.945 70.5052 156.505C69.9458 157.064 69.5649 157.777 69.4105 158.553C69.2562 159.329 69.3354 160.133 69.6381 160.864C69.9409 161.595 70.4536 162.22 71.1114 162.659C71.7692 163.099 72.5425 163.333 73.3337 163.333C74.3945 163.333 75.4119 162.912 76.1621 162.162C76.9122 161.412 77.3337 160.394 77.3337 159.333ZM104 159.333C104 158.542 103.766 157.769 103.326 157.111C102.887 156.453 102.262 155.941 101.531 155.638C100.8 155.335 99.9959 155.256 99.22 155.41C98.444 155.565 97.7313 155.945 97.1719 156.505C96.6125 157.064 96.2315 157.777 96.0772 158.553C95.9228 159.329 96.0021 160.133 96.3048 160.864C96.6076 161.595 97.1202 162.22 97.778 162.659C98.4358 163.099 99.2092 163.333 100 163.333C101.061 163.333 102.079 162.912 102.829 162.162C103.579 161.412 104 160.394 104 159.333ZM130.667 159.333C130.667 158.542 130.432 157.769 129.993 157.111C129.553 156.453 128.929 155.941 128.198 155.638C127.467 155.335 126.663 155.256 125.887 155.41C125.111 155.565 124.398 155.945 123.839 156.505C123.279 157.064 122.898 157.777 122.744 158.553C122.59 159.329 122.669 160.133 122.971 160.864C123.274 161.595 123.787 162.22 124.445 162.659C125.103 163.099 125.876 163.333 126.667 163.333C127.728 163.333 128.745 162.912 129.495 162.162C130.246 161.412 130.667 160.394 130.667 159.333ZM157.334 159.333C157.334 158.542 157.099 157.769 156.66 157.111C156.22 156.453 155.595 155.941 154.864 155.638C154.133 155.335 153.329 155.256 152.553 155.41C151.777 155.565 151.065 155.945 150.505 156.505C149.946 157.064 149.565 157.777 149.411 158.553C149.256 159.329 149.335 160.133 149.638 160.864C149.941 161.595 150.454 162.22 151.111 162.659C151.769 163.099 152.543 163.333 153.334 163.333C154.395 163.333 155.412 162.912 156.162 162.162C156.912 161.412 157.334 160.394 157.334 159.333ZM37.3336 146C37.3336 145.209 37.0991 144.436 36.6595 143.778C36.22 143.12 35.5953 142.607 34.8644 142.304C34.1335 142.002 33.3292 141.923 32.5533 142.077C31.7774 142.231 31.0646 142.612 30.5052 143.172C29.9458 143.731 29.5649 144.444 29.4105 145.22C29.2562 145.996 29.3354 146.8 29.6381 147.531C29.9409 148.262 30.4536 148.886 31.1114 149.326C31.7692 149.765 32.5425 150 33.3336 150C34.3945 150 35.4119 149.579 36.1621 148.828C36.9122 148.078 37.3336 147.061 37.3336 146ZM64.0003 146C64.0003 145.209 63.7657 144.436 63.3262 143.778C62.8867 143.12 62.262 142.607 61.5311 142.304C60.8001 142.002 59.9959 141.923 59.22 142.077C58.444 142.231 57.7313 142.612 57.1719 143.172C56.6125 143.731 56.2315 144.444 56.0772 145.22C55.9228 145.996 56.0021 146.8 56.3048 147.531C56.6076 148.262 57.1202 148.886 57.778 149.326C58.4358 149.765 59.2092 150 60.0003 150C61.0612 150 62.0786 149.579 62.8288 148.828C63.5789 148.078 64.0003 147.061 64.0003 146ZM144 146C144 145.209 143.766 144.436 143.326 143.778C142.887 143.12 142.262 142.607 141.531 142.304C140.8 142.002 139.996 141.923 139.22 142.077C138.444 142.231 137.731 142.612 137.172 143.172C136.612 143.731 136.232 144.444 136.077 145.22C135.923 145.996 136.002 146.8 136.305 147.531C136.608 148.262 137.12 148.886 137.778 149.326C138.436 149.765 139.209 150 140 150C141.061 150 142.079 149.579 142.829 148.828C143.579 148.078 144 147.061 144 146ZM170.667 146C170.667 145.209 170.432 144.436 169.993 143.778C169.553 143.12 168.929 142.607 168.198 142.304C167.467 142.002 166.663 141.923 165.887 142.077C165.111 142.231 164.398 142.612 163.839 143.172C163.279 143.731 162.898 144.444 162.744 145.22C162.59 145.996 162.669 146.8 162.971 147.531C163.274 148.262 163.787 148.886 164.445 149.326C165.103 149.765 165.876 150 166.667 150C167.728 150 168.745 149.579 169.495 148.828C170.246 148.078 170.667 147.061 170.667 146V146Z" fill="black"/>
</g>
<path d="M92.7573 35.1332C95.424 23.4665 82.7793 14.5139 69.7573 20.6599C39.0907 35.1332 57.3333 55.3332 68.6667 53.9999C80 52.6665 90.0907 46.7999 92.7573 35.1332Z" fill="url(#paint1_linear_253_3336)"/>
<g style="mix-blend-mode:multiply" opacity="0.6">
<path d="M81.667 37C81.667 37 59.0003 51.6667 53.3337 43.6667C52.749 47.0073 55.4377 56.4433 59.667 56.3333C72.3183 56.004 81.667 37 81.667 37Z" fill="#E0713F"/>
</g>
<path d="M85.3338 108.667C99.6558 115.547 101.745 115.179 133.334 89.3332C181.001 50.3333 136.001 14.6666 87.6672 33.6666C35.3338 56.6666 52.8665 93.0713 85.3338 108.667Z" fill="url(#paint2_linear_253_3336)"/>
<path d="M83.9997 136C88.8884 144 111.111 144 116 136V122.667C116 122.667 118.175 122.733 119.666 122.667C135.26 122 140.471 96.9153 138.024 71.8253C136.232 53.4507 120.666 78.6667 95.333 61C96.333 80.3333 87.9997 78.3333 84.333 76C67.6664 68.3333 67.527 99.7613 83.9997 97.3333V136Z" fill="#532E15"/>
<g style="mix-blend-mode:multiply">
<path d="M115.999 122.663C107.003 121.995 93.5868 112.597 93.5868 112.597C93.5868 112.597 100.005 126.327 115.999 128.661L115.999 122.663Z" fill="#FFBB94"/>
</g>
<path d="M84.0008 134.307V130C82.7781 130 79.2774 132.888 77.4768 135.333C70.3594 145 78.2541 153.667 84.6928 153.667C92.8168 153.667 98.2008 146.879 100.001 143.613C101.801 146.88 107.185 153.667 115.309 153.667C121.747 153.667 129.642 145 122.525 135.333C120.724 132.888 117.223 130 116.001 130V134.307C116.001 139.405 104.841 141.765 100.023 141.983C95.4621 141.765 84.0008 139.405 84.0008 134.307Z" fill="#FFF9F5"/>
<path d="M91.6072 47.6185C102.274 74.2851 96.2738 87.2851 87.9405 102.952C79.6072 118.618 89.9405 133.285 89.9405 133.285C89.9405 133.285 77.9405 125.618 77.9405 108.618C77.9405 91.6185 89.9405 80.9518 79.9405 66.9518C69.9405 52.9518 80.9405 20.9518 91.6072 47.6185Z" fill="url(#paint3_linear_253_3336)"/>
</g>
</g>
</g>
<defs>
<filter id="filter0_d_253_3336" x="-4" y="0" width="208" height="208" filterUnits="userSpaceOnUse" color-interpolation-filters="sRGB">
<feFlood flood-opacity="0" result="BackgroundImageFix"/>
<feColorMatrix in="SourceAlpha" type="matrix" values="0 0 0 0 0 0 0 0 0 0 0 0 0 0 0 0 0 0 127 0" result="hardAlpha"/>
<feOffset dy="4"/>
<feGaussianBlur stdDeviation="2"/>
<feComposite in2="hardAlpha" operator="out"/>
<feColorMatrix type="matrix" values="0 0 0 0 0 0 0 0 0 0 0 0 0 0 0 0 0 0 0.25 0"/>
<feBlend mode="normal" in2="BackgroundImageFix" result="effect1_dropShadow_253_3336"/>
<feBlend mode="normal" in="SourceGraphic" in2="effect1_dropShadow_253_3336" result="shape"/>
</filter>
<filter id="filter1_d_253_3336" x="27.334" y="18.6633" width="145.333" height="194.67" filterUnits="userSpaceOnUse" color-interpolation-filters="sRGB">
<feFlood flood-opacity="0" result="BackgroundImageFix"/>
<feColorMatrix in="SourceAlpha" type="matrix" values="0 0 0 0 0 0 0 0 0 0 0 0 0 0 0 0 0 0 127 0" result="hardAlpha"/>
<feOffset dy="4"/>
<feGaussianBlur stdDeviation="2"/>
<feComposite in2="hardAlpha" operator="out"/>
<feColorMatrix type="matrix" values="0 0 0 0 0 0 0 0 0 0 0 0 0 0 0 0 0 0 0.25 0"/>
<feBlend mode="normal" in2="BackgroundImageFix" result="effect1_dropShadow_253_3336"/>
<feBlend mode="normal" in="SourceGraphic" in2="effect1_dropShadow_253_3336" result="shape"/>
</filter>
<linearGradient id="paint0_linear_253_3336" x1="100" y1="130" x2="100" y2="205.333" gradientUnits="userSpaceOnUse">
<stop stop-color="#806A6A"/>
<stop offset="1" stop-color="#665654"/>
</linearGradient>
<linearGradient id="paint1_linear_253_3336" x1="72.9857" y1="54.0626" x2="72.9857" y2="18.6633" gradientUnits="userSpaceOnUse">
<stop/>
<stop offset="1"/>
</linearGradient>
<linearGradient id="paint2_linear_253_3336" x1="104.038" y1="112.456" x2="104.038" y2="28.4048" gradientUnits="userSpaceOnUse">
<stop/>
<stop offset="1"/>
</linearGradient>
<linearGradient id="paint3_linear_253_3336" x1="86.6725" y1="133.285" x2="86.6725" y2="37.3333" gradientUnits="userSpaceOnUse">
<stop/>
<stop offset="1"/>
</linearGradient>
<clipPath id="clip0_253_3336">
<rect width="200" height="200" rx="100" fill="white"/>
</clipPath>
</defs>
</svg>
