<svg fill="none" height="200" viewBox="0 0 200 200" width="200" xmlns="http://www.w3.org/2000/svg" xmlns:xlink="http://www.w3.org/1999/xlink"><linearGradient id="a" gradientUnits="userSpaceOnUse" x1="105.322" x2="105.322" y1="100" y2="19.9983"><stop offset="0" stop-color="#aa5509"/><stop offset="1" stop-color="#aa5509"/></linearGradient><clipPath id="b"><rect height="200" rx="100" width="200"/></clipPath><g clip-path="url(#b)"><path d="m120.667 116v8c0 10.667 15.333 15.333 15.333 15.333s-17.667 13.334-36 13.334c-18.3333 0-36-13.334-36-13.334s15.454-4.666 15.3333-15.333c-.1206-10.667-.04-16.933-.1206-35.208-9.5547-12.3847-8.9414-20.6967-3.7167-26.542 17.504-19.5833 65.171-12.9167 65.171-12.9167s4.448 47.9954-5.667 61.9997c-4.333 6-14.333 4.667-14.333 4.667z" fill="#ffd4b3"/><path d="m170 159.539c6.347 12.904 10 42.666 10 42.666h-160s3.6547-29.765 10-42.666c6.3453-12.902 43.4-24.868 43.4-24.868 7.142 14.662 46.339 14.662 53.181-.004 0 0 37.072 11.967 43.419 24.872z" fill="#000"/><path d="m97.3335 185.333c0-.527.1564-1.043.4494-1.481.293-.439.7095-.781 1.1968-.982.4872-.202 1.0233-.255 1.5403-.152.518.103.993.357 1.366.73s.627.848.73 1.365c.102.517.05 1.054-.152 1.541s-.544.904-.982 1.197c-.439.293-.954.449-1.482.449-.7071 0-1.3854-.281-1.8855-.781s-.781-1.178-.781-1.886zm0-13.333c0-.527.1564-1.043.4494-1.482.293-.438.7095-.78 1.1968-.982.4872-.202 1.0233-.254 1.5403-.151.518.102.993.356 1.366.729s.627.848.73 1.366c.102.517.05 1.053-.152 1.54-.202.488-.544.904-.982 1.197-.439.293-.954.45-1.482.45-.7071 0-1.3854-.281-1.8855-.781s-.781-1.179-.781-1.886zm0-13.333c0-.528.1564-1.043.4494-1.482.293-.438.7095-.78 1.1968-.982.4872-.202 1.0233-.255 1.5403-.152.518.103.993.357 1.366.73s.627.848.73 1.365c.102.518.05 1.054-.152 1.541s-.544.904-.982 1.197c-.439.293-.954.449-1.482.449-.7071 0-1.3854-.281-1.8855-.781s-.781-1.178-.781-1.885z" fill="#fff"/><path d="m87.4367 68.806c-2.12-1.8207-4.696-3.0467-8.3374-1.1547-8.6326 4.482-2.0993 21.682 5.5674 21.682 2 0 2.9946 6.2813-5.91 10.6667 0-7-10.6667-24.3334-11.6-40.1147-10.7334-3.9967-8.0667-19.988-.698-19.988-1.176-14.6587 22.298-22.2307 31.3873-13.818 9.244-11.0793 32.577-5.4127 33.986 4.1993 16.045-8.5646 26.591 16.0547 11.568 25.612-6.182 3.9334-20.643 5.43-41.519 5.43-3.151 0-4.9163.7827-4.035 4.6794 1.706 7.5506-2.2547 12.3066-10.4093 2.806z" fill="url(#a)"/></g></svg>