<svg width="200" height="200" viewBox="0 0 200 200" fill="none" xmlns="http://www.w3.org/2000/svg">
<g clip-path="url(#clip0_253_2918)">
<path d="M120.667 116V124C120.667 134.667 136 139.333 136 139.333C136 139.333 118.333 152.667 100 152.667C81.6667 152.667 64 139.333 64 139.333C64 139.333 79.454 134.667 79.3333 124C79.2127 113.333 79.2933 107.067 79.2127 88.792C69.658 76.4073 70.2713 68.0953 75.496 62.25C93 42.6667 140.667 49.3333 140.667 49.3333C140.667 49.3333 145.115 97.3287 135 111.333C130.667 117.333 120.667 116 120.667 116Z" fill="#532E15"/>
<g style="mix-blend-mode:multiply">
<path d="M120.666 116C106 114.333 97.333 108 97.333 108C102.805 116.095 111.143 121.813 120.666 124V116Z" fill="#FFDBC9"/>
</g>
<path d="M170 159.539C176.347 172.443 180 202.205 180 202.205H20C20 202.205 23.6547 172.44 30 159.539C36.3453 146.637 73.4 134.671 73.4 134.671C80.542 149.333 119.739 149.333 126.581 134.667C126.581 134.667 163.653 146.634 170 159.539Z" fill="black"/>
<path d="M97.333 185.333C97.333 184.806 97.4894 184.29 97.7824 183.852C98.0754 183.413 98.4919 183.071 98.9792 182.87C99.4665 182.668 100.003 182.615 100.52 182.718C101.037 182.821 101.512 183.075 101.885 183.448C102.258 183.821 102.512 184.296 102.615 184.813C102.718 185.33 102.665 185.867 102.463 186.354C102.262 186.841 101.92 187.258 101.481 187.551C101.043 187.844 100.527 188 99.9997 188C99.2924 188 98.6142 187.719 98.1141 187.219C97.614 186.719 97.333 186.041 97.333 185.333ZM97.333 172C97.333 171.473 97.4894 170.957 97.7824 170.518C98.0754 170.08 98.4919 169.738 98.9792 169.536C99.4665 169.334 100.003 169.282 100.52 169.385C101.037 169.487 101.512 169.741 101.885 170.114C102.258 170.487 102.512 170.962 102.615 171.48C102.718 171.997 102.665 172.533 102.463 173.02C102.262 173.508 101.92 173.924 101.481 174.217C101.043 174.51 100.527 174.667 99.9997 174.667C99.2924 174.667 98.6142 174.386 98.1141 173.886C97.614 173.386 97.333 172.707 97.333 172ZM97.333 158.667C97.333 158.139 97.4894 157.624 97.7824 157.185C98.0754 156.747 98.4919 156.405 98.9792 156.203C99.4665 156.001 100.003 155.948 100.52 156.051C101.037 156.154 101.512 156.408 101.885 156.781C102.258 157.154 102.512 157.629 102.615 158.146C102.718 158.664 102.665 159.2 102.463 159.687C102.262 160.174 101.92 160.591 101.481 160.884C101.043 161.177 100.527 161.333 99.9997 161.333C99.2924 161.333 98.6142 161.052 98.1141 160.552C97.614 160.052 97.333 159.374 97.333 158.667Z" fill="white"/>
<path d="M87.4371 68.806C85.3172 66.9853 82.7412 65.7593 79.0998 67.6513C70.4672 72.1333 77.0005 89.3333 84.6672 89.3333C86.6672 89.3333 87.6618 95.6146 78.7572 100C78.7572 93 68.0905 75.6666 67.1572 59.8853C56.4238 55.8886 59.0905 39.8973 66.4592 39.8973C65.2832 25.2386 88.7572 17.6666 97.8465 26.0793C107.09 15 130.424 20.6666 131.832 30.2786C147.877 21.714 158.424 46.3333 143.4 55.8906C137.218 59.824 122.757 61.3206 101.882 61.3206C98.7305 61.3206 96.9652 62.1033 97.8465 66C99.5525 73.5506 95.5918 78.3066 87.4371 68.806Z" fill="url(#paint0_linear_253_2918)"/>
</g>
<defs>
<linearGradient id="paint0_linear_253_2918" x1="105.323" y1="100" x2="105.323" y2="19.9983" gradientUnits="userSpaceOnUse">
<stop stop-color="#AA5509"/>
<stop offset="1" stop-color="#AA5509"/>
</linearGradient>
<clipPath id="clip0_253_2918">
<rect width="200" height="200" rx="100" fill="white"/>
</clipPath>
</defs>
</svg>
