<svg width="200" height="200" viewBox="0 0 200 200" fill="none" xmlns="http://www.w3.org/2000/svg">
<g clip-path="url(#clip0_253_2851)">
<path d="M121.333 117.333V132.333C121.333 135.222 78.6665 134.251 78.6665 130.085C78.6665 126.165 78.7465 108.401 78.6665 90.1253C69.1118 77.7407 69.1118 70 76.6665 62C84.2212 54 138 50 138 50C138 50 142.035 88.8067 142.667 99.3333C142.921 103.567 145.667 117.333 135 117.333H121.333Z" fill="url(#paint0_linear_253_2851)"/>
<g style="mix-blend-mode:multiply">
<path d="M121.318 116.052C112.632 115.104 104.237 112.362 96.667 108C96.667 108 102 120.667 121.318 124.104V116.052Z" fill="#FFD7B8"/>
</g>
<path d="M170 162.205C174.231 170.808 177.564 185.03 180 204.871H20C22.4364 185.028 25.7698 170.806 30 162.205C34.216 153.631 73.3333 137.132 73.3333 137.132C73.3333 137.132 74.112 129.59 76 128.509C77.888 127.427 121.751 127.428 124 128.509C126.249 129.589 126.667 137.128 126.667 137.128C126.667 137.128 165.792 153.649 170 162.205Z" fill="black"/>
<path d="M87.3463 70.1373C85.2263 68.3166 82.6503 67.0906 79.009 68.9826C70.3763 73.4646 76.1057 90.7566 85.7663 90.4193C89.0997 90.3033 87.5717 96.946 78.6663 101.333C78.6663 94.3333 67.9997 77 67.0663 61.2186C56.333 57.222 58.9997 41.2306 66.3683 41.2306C65.1923 26.5699 88.6663 18.9979 97.7557 27.4106C107 16.3313 130.333 21.9979 131.742 31.6099C147.786 23.0453 158.333 47.6646 143.31 57.222C137.128 61.1553 122.666 62.652 101.791 62.652C91.7737 62.652 97.5343 86.0986 100.666 93.6666C104.666 103.333 127 104.667 134 103.667C139.466 102.886 142.333 100.667 142.666 99.3333C147.666 112.667 141.333 120.667 131.333 120.667C114.333 120.667 97.333 115.667 94.6663 103.333C92.5437 93.518 92.6603 77.6773 87.3463 70.1373Z" fill="url(#paint1_linear_253_2851)"/>
<path d="M121.333 117.333V132.333C121.333 135.222 78.6665 134.251 78.6665 130.085C78.6665 126.165 78.7465 108.401 78.6665 90.1253C69.1118 77.7407 69.1118 70 76.6665 62C84.2212 54 138 50 138 50C138 50 142.035 88.8067 142.667 99.3333C142.921 103.567 145.667 117.333 135 117.333H121.333Z" fill="#532E15"/>
<g style="mix-blend-mode:multiply">
<path d="M121.318 116.052C112.632 115.104 104.237 112.362 96.667 108C96.667 108 102 120.667 121.318 124.104V116.052Z" fill="#FFD7B8"/>
</g>
<path d="M170 162.205C174.231 170.808 177.564 185.03 180 204.871H20C22.4364 185.028 25.7698 170.806 30 162.205C34.216 153.631 73.3333 137.132 73.3333 137.132C73.3333 137.132 74.112 129.59 76 128.509C77.888 127.427 121.751 127.428 124 128.509C126.249 129.589 126.667 137.128 126.667 137.128C126.667 137.128 165.792 153.649 170 162.205Z" fill="black"/>
<path d="M87.3463 70.1373C85.2263 68.3166 82.6503 67.0906 79.009 68.9826C70.3763 73.4646 76.1057 90.7566 85.7663 90.4193C89.0997 90.3033 87.5717 96.946 78.6663 101.333C78.6663 94.3333 67.9997 77 67.0663 61.2186C56.333 57.222 58.9997 41.2306 66.3683 41.2306C65.1923 26.5699 88.6663 18.9979 97.7557 27.4106C107 16.3313 130.333 21.9979 131.742 31.6099C147.786 23.0453 158.333 47.6646 143.31 57.222C137.128 61.1553 122.666 62.652 101.791 62.652C91.7737 62.652 97.5343 86.0986 100.666 93.6666C104.666 103.333 127 104.667 134 103.667C139.466 102.886 142.333 100.667 142.666 99.3333C147.666 112.667 141.333 120.667 131.333 120.667C114.333 120.667 97.333 115.667 94.6663 103.333C92.5437 93.518 92.6603 77.6773 87.3463 70.1373Z" fill="black"/>
</g>
<defs>
<linearGradient id="paint0_linear_253_2851" x1="107.198" y1="50" x2="107.198" y2="133.991" gradientUnits="userSpaceOnUse">
<stop stop-color="#FFD4B3"/>
<stop offset="1" stop-color="#FFDCC2"/>
</linearGradient>
<linearGradient id="paint1_linear_253_2851" x1="105.232" y1="120.667" x2="105.232" y2="21.3296" gradientUnits="userSpaceOnUse">
<stop/>
<stop offset="0.0001" stop-color="#0A0506"/>
<stop offset="0.0002" stop-color="#26130D"/>
<stop offset="1"/>
</linearGradient>
<clipPath id="clip0_253_2851">
<rect width="200" height="200" rx="100" fill="white"/>
</clipPath>
</defs>
</svg>
