<svg fill="none" height="200" viewBox="0 0 200 200" width="200" xmlns="http://www.w3.org/2000/svg" xmlns:xlink="http://www.w3.org/1999/xlink"><clipPath id="a"><rect height="200" rx="100" transform="matrix(-1 0 0 1 200 0)" width="200"/></clipPath><g clip-path="url(#a)"><path d="m51.6668 106.333c-5.408-17.9603-8.7414-48.6663 14-69.6663 17.38-16.0494 64.3332-17.6667 80.6662 17.3333 2.727 5.8427-1 15-8.333 14.6667-2.882-.1334-4.667 9-6.333 14.6666 2.333 22.9997 23.121 23.4247 33.666 40.9997 13 21.667-3 53.667-41.333 53.667-38.3333 0-60.3079-31.73-72.3332-71.667z" fill="#000"/><path d="m38.6665 158.667c-4.8887 9.333-7.3333 43.333-7.3333 43.333h137.3338s-2.445-34-7.334-43.333c-7.333-14-61.3332-32-61.3332-32s-54 18-61.3333 32z" fill="#000"/><path d="m84 134.667s8.5106 4.666 16.34 4.666c7.829 0 15.66-4.666 15.66-4.666v-14.667c1.684.266 3.391.367 5.095.303 15.992-.002 22.022-23.2957 18.905-51.6364-2 0-6.667 0-13.333-9.3333 1.666 13-17.667 11-25 .6666 3.666 12.3334-6.0004 20.6667-14.3337 15.6667-16.3407-9.8047-20.014 20.084-3.3333 20.3333z" fill="#d39c72"/><path d="m116 120c-8.27-1.523-16.1831-4.575-23.3333-9 0 0 8.3333 14.333 23.3333 14.333z" fill="#ffb597"/><path d="m99.9783 138.65c-4.818-.218-15.978-2.578-15.978-7.677v-4.306c-1.2227 0-4.7234 2.888-6.524 5.333-7.1174 9.667.7773 18.333 7.216 18.333 8.124 0 13.508-6.788 15.3077-10.053 1.8 3.267 7.184 10.053 15.308 10.053 6.439 0 14.334-8.666 7.216-18.333-1.8-2.445-5.301-5.333-6.524-5.333v4.306c0 5.099-11.461 7.459-16.0217 7.677z" fill="#fff"/></g></svg>