<svg fill="none" height="200" viewBox="0 0 200 200" width="200" xmlns="http://www.w3.org/2000/svg" xmlns:xlink="http://www.w3.org/1999/xlink"><filter id="a" color-interpolation-filters="sRGB" filterUnits="userSpaceOnUse" height="194.67" width="145.333" x="27.3335" y="18.6633"><feFlood flood-opacity="0" result="BackgroundImageFix"/><feColorMatrix in="SourceAlpha" result="hardAlpha" type="matrix" values="0 0 0 0 0 0 0 0 0 0 0 0 0 0 0 0 0 0 127 0"/><feOffset dy="4"/><feGaussianBlur stdDeviation="2"/><feComposite in2="hardAlpha" operator="out"/><feColorMatrix type="matrix" values="0 0 0 0 0 0 0 0 0 0 0 0 0 0 0 0 0 0 0.25 0"/><feBlend in2="BackgroundImageFix" mode="normal" result="effect1_dropShadow_252_2816"/><feBlend in="SourceGraphic" in2="effect1_dropShadow_252_2816" mode="normal" result="shape"/></filter><linearGradient id="b" gradientUnits="userSpaceOnUse" x1="100" x2="100" y1="130" y2="205.333"><stop offset="0" stop-color="#806a6a"/><stop offset="1" stop-color="#665654"/></linearGradient><linearGradient id="c"><stop offset="0" stop-color="#e05f51"/><stop offset="1" stop-color="#e05f51"/></linearGradient><linearGradient id="d" gradientUnits="userSpaceOnUse" x1="72.9862" x2="72.9862" xlink:href="#c" y1="54.0626" y2="18.6633"/><linearGradient id="e" gradientUnits="userSpaceOnUse" x1="86.6725" x2="86.6725" xlink:href="#c" y1="133.285" y2="37.3333"/><clipPath id="f"><rect height="200" rx="100" width="200"/></clipPath><mask id="g" height="76" maskUnits="userSpaceOnUse" width="138" x="31" y="130"><path d="m38.667 162c-4.8887 9.333-7.3334 43.333-7.3334 43.333h137.3334s-2.445-34-7.333-43.333c-7.334-14-61.334-32-61.334-32s-53.9997 18-61.333 32z" fill="url(#b)"/></mask><g clip-path="url(#f)"><g filter="url(#a)"><path d="m38.667 162c-4.8887 9.333-7.3334 43.333-7.3334 43.333h137.3334s-2.445-34-7.333-43.333c-7.334-14-61.334-32-61.334-32s-53.9997 18-61.333 32z" fill="#000"/><g mask="url(#g)"><path d="m37.3336 199.333c0-.791-.2345-1.564-.6741-2.222-.4395-.658-1.0642-1.17-1.7951-1.473s-1.5352-.382-2.3111-.228c-.7759.155-1.4887.535-2.0481 1.095-.5594.559-.9403 1.272-1.0947 2.048-.1543.776-.0751 1.58.2276 2.311.3028.731.8155 1.356 1.4733 1.795.6578.44 1.4311.674 2.2222.674 1.0609 0 2.0783-.421 2.8285-1.171.7501-.75 1.1715-1.768 1.1715-2.829zm26.6667 0c0-.791-.2346-1.564-.6741-2.222s-1.0642-1.17-1.7951-1.473c-.731-.303-1.5352-.382-2.3111-.228-.776.155-1.4887.535-2.0481 1.095-.5594.559-.9404 1.272-1.0947 2.048-.1544.776-.0751 1.58.2276 2.311.3028.731.8154 1.356 1.4732 1.795.6578.44 1.4312.674 2.2223.674 1.0609 0 2.0783-.421 2.8285-1.171.7501-.75 1.1715-1.768 1.1715-2.829zm26.6667 0c0-.791-.2346-1.564-.6741-2.222-.4396-.658-1.0643-1.17-1.7952-1.473s-1.5351-.382-2.3111-.228c-.7759.155-1.4886.535-2.048 1.095-.5594.559-.9404 1.272-1.0947 2.048-.1544.776-.0752 1.58.2276 2.311.3027.731.8154 1.356 1.4732 1.795.6578.44 1.4312.674 2.2223.674 1.0609 0 2.0783-.421 2.8284-1.171.7502-.75 1.1716-1.768 1.1716-2.829zm26.667 0c0-.791-.235-1.564-.674-2.222-.44-.658-1.065-1.17-1.796-1.473s-1.535-.382-2.311-.228c-.776.155-1.488.535-2.048 1.095-.559.559-.94 1.272-1.094 2.048-.155.776-.076 1.58.227 2.311s.816 1.356 1.473 1.795c.658.44 1.432.674 2.223.674 1.061 0 2.078-.421 2.828-1.171s1.172-1.768 1.172-2.829zm26.666 0c0-.791-.234-1.564-.674-2.222-.439-.658-1.064-1.17-1.795-1.473s-1.535-.382-2.311-.228c-.776.155-1.489.535-2.048 1.095-.56.559-.94 1.272-1.095 2.048-.154.776-.075 1.58.228 2.311s.815 1.356 1.473 1.795c.658.44 1.431.674 2.222.674 1.061 0 2.079-.421 2.829-1.171s1.171-1.768 1.171-2.829zm26.667 0c0-.791-.235-1.564-.674-2.222-.44-.658-1.064-1.17-1.795-1.473s-1.535-.382-2.311-.228c-.776.155-1.489.535-2.048 1.095-.56.559-.941 1.272-1.095 2.048s-.075 1.58.227 2.311c.303.731.816 1.356 1.474 1.795.658.44 1.431.674 2.222.674 1.061 0 2.078-.421 2.828-1.171.751-.75 1.172-1.768 1.172-2.829zm-120-13.333c0-.791-.2346-1.564-.6741-2.222-.4396-.658-1.0643-1.171-1.7952-1.474-.7309-.302-1.5352-.381-2.3111-.227s-1.4886.535-2.048 1.095c-.5594.559-.9404 1.272-1.0947 2.048-.1544.776-.0752 1.58.2276 2.311.3027.731.8154 1.355 1.4732 1.795.6578.439 1.4312.674 2.2223.674 1.0609 0 2.0783-.421 2.8284-1.172.7502-.75 1.1716-1.767 1.1716-2.828zm26.6667 0c0-.791-.2346-1.564-.6742-2.222-.4395-.658-1.0642-1.171-1.7951-1.474-.7309-.302-1.5352-.381-2.3111-.227s-1.4887.535-2.0481 1.095c-.5594.559-.9403 1.272-1.0947 2.048-.1543.776-.0751 1.58.2276 2.311.3028.731.8155 1.355 1.4733 1.795.6578.439 1.4311.674 2.2223.674 1.0608 0 2.0782-.421 2.8284-1.172.7501-.75 1.1716-1.767 1.1716-2.828zm26.6663 0c0-.791-.234-1.564-.674-2.222-.439-.658-1.064-1.171-1.795-1.474-.731-.302-1.5351-.381-2.311-.227-.776.154-1.4887.535-2.0481 1.095-.5594.559-.9404 1.272-1.0947 2.048-.1544.776-.0751 1.58.2276 2.311.3028.731.8154 1.355 1.4732 1.795.6578.439 1.4312.674 2.222.674 1.061 0 2.079-.421 2.829-1.172.75-.75 1.171-1.767 1.171-2.828zm26.667 0c0-.791-.235-1.564-.674-2.222-.44-.658-1.064-1.171-1.795-1.474-.731-.302-1.535-.381-2.311-.227s-1.489.535-2.048 1.095c-.56.559-.941 1.272-1.095 2.048s-.075 1.58.227 2.311c.303.731.816 1.355 1.474 1.795.658.439 1.431.674 2.222.674 1.061 0 2.078-.421 2.828-1.172.751-.75 1.172-1.767 1.172-2.828zm26.667 0c0-.791-.235-1.564-.674-2.222-.44-.658-1.065-1.171-1.796-1.474-.731-.302-1.535-.381-2.311-.227s-1.488.535-2.048 1.095c-.559.559-.94 1.272-1.094 2.048-.155.776-.076 1.58.227 2.311s.816 1.355 1.473 1.795c.658.439 1.432.674 2.223.674 1.061 0 2.078-.421 2.828-1.172.75-.75 1.172-1.767 1.172-2.828zm-120.0004-13.333c0-.791-.2345-1.565-.6741-2.223-.4395-.657-1.0642-1.17-1.7951-1.473s-1.5352-.382-2.3111-.227c-.7759.154-1.4887.535-2.0481 1.094-.5594.56-.9403 1.272-1.0947 2.048-.1543.776-.0751 1.58.2276 2.311.3028.731.8155 1.356 1.4733 1.796.6578.439 1.4311.674 2.2222.674 1.0609 0 2.0783-.422 2.8285-1.172.7501-.75 1.1715-1.767 1.1715-2.828zm26.6667 0c0-.791-.2346-1.565-.6741-2.223-.4395-.657-1.0642-1.17-1.7951-1.473-.731-.303-1.5352-.382-2.3111-.227-.776.154-1.4887.535-2.0481 1.094-.5594.56-.9404 1.272-1.0947 2.048-.1544.776-.0751 1.58.2276 2.311.3028.731.8154 1.356 1.4732 1.796.6578.439 1.4312.674 2.2223.674 1.0609 0 2.0783-.422 2.8285-1.172.7501-.75 1.1715-1.767 1.1715-2.828zm26.6667 0c0-.791-.2346-1.565-.6741-2.223-.4396-.657-1.0643-1.17-1.7952-1.473s-1.5351-.382-2.3111-.227c-.7759.154-1.4886.535-2.048 1.094-.5594.56-.9404 1.272-1.0947 2.048-.1544.776-.0752 1.58.2276 2.311.3027.731.8154 1.356 1.4732 1.796.6578.439 1.4312.674 2.2223.674 1.0609 0 2.0783-.422 2.8284-1.172.7502-.75 1.1716-1.767 1.1716-2.828zm26.667 0c0-.791-.235-1.565-.674-2.223-.44-.657-1.065-1.17-1.796-1.473s-1.535-.382-2.311-.227c-.776.154-1.488.535-2.048 1.094-.559.56-.94 1.272-1.094 2.048-.155.776-.076 1.58.227 2.311s.816 1.356 1.473 1.796c.658.439 1.432.674 2.223.674 1.061 0 2.078-.422 2.828-1.172s1.172-1.767 1.172-2.828zm26.666 0c0-.791-.234-1.565-.674-2.223-.439-.657-1.064-1.17-1.795-1.473s-1.535-.382-2.311-.227c-.776.154-1.489.535-2.048 1.094-.56.56-.94 1.272-1.095 2.048-.154.776-.075 1.58.228 2.311s.815 1.356 1.473 1.796c.658.439 1.431.674 2.222.674 1.061 0 2.079-.422 2.829-1.172s1.171-1.767 1.171-2.828zm26.667 0c0-.791-.235-1.565-.674-2.223-.44-.657-1.064-1.17-1.795-1.473s-1.535-.382-2.311-.227c-.776.154-1.489.535-2.048 1.094-.56.56-.941 1.272-1.095 2.048s-.075 1.58.227 2.311c.303.731.816 1.356 1.474 1.796.658.439 1.431.674 2.222.674 1.061 0 2.078-.422 2.828-1.172.751-.75 1.172-1.767 1.172-2.828zm-120-13.334c0-.791-.2346-1.564-.6741-2.222-.4396-.658-1.0643-1.17-1.7952-1.473s-1.5352-.382-2.3111-.228c-.7759.155-1.4886.535-2.048 1.095-.5594.559-.9404 1.272-1.0947 2.048-.1544.776-.0752 1.58.2276 2.311.3027.731.8154 1.356 1.4732 1.795.6578.44 1.4312.674 2.2223.674 1.0609 0 2.0783-.421 2.8284-1.171.7502-.75 1.1716-1.768 1.1716-2.829zm26.6667 0c0-.791-.2346-1.564-.6742-2.222-.4395-.658-1.0642-1.17-1.7951-1.473s-1.5352-.382-2.3111-.228c-.7759.155-1.4887.535-2.0481 1.095-.5594.559-.9403 1.272-1.0947 2.048-.1543.776-.0751 1.58.2276 2.311.3028.731.8155 1.356 1.4733 1.795.6578.44 1.4311.674 2.2223.674 1.0608 0 2.0782-.421 2.8284-1.171.7501-.75 1.1716-1.768 1.1716-2.829zm26.6663 0c0-.791-.234-1.564-.674-2.222-.439-.658-1.064-1.17-1.795-1.473s-1.5351-.382-2.311-.228c-.776.155-1.4887.535-2.0481 1.095-.5594.559-.9404 1.272-1.0947 2.048-.1544.776-.0751 1.58.2276 2.311.3028.731.8154 1.356 1.4732 1.795.6578.44 1.4312.674 2.222.674 1.061 0 2.079-.421 2.829-1.171s1.171-1.768 1.171-2.829zm26.667 0c0-.791-.235-1.564-.674-2.222-.44-.658-1.064-1.17-1.795-1.473s-1.535-.382-2.311-.228c-.776.155-1.489.535-2.048 1.095-.56.559-.941 1.272-1.095 2.048s-.075 1.58.227 2.311c.303.731.816 1.356 1.474 1.795.658.44 1.431.674 2.222.674 1.061 0 2.078-.421 2.828-1.171.751-.75 1.172-1.768 1.172-2.829zm26.667 0c0-.791-.235-1.564-.674-2.222-.44-.658-1.065-1.17-1.796-1.473s-1.535-.382-2.311-.228c-.776.155-1.488.535-2.048 1.095-.559.559-.94 1.272-1.094 2.048-.155.776-.076 1.58.227 2.311s.816 1.356 1.473 1.795c.658.44 1.432.674 2.223.674 1.061 0 2.078-.421 2.828-1.171s1.172-1.768 1.172-2.829zm-120.0004-13.333c0-.791-.2345-1.564-.6741-2.222-.4395-.658-1.0642-1.171-1.7951-1.474-.7309-.302-1.5352-.381-2.3111-.227s-1.4887.535-2.0481 1.095c-.5594.559-.9403 1.272-1.0947 2.048-.1543.776-.0751 1.58.2276 2.311.3028.731.8155 1.355 1.4733 1.795.6578.439 1.4311.674 2.2222.674 1.0609 0 2.0783-.421 2.8285-1.172.7501-.75 1.1715-1.767 1.1715-2.828zm26.6667 0c0-.791-.2346-1.564-.6741-2.222s-1.0642-1.171-1.7951-1.474c-.731-.302-1.5352-.381-2.3111-.227-.776.154-1.4887.535-2.0481 1.095-.5594.559-.9404 1.272-1.0947 2.048-.1544.776-.0751 1.58.2276 2.311.3028.731.8154 1.355 1.4732 1.795.6578.439 1.4312.674 2.2223.674 1.0609 0 2.0783-.421 2.8285-1.172.7501-.75 1.1715-1.767 1.1715-2.828zm79.9997 0c0-.791-.234-1.564-.674-2.222-.439-.658-1.064-1.171-1.795-1.474-.731-.302-1.535-.381-2.311-.227s-1.489.535-2.048 1.095c-.56.559-.94 1.272-1.095 2.048-.154.776-.075 1.58.228 2.311s.815 1.355 1.473 1.795c.658.439 1.431.674 2.222.674 1.061 0 2.079-.421 2.829-1.172.75-.75 1.171-1.767 1.171-2.828zm26.667 0c0-.791-.235-1.564-.674-2.222-.44-.658-1.064-1.171-1.795-1.474-.731-.302-1.535-.381-2.311-.227s-1.489.535-2.048 1.095c-.56.559-.941 1.272-1.095 2.048s-.075 1.58.227 2.311c.303.731.816 1.355 1.474 1.795.658.439 1.431.674 2.222.674 1.061 0 2.078-.421 2.828-1.172.751-.75 1.172-1.767 1.172-2.828z" fill="#000" opacity=".4"/></g><path d="m92.7578 35.1332c2.6667-11.6667-9.978-20.6193-23-14.4733-30.6666 14.4733-12.424 34.6733-1.0906 33.34 11.3333-1.3334 21.424-7.2 24.0906-18.8667z" fill="url(#d)"/><path d="m81.667 37s-22.6667 14.6667-28.3333 6.6667c-.5847 3.3406 2.104 12.7766 6.3333 12.6666 12.6513-.3293 22-19.3333 22-19.3333z" fill="#e05f51" opacity=".6"/><path d="m85.3338 108.667c14.322 6.88 16.4112 6.512 48.0002-19.3338 47.667-38.9999 2.667-74.6666-45.6668-55.6666-52.3334 23-34.8007 59.4047-2.3334 75.0004z" fill="#e05f51"/><path d="m83.9997 136c4.8887 8 27.1113 8 32.0003 0v-13.333s2.175.066 3.666 0c15.594-.667 20.805-25.7517 18.358-50.8417-1.792-18.3746-17.358 6.8414-42.691-10.8253 1 19.3333-7.3333 17.3333-11 15-16.6666-7.6667-16.806 23.7613-.3333 21.3333z" fill="#ffd4b3"/><path d="m116 122.663c-8.997-.668-22.4127-10.066-22.4127-10.066s6.4177 13.73 22.4117 16.064z" fill="#ffbb94"/><path d="m84.0003 134.307v-4.307c-1.2227 0-4.7234 2.888-6.524 5.333-7.1174 9.667.7773 18.334 7.216 18.334 8.124 0 13.508-6.788 15.3077-10.054 1.8 3.267 7.184 10.054 15.308 10.054 6.439 0 14.334-8.667 7.216-18.334-1.8-2.445-5.301-5.333-6.524-5.333v4.307c0 5.098-11.16 7.458-15.978 7.676-4.5604-.218-16.0217-2.578-16.0217-7.676z" fill="#fff9f5"/><path d="m91.6072 47.6185c10.6668 26.6666 4.6666 39.6666-3.6667 55.3335-8.3333 15.666 2 30.333 2 30.333s-12-7.667-12-24.667c0-16.9995 12-27.6662 2-41.6662s1-46 11.6667-19.3333z" fill="url(#e)"/></g></g></svg>