<svg width="200" height="200" viewBox="0 0 200 200" fill="none" xmlns="http://www.w3.org/2000/svg">
<g clip-path="url(#clip0_253_3441)">
<path d="M132.787 85.3921C180.414 46.3755 135.464 10.6883 87.1744 29.6952C82.0087 31.7287 67.6939 23.5881 54.4339 32.1642C45.8802 37.6965 49.2091 42.0321 45.8784 46.3678C42.5478 50.7034 29.7072 50.4483 26.8942 61.7063C25.2282 68.3761 29.8385 75.3625 29.2219 80.3827C28.6052 85.4029 23.737 89.9281 23.5048 96.5554C23.4043 99.3546 23.8562 102.146 24.8347 104.771C25.8132 107.395 27.2991 109.801 29.2076 111.851C31.1161 113.901 33.4098 115.555 35.9577 116.719C38.5055 117.882 41.2576 118.533 44.0568 118.632C44.0797 124.166 46.2404 129.477 50.0874 133.455C53.9344 137.433 59.1699 139.77 64.6998 139.978C68.3755 140.106 77.6822 140.108 85.6797 135.283C105.72 123.198 101.223 111.248 132.787 85.3921Z" fill="black"/>
<path d="M83.3333 129.333C83.3333 123.333 83.1293 93.7388 83.1393 93.2388C66.6666 95.6668 67 64.3334 83.6666 72.0001C87.3333 74.3334 97.6666 72.0001 96.6666 52.6667C114.667 72.0001 135.565 49.4507 137.357 67.8254C139.804 92.9154 137.342 119.173 121.749 119.175C120.044 119.154 118.343 118.984 116.667 118.667V129.333C116.667 136 128.667 139.333 128.667 139.333C128.667 139.333 107.939 158.867 99.3333 158.759C90.728 158.651 71.3333 139.333 71.3333 139.333C71.3333 139.333 83.3333 136 83.3333 129.333Z" fill="#532E15"/>
<g style="mix-blend-mode:multiply">
<path d="M116.666 118.663C108.396 116.829 100.558 113.411 93.5869 108.597C93.5869 108.597 99.339 122.659 116.645 125.328L116.666 118.663Z" fill="#FFD4B3"/>
</g>
<path d="M161.333 159.333C166.17 170.081 168.666 202.667 168.666 202.667H31.333C31.333 202.667 33.8297 170.081 38.6663 159.333C42.9037 149.918 70.8257 139.107 79.0083 136C83.733 141.285 90.5037 144.667 99.9997 144.667C109.496 144.667 116.266 141.285 120.991 136C129.174 139.107 157.096 149.918 161.333 159.333Z" fill="black"/>
<mask id="mask0_253_3441" style="mask-type:alpha" maskUnits="userSpaceOnUse" x="31" y="136" width="138" height="67">
<path d="M161.333 159.333C166.17 170.081 168.666 202.667 168.666 202.667H31.333C31.333 202.667 33.8297 170.081 38.6663 159.333C42.9037 149.918 70.8257 139.107 79.0083 136C83.733 141.285 90.5037 144.667 99.9997 144.667C109.496 144.667 116.266 141.285 120.991 136C129.174 139.107 157.096 149.918 161.333 159.333Z" fill="url(#paint0_linear_253_3441)"/>
</mask>
<g mask="url(#mask0_253_3441)">
<path d="M162.666 196C162.666 195.209 162.901 194.436 163.34 193.778C163.78 193.12 164.405 192.607 165.136 192.305C165.867 192.002 166.671 191.923 167.447 192.077C168.223 192.231 168.935 192.612 169.495 193.172C170.054 193.731 170.435 194.444 170.589 195.22C170.744 195.996 170.665 196.8 170.362 197.531C170.059 198.262 169.546 198.886 168.889 199.326C168.231 199.765 167.457 200 166.666 200C165.605 200 164.588 199.579 163.838 198.828C163.088 198.078 162.666 197.061 162.666 196ZM136 196C136 195.209 136.234 194.436 136.674 193.778C137.113 193.12 137.738 192.607 138.469 192.305C139.2 192.002 140.004 191.923 140.78 192.077C141.556 192.231 142.269 192.612 142.828 193.172C143.388 193.731 143.768 194.444 143.923 195.22C144.077 195.996 143.998 196.8 143.695 197.531C143.392 198.262 142.88 198.886 142.222 199.326C141.564 199.765 140.791 200 140 200C138.939 200 137.921 199.579 137.171 198.828C136.421 198.078 136 197.061 136 196ZM109.333 196C109.333 195.209 109.568 194.436 110.007 193.778C110.447 193.12 111.071 192.607 111.802 192.305C112.533 192.002 113.337 191.923 114.113 192.077C114.889 192.231 115.602 192.612 116.161 193.172C116.721 193.731 117.102 194.444 117.256 195.22C117.41 195.996 117.331 196.8 117.029 197.531C116.726 198.262 116.213 198.886 115.555 199.326C114.897 199.765 114.124 200 113.333 200C112.272 200 111.255 199.579 110.505 198.828C109.754 198.078 109.333 197.061 109.333 196ZM82.6663 196C82.6663 195.209 82.9009 194.436 83.3405 193.778C83.78 193.12 84.4047 192.607 85.1356 192.305C85.8665 192.002 86.6708 191.923 87.4467 192.077C88.2226 192.231 88.9354 192.612 89.4948 193.172C90.0542 193.731 90.4351 194.444 90.5895 195.22C90.7438 195.996 90.6646 196.8 90.3619 197.531C90.0591 198.262 89.5464 198.886 88.8886 199.326C88.2308 199.765 87.4575 200 86.6663 200C85.6055 200 84.5881 199.579 83.8379 198.828C83.0878 198.078 82.6663 197.061 82.6663 196ZM55.9997 196C55.9997 195.209 56.2343 194.436 56.6738 193.778C57.1133 193.12 57.738 192.607 58.4689 192.305C59.1998 192.002 60.0041 191.923 60.78 192.077C61.556 192.231 62.2687 192.612 62.8281 193.172C63.3875 193.731 63.7685 194.444 63.9228 195.22C64.0772 195.996 63.9979 196.8 63.6952 197.531C63.3924 198.262 62.8798 198.886 62.222 199.326C61.5642 199.765 60.7908 200 59.9997 200C58.9388 200 57.9214 199.579 57.1712 198.828C56.4211 198.078 55.9997 197.061 55.9997 196ZM29.333 196C29.333 195.209 29.5676 194.436 30.0071 193.778C30.4467 193.12 31.0714 192.607 31.8023 192.305C32.5332 192.002 33.3374 191.923 34.1134 192.077C34.8893 192.231 35.602 192.612 36.1614 193.172C36.7208 193.731 37.1018 194.444 37.2561 195.22C37.4105 195.996 37.3313 196.8 37.0285 197.531C36.7258 198.262 36.2131 198.886 35.5553 199.326C34.8975 199.765 34.1241 200 33.333 200C32.2721 200 31.2547 199.579 30.5046 198.828C29.7544 198.078 29.333 197.061 29.333 196V196ZM149.333 182.667C149.333 181.876 149.568 181.102 150.007 180.444C150.447 179.787 151.071 179.274 151.802 178.971C152.533 178.668 153.337 178.589 154.113 178.744C154.889 178.898 155.602 179.279 156.161 179.838C156.721 180.398 157.102 181.11 157.256 181.886C157.41 182.662 157.331 183.467 157.029 184.197C156.726 184.928 156.213 185.553 155.555 185.993C154.897 186.432 154.124 186.667 153.333 186.667C152.272 186.667 151.255 186.245 150.505 185.495C149.754 184.745 149.333 183.728 149.333 182.667ZM122.666 182.667C122.666 181.876 122.901 181.102 123.34 180.444C123.78 179.787 124.405 179.274 125.136 178.971C125.867 178.668 126.671 178.589 127.447 178.744C128.223 178.898 128.935 179.279 129.495 179.838C130.054 180.398 130.435 181.11 130.589 181.886C130.744 182.662 130.665 183.467 130.362 184.197C130.059 184.928 129.546 185.553 128.889 185.993C128.231 186.432 127.457 186.667 126.666 186.667C125.605 186.667 124.588 186.245 123.838 185.495C123.088 184.745 122.666 183.728 122.666 182.667ZM95.9997 182.667C95.9997 181.876 96.2343 181.102 96.6738 180.444C97.1133 179.787 97.738 179.274 98.4689 178.971C99.1999 178.668 100.004 178.589 100.78 178.744C101.556 178.898 102.269 179.279 102.828 179.838C103.388 180.398 103.768 181.11 103.923 181.886C104.077 182.662 103.998 183.467 103.695 184.197C103.392 184.928 102.88 185.553 102.222 185.993C101.564 186.432 100.791 186.667 99.9997 186.667C98.9388 186.667 97.9214 186.245 97.1712 185.495C96.4211 184.745 95.9997 183.728 95.9997 182.667ZM69.333 182.667C69.333 181.876 69.5676 181.102 70.0071 180.444C70.4467 179.787 71.0714 179.274 71.8023 178.971C72.5332 178.668 73.3374 178.589 74.1134 178.744C74.8893 178.898 75.602 179.279 76.1614 179.838C76.7208 180.398 77.1018 181.11 77.2561 181.886C77.4105 182.662 77.3313 183.467 77.0285 184.197C76.7258 184.928 76.2131 185.553 75.5553 185.993C74.8975 186.432 74.1241 186.667 73.333 186.667C72.2721 186.667 71.2547 186.245 70.5046 185.495C69.7544 184.745 69.333 183.728 69.333 182.667ZM42.6663 182.667C42.6663 181.876 42.9009 181.102 43.3405 180.444C43.78 179.787 44.4047 179.274 45.1356 178.971C45.8665 178.668 46.6708 178.589 47.4467 178.744C48.2226 178.898 48.9354 179.279 49.4948 179.838C50.0542 180.398 50.4351 181.11 50.5895 181.886C50.7438 182.662 50.6646 183.467 50.3619 184.197C50.0591 184.928 49.5464 185.553 48.8886 185.993C48.2308 186.432 47.4575 186.667 46.6663 186.667C45.6055 186.667 44.5881 186.245 43.8379 185.495C43.0878 184.745 42.6663 183.728 42.6663 182.667ZM162.666 169.333C162.666 168.542 162.901 167.769 163.34 167.111C163.78 166.453 164.405 165.941 165.136 165.638C165.867 165.335 166.671 165.256 167.447 165.41C168.223 165.565 168.935 165.946 169.495 166.505C170.054 167.064 170.435 167.777 170.589 168.553C170.744 169.329 170.665 170.133 170.362 170.864C170.059 171.595 169.546 172.22 168.889 172.659C168.231 173.099 167.457 173.333 166.666 173.333C165.605 173.333 164.588 172.912 163.838 172.162C163.088 171.412 162.666 170.394 162.666 169.333ZM136 169.333C136 168.542 136.234 167.769 136.674 167.111C137.113 166.453 137.738 165.941 138.469 165.638C139.2 165.335 140.004 165.256 140.78 165.41C141.556 165.565 142.269 165.946 142.828 166.505C143.388 167.064 143.768 167.777 143.923 168.553C144.077 169.329 143.998 170.133 143.695 170.864C143.392 171.595 142.88 172.22 142.222 172.659C141.564 173.099 140.791 173.333 140 173.333C138.939 173.333 137.921 172.912 137.171 172.162C136.421 171.412 136 170.394 136 169.333ZM109.333 169.333C109.333 168.542 109.568 167.769 110.007 167.111C110.447 166.453 111.071 165.941 111.802 165.638C112.533 165.335 113.337 165.256 114.113 165.41C114.889 165.565 115.602 165.946 116.161 166.505C116.721 167.064 117.102 167.777 117.256 168.553C117.41 169.329 117.331 170.133 117.029 170.864C116.726 171.595 116.213 172.22 115.555 172.659C114.897 173.099 114.124 173.333 113.333 173.333C112.272 173.333 111.255 172.912 110.505 172.162C109.754 171.412 109.333 170.394 109.333 169.333ZM82.6663 169.333C82.6663 168.542 82.9009 167.769 83.3405 167.111C83.78 166.453 84.4047 165.941 85.1356 165.638C85.8665 165.335 86.6708 165.256 87.4467 165.41C88.2226 165.565 88.9354 165.946 89.4948 166.505C90.0542 167.064 90.4351 167.777 90.5895 168.553C90.7438 169.329 90.6646 170.133 90.3619 170.864C90.0591 171.595 89.5464 172.22 88.8886 172.659C88.2308 173.099 87.4575 173.333 86.6663 173.333C85.6055 173.333 84.5881 172.912 83.8379 172.162C83.0878 171.412 82.6663 170.394 82.6663 169.333ZM55.9997 169.333C55.9997 168.542 56.2343 167.769 56.6738 167.111C57.1133 166.453 57.738 165.941 58.4689 165.638C59.1998 165.335 60.0041 165.256 60.78 165.41C61.556 165.565 62.2687 165.946 62.8281 166.505C63.3875 167.064 63.7685 167.777 63.9228 168.553C64.0772 169.329 63.9979 170.133 63.6952 170.864C63.3924 171.595 62.8798 172.22 62.222 172.659C61.5642 173.099 60.7908 173.333 59.9997 173.333C58.9388 173.333 57.9214 172.912 57.1712 172.162C56.4211 171.412 55.9997 170.394 55.9997 169.333ZM29.333 169.333C29.333 168.542 29.5676 167.769 30.0071 167.111C30.4467 166.453 31.0714 165.941 31.8023 165.638C32.5332 165.335 33.3374 165.256 34.1134 165.41C34.8893 165.565 35.602 165.946 36.1614 166.505C36.7208 167.064 37.1018 167.777 37.2561 168.553C37.4105 169.329 37.3313 170.133 37.0285 170.864C36.7258 171.595 36.2131 172.22 35.5553 172.659C34.8975 173.099 34.1241 173.333 33.333 173.333C32.2721 173.333 31.2547 172.912 30.5046 172.162C29.7544 171.412 29.333 170.394 29.333 169.333V169.333ZM149.333 156C149.333 155.209 149.568 154.436 150.007 153.778C150.447 153.12 151.071 152.607 151.802 152.305C152.533 152.002 153.337 151.923 154.113 152.077C154.889 152.231 155.602 152.612 156.161 153.172C156.721 153.731 157.102 154.444 157.256 155.22C157.41 155.996 157.331 156.8 157.029 157.531C156.726 158.262 156.213 158.886 155.555 159.326C154.897 159.765 154.124 160 153.333 160C152.272 160 151.255 159.579 150.505 158.829C149.754 158.078 149.333 157.061 149.333 156ZM122.666 156C122.666 155.209 122.901 154.436 123.34 153.778C123.78 153.12 124.405 152.607 125.136 152.305C125.867 152.002 126.671 151.923 127.447 152.077C128.223 152.231 128.935 152.612 129.495 153.172C130.054 153.731 130.435 154.444 130.589 155.22C130.744 155.996 130.665 156.8 130.362 157.531C130.059 158.262 129.546 158.886 128.889 159.326C128.231 159.765 127.457 160 126.666 160C125.605 160 124.588 159.579 123.838 158.829C123.088 158.078 122.666 157.061 122.666 156ZM95.9997 156C95.9997 155.209 96.2343 154.436 96.6738 153.778C97.1133 153.12 97.738 152.607 98.4689 152.305C99.1999 152.002 100.004 151.923 100.78 152.077C101.556 152.231 102.269 152.612 102.828 153.172C103.388 153.731 103.768 154.444 103.923 155.22C104.077 155.996 103.998 156.8 103.695 157.531C103.392 158.262 102.88 158.886 102.222 159.326C101.564 159.765 100.791 160 99.9997 160C98.9388 160 97.9214 159.579 97.1712 158.829C96.4211 158.078 95.9997 157.061 95.9997 156ZM69.333 156C69.333 155.209 69.5676 154.436 70.0071 153.778C70.4467 153.12 71.0714 152.607 71.8023 152.305C72.5332 152.002 73.3374 151.923 74.1134 152.077C74.8893 152.231 75.602 152.612 76.1614 153.172C76.7208 153.731 77.1018 154.444 77.2561 155.22C77.4105 155.996 77.3313 156.8 77.0285 157.531C76.7258 158.262 76.2131 158.886 75.5553 159.326C74.8975 159.765 74.1241 160 73.333 160C72.2721 160 71.2547 159.579 70.5046 158.829C69.7544 158.078 69.333 157.061 69.333 156ZM42.6663 156C42.6663 155.209 42.9009 154.436 43.3405 153.778C43.78 153.12 44.4047 152.607 45.1356 152.305C45.8665 152.002 46.6708 151.923 47.4467 152.077C48.2226 152.231 48.9354 152.612 49.4948 153.172C50.0542 153.731 50.4351 154.444 50.5895 155.22C50.7438 155.996 50.6646 156.8 50.3619 157.531C50.0591 158.262 49.5464 158.886 48.8886 159.326C48.2308 159.765 47.4575 160 46.6663 160C45.6055 160 44.5881 159.579 43.8379 158.829C43.0878 158.078 42.6663 157.061 42.6663 156ZM162.666 142.667C162.666 141.876 162.901 141.102 163.34 140.444C163.78 139.787 164.405 139.274 165.136 138.971C165.867 138.668 166.671 138.589 167.447 138.744C168.223 138.898 168.935 139.279 169.495 139.838C170.054 140.398 170.435 141.11 170.589 141.886C170.744 142.662 170.665 143.467 170.362 144.197C170.059 144.928 169.546 145.553 168.889 145.993C168.231 146.432 167.457 146.667 166.666 146.667C165.605 146.667 164.588 146.245 163.838 145.495C163.088 144.745 162.666 143.728 162.666 142.667ZM136 142.667C136 141.876 136.234 141.102 136.674 140.444C137.113 139.787 137.738 139.274 138.469 138.971C139.2 138.668 140.004 138.589 140.78 138.744C141.556 138.898 142.269 139.279 142.828 139.838C143.388 140.398 143.768 141.11 143.923 141.886C144.077 142.662 143.998 143.467 143.695 144.197C143.392 144.928 142.88 145.553 142.222 145.993C141.564 146.432 140.791 146.667 140 146.667C138.939 146.667 137.921 146.245 137.171 145.495C136.421 144.745 136 143.728 136 142.667ZM55.9997 142.667C55.9997 141.876 56.2343 141.102 56.6738 140.444C57.1133 139.787 57.738 139.274 58.4689 138.971C59.1998 138.668 60.0041 138.589 60.78 138.744C61.556 138.898 62.2687 139.279 62.8281 139.838C63.3875 140.398 63.7685 141.11 63.9228 141.886C64.0772 142.662 63.9979 143.467 63.6952 144.197C63.3924 144.928 62.8798 145.553 62.222 145.993C61.5642 146.432 60.7908 146.667 59.9997 146.667C58.9388 146.667 57.9214 146.245 57.1712 145.495C56.4211 144.745 55.9997 143.728 55.9997 142.667ZM29.333 142.667C29.333 141.876 29.5676 141.102 30.0071 140.444C30.4467 139.787 31.0714 139.274 31.8023 138.971C32.5332 138.668 33.3374 138.589 34.1134 138.744C34.8893 138.898 35.602 139.279 36.1614 139.838C36.7208 140.398 37.1018 141.11 37.2561 141.886C37.4105 142.662 37.3313 143.467 37.0285 144.197C36.7258 144.928 36.2131 145.553 35.5553 145.993C34.8975 146.432 34.1241 146.667 33.333 146.667C32.2721 146.667 31.2547 146.245 30.5046 145.495C29.7544 144.745 29.333 143.728 29.333 142.667V142.667Z" fill="black"/>
</g>
</g>
<defs>
<linearGradient id="paint0_linear_253_3441" x1="99.9997" y1="136" x2="99.9997" y2="202.667" gradientUnits="userSpaceOnUse">
<stop stop-color="#FECBB5"/>
<stop offset="1" stop-color="#FED4C4"/>
</linearGradient>
<clipPath id="clip0_253_3441">
<rect width="200" height="200" rx="100" fill="white"/>
</clipPath>
</defs>
</svg>
