<svg fill="none" height="200" viewBox="0 0 200 200" width="200" xmlns="http://www.w3.org/2000/svg" xmlns:xlink="http://www.w3.org/1999/xlink"><linearGradient id="a" gradientUnits="userSpaceOnUse" x1="100" x2="100" y1="136" y2="202.667"><stop offset="0" stop-color="#fecbb5"/><stop offset="1" stop-color="#fed4c4"/></linearGradient><clipPath id="b"><rect height="200" rx="100" width="200"/></clipPath><mask id="c" height="67" maskUnits="userSpaceOnUse" width="138" x="31" y="136"><path d="m161.333 159.333c4.837 10.748 7.334 43.334 7.334 43.334h-137.3335s2.4967-32.586 7.3333-43.334c4.2374-9.415 32.1594-20.226 40.342-23.333 4.7247 5.285 11.4954 8.667 20.9912 8.667 9.496 0 16.267-3.382 20.991-8.667 8.183 3.107 36.105 13.918 40.342 23.333z" fill="url(#a)"/></mask><g clip-path="url(#b)"><path d="m132.788 85.3921c47.626-39.0166 2.676-74.7038-45.6131-55.6969-5.1657 2.0335-19.4805-6.1071-32.7405 2.469-8.5537 5.5323-5.2249 9.8679-8.5555 14.2036-3.3306 4.3356-16.1712 4.0805-18.9842 15.3385-1.666 6.6698 2.9443 13.6562 2.3277 18.6764-.6167 5.0202-5.4849 9.5454-5.7171 16.1727-.1005 2.7992.3513 5.5906 1.3299 8.2156.9785 2.624 2.4644 5.03 4.3729 7.08s4.2022 3.704 6.7501 4.868c2.5478 1.163 5.2999 1.814 8.0991 1.913.0229 5.534 2.1836 10.845 6.0306 14.823s9.0825 6.315 14.6124 6.523c3.6757.128 12.9824.13 20.9798-4.695 20.0399-12.085 15.5439-24.035 47.1079-49.8909z" fill="#000"/><path d="m83.3333 129.333c0-6-.204-35.5942-.194-36.0942-16.4727 2.428-16.1393-28.9054.5273-21.2387 3.6667 2.3333 14 0 13-19.3334 18.0004 19.3334 38.8984-3.216 40.6904 15.1587 2.447 25.09-.015 51.3476-15.608 51.3496-1.705-.021-3.406-.191-5.082-.508v10.666c0 6.667 12 10 12 10s-20.728 19.534-29.3337 19.426c-8.6053-.108-28-19.426-28-19.426s12-3.333 12-10z" fill="#ffd4b3"/><path d="m161.333 159.333c4.837 10.748 7.334 43.334 7.334 43.334h-137.3335s2.4967-32.586 7.3333-43.334c4.2374-9.415 32.1594-20.226 40.342-23.333 4.7247 5.285 11.4954 8.667 20.9912 8.667 9.496 0 16.267-3.382 20.991-8.667 8.183 3.107 36.105 13.918 40.342 23.333z" fill="#000"/><g mask="url(#c)"><path d="m162.667 196c0-.791.234-1.564.674-2.222.439-.658 1.064-1.171 1.795-1.473.731-.303 1.535-.382 2.311-.228s1.489.535 2.048 1.095c.56.559.941 1.272 1.095 2.048s.075 1.58-.228 2.311c-.302.731-.815 1.355-1.473 1.795-.658.439-1.431.674-2.222.674-1.061 0-2.078-.421-2.829-1.172-.75-.75-1.171-1.767-1.171-2.828zm-26.667 0c0-.791.235-1.564.674-2.222.44-.658 1.065-1.171 1.795-1.473.731-.303 1.536-.382 2.312-.228.775.154 1.488.535 2.048 1.095.559.559.94 1.272 1.094 2.048.155.776.075 1.58-.227 2.311-.303.731-.816 1.355-1.474 1.795-.657.439-1.431.674-2.222.674-1.061 0-2.078-.421-2.828-1.172-.75-.75-1.172-1.767-1.172-2.828zm-26.667 0c0-.791.235-1.564.675-2.222.439-.658 1.064-1.171 1.795-1.473.731-.303 1.535-.382 2.311-.228s1.489.535 2.048 1.095c.559.559.94 1.272 1.095 2.048.154.776.075 1.58-.228 2.311s-.815 1.355-1.473 1.795c-.658.439-1.431.674-2.223.674-1.06 0-2.078-.421-2.828-1.172-.75-.75-1.172-1.767-1.172-2.828zm-26.6662 0c0-.791.2346-1.564.6742-2.222.4395-.658 1.0642-1.171 1.7951-1.473.7309-.303 1.5352-.382 2.3111-.228s1.4886.535 2.0481 1.095c.5594.559.9403 1.272 1.0947 2.048.1543.776.0751 1.58-.2277 2.311-.3027.731-.8154 1.355-1.4732 1.795-.6578.439-1.4311.674-2.2223.674-1.0608 0-2.0782-.421-2.8284-1.172-.7501-.75-1.1716-1.767-1.1716-2.828zm-26.6666 0c0-.791.2346-1.564.6741-2.222s1.0642-1.171 1.7951-1.473c.7309-.303 1.5352-.382 2.3111-.228s1.4887.535 2.0481 1.095c.5594.559.9404 1.272 1.0947 2.048s.0751 1.58-.2276 2.311c-.3028.731-.8155 1.355-1.4733 1.795-.6578.439-1.4311.674-2.2222.674-1.0609 0-2.0783-.421-2.8285-1.172-.7501-.75-1.1715-1.767-1.1715-2.828zm-26.6667 0c0-.791.2346-1.564.6741-2.222s1.0643-1.171 1.7952-1.473c.7309-.303 1.5351-.382 2.3111-.228.7759.154 1.4886.535 2.048 1.095.5594.559.9404 1.272 1.0947 2.048.1544.776.0752 1.58-.2276 2.311-.3027.731-.8154 1.355-1.4732 1.795-.6578.439-1.4312.674-2.2223.674-1.0609 0-2.0783-.421-2.8284-1.172-.7502-.75-1.1716-1.767-1.1716-2.828zm119.9995-13.333c0-.791.235-1.565.675-2.223.439-.657 1.064-1.17 1.795-1.473s1.535-.382 2.311-.227c.776.154 1.489.535 2.048 1.094.559.56.94 1.272 1.095 2.048.154.776.075 1.581-.228 2.311-.303.731-.815 1.356-1.473 1.796-.658.439-1.431.674-2.223.674-1.06 0-2.078-.422-2.828-1.172s-1.172-1.767-1.172-2.828zm-26.666 0c0-.791.234-1.565.674-2.223.439-.657 1.064-1.17 1.795-1.473s1.535-.382 2.311-.227c.776.154 1.489.535 2.048 1.094.56.56.941 1.272 1.095 2.048s.075 1.581-.228 2.311c-.302.731-.815 1.356-1.473 1.796-.658.439-1.431.674-2.222.674-1.061 0-2.078-.422-2.829-1.172-.75-.75-1.171-1.767-1.171-2.828zm-26.6668 0c0-.791.2346-1.565.6741-2.223.4395-.657 1.0642-1.17 1.7951-1.473s1.5356-.382 2.3116-.227c.775.154 1.488.535 2.048 1.094.559.56.94 1.272 1.094 2.048.155.776.075 1.581-.227 2.311-.303.731-.816 1.356-1.474 1.796-.657.439-1.431.674-2.222.674-1.0607 0-2.0781-.422-2.8283-1.172-.7501-.75-1.1715-1.767-1.1715-2.828zm-26.6667 0c0-.791.2346-1.565.6741-2.223.4395-.657 1.0643-1.17 1.7952-1.473s1.5351-.382 2.3111-.227c.7759.154 1.4886.535 2.048 1.094.5594.56.9404 1.272 1.0947 2.048.1544.776.0752 1.581-.2276 2.311-.3027.731-.8154 1.356-1.4732 1.796-.6578.439-1.4312.674-2.2223.674-1.0609 0-2.0783-.422-2.8284-1.172-.7502-.75-1.1716-1.767-1.1716-2.828zm-26.6667 0c0-.791.2346-1.565.6742-2.223.4395-.657 1.0642-1.17 1.7951-1.473s1.5352-.382 2.3111-.227c.7759.154 1.4886.535 2.0481 1.094.5594.56.9403 1.272 1.0947 2.048.1543.776.0751 1.581-.2277 2.311-.3027.731-.8154 1.356-1.4732 1.796-.6578.439-1.4311.674-2.2223.674-1.0608 0-2.0783-.422-2.8284-1.172s-1.1716-1.767-1.1716-2.828zm120.0002-13.334c0-.791.234-1.564.674-2.222.439-.658 1.064-1.17 1.795-1.473s1.535-.382 2.311-.228c.776.155 1.489.536 2.048 1.095.56.559.941 1.272 1.095 2.048s.075 1.58-.228 2.311c-.302.731-.815 1.356-1.473 1.795-.658.44-1.431.674-2.222.674-1.061 0-2.078-.421-2.829-1.171-.75-.75-1.171-1.768-1.171-2.829zm-26.667 0c0-.791.235-1.564.674-2.222.44-.658 1.065-1.17 1.795-1.473.731-.303 1.536-.382 2.312-.228.775.155 1.488.536 2.048 1.095.559.559.94 1.272 1.094 2.048.155.776.075 1.58-.227 2.311-.303.731-.816 1.356-1.474 1.795-.657.44-1.431.674-2.222.674-1.061 0-2.078-.421-2.828-1.171s-1.172-1.768-1.172-2.829zm-26.667 0c0-.791.235-1.564.675-2.222.439-.658 1.064-1.17 1.795-1.473s1.535-.382 2.311-.228c.776.155 1.489.536 2.048 1.095s.94 1.272 1.095 2.048c.154.776.075 1.58-.228 2.311s-.815 1.356-1.473 1.795c-.658.44-1.431.674-2.223.674-1.06 0-2.078-.421-2.828-1.171s-1.172-1.768-1.172-2.829zm-26.6662 0c0-.791.2346-1.564.6742-2.222.4395-.658 1.0642-1.17 1.7951-1.473s1.5352-.382 2.3111-.228c.7759.155 1.4886.536 2.0481 1.095.5594.559.9403 1.272 1.0947 2.048.1543.776.0751 1.58-.2277 2.311-.3027.731-.8154 1.356-1.4732 1.795-.6578.44-1.4311.674-2.2223.674-1.0608 0-2.0782-.421-2.8284-1.171-.7501-.75-1.1716-1.768-1.1716-2.829zm-26.6666 0c0-.791.2346-1.564.6741-2.222s1.0642-1.17 1.7951-1.473 1.5352-.382 2.3111-.228c.7759.155 1.4887.536 2.0481 1.095s.9404 1.272 1.0947 2.048.0751 1.58-.2276 2.311c-.3028.731-.8155 1.356-1.4733 1.795-.6578.44-1.4311.674-2.2222.674-1.0609 0-2.0783-.421-2.8285-1.171-.7501-.75-1.1715-1.768-1.1715-2.829zm-26.6667 0c0-.791.2346-1.564.6741-2.222s1.0643-1.17 1.7952-1.473 1.5351-.382 2.3111-.228c.7759.155 1.4886.536 2.048 1.095s.9404 1.272 1.0947 2.048c.1544.776.0752 1.58-.2276 2.311-.3027.731-.8154 1.356-1.4732 1.795-.6578.44-1.4312.674-2.2223.674-1.0609 0-2.0783-.421-2.8284-1.171-.7502-.75-1.1716-1.768-1.1716-2.829zm119.9995-13.333c0-.791.235-1.564.675-2.222.439-.658 1.064-1.171 1.795-1.473.731-.303 1.535-.382 2.311-.228s1.489.535 2.048 1.095c.559.559.94 1.272 1.095 2.048.154.776.075 1.58-.228 2.311s-.815 1.355-1.473 1.795c-.658.439-1.431.674-2.223.674-1.06 0-2.078-.421-2.828-1.171-.75-.751-1.172-1.768-1.172-2.829zm-26.666 0c0-.791.234-1.564.674-2.222.439-.658 1.064-1.171 1.795-1.473.731-.303 1.535-.382 2.311-.228s1.489.535 2.048 1.095c.56.559.941 1.272 1.095 2.048s.075 1.58-.228 2.311c-.302.731-.815 1.355-1.473 1.795-.658.439-1.431.674-2.222.674-1.061 0-2.078-.421-2.829-1.171-.75-.751-1.171-1.768-1.171-2.829zm-26.6668 0c0-.791.2346-1.564.6741-2.222s1.0642-1.171 1.7951-1.473c.7309-.303 1.5356-.382 2.3116-.228.775.154 1.488.535 2.048 1.095.559.559.94 1.272 1.094 2.048.155.776.075 1.58-.227 2.311-.303.731-.816 1.355-1.474 1.795-.657.439-1.431.674-2.222.674-1.0607 0-2.0781-.421-2.8283-1.171-.7501-.751-1.1715-1.768-1.1715-2.829zm-26.6667 0c0-.791.2346-1.564.6741-2.222s1.0643-1.171 1.7952-1.473c.7309-.303 1.5351-.382 2.3111-.228.7759.154 1.4886.535 2.048 1.095.5594.559.9404 1.272 1.0947 2.048.1544.776.0752 1.58-.2276 2.311-.3027.731-.8154 1.355-1.4732 1.795-.6578.439-1.4312.674-2.2223.674-1.0609 0-2.0783-.421-2.8284-1.171-.7502-.751-1.1716-1.768-1.1716-2.829zm-26.6667 0c0-.791.2346-1.564.6742-2.222.4395-.658 1.0642-1.171 1.7951-1.473.7309-.303 1.5352-.382 2.3111-.228s1.4886.535 2.0481 1.095c.5594.559.9403 1.272 1.0947 2.048.1543.776.0751 1.58-.2277 2.311-.3027.731-.8154 1.355-1.4732 1.795-.6578.439-1.4311.674-2.2223.674-1.0608 0-2.0783-.421-2.8284-1.171-.7501-.751-1.1716-1.768-1.1716-2.829zm120.0002-13.333c0-.791.234-1.565.674-2.223.439-.657 1.064-1.17 1.795-1.473s1.535-.382 2.311-.227c.776.154 1.489.535 2.048 1.094.56.56.941 1.272 1.095 2.048s.075 1.581-.228 2.311c-.302.731-.815 1.356-1.473 1.796-.658.439-1.431.674-2.222.674-1.061 0-2.078-.422-2.829-1.172-.75-.75-1.171-1.767-1.171-2.828zm-26.667 0c0-.791.235-1.565.674-2.223.44-.657 1.065-1.17 1.795-1.473.731-.303 1.536-.382 2.312-.227.775.154 1.488.535 2.048 1.094.559.56.94 1.272 1.094 2.048.155.776.075 1.581-.227 2.311-.303.731-.816 1.356-1.474 1.796-.657.439-1.431.674-2.222.674-1.061 0-2.078-.422-2.828-1.172s-1.172-1.767-1.172-2.828zm-79.9998 0c0-.791.2346-1.565.6741-2.223.4395-.657 1.0642-1.17 1.7951-1.473s1.5352-.382 2.3111-.227c.7759.154 1.4887.535 2.0481 1.094.5594.56.9404 1.272 1.0947 2.048s.0751 1.581-.2276 2.311c-.3028.731-.8155 1.356-1.4733 1.796-.6578.439-1.4311.674-2.2222.674-1.0609 0-2.0783-.422-2.8285-1.172-.7501-.75-1.1715-1.767-1.1715-2.828zm-26.6667 0c0-.791.2346-1.565.6741-2.223.4395-.657 1.0643-1.17 1.7952-1.473s1.5351-.382 2.3111-.227c.7759.154 1.4886.535 2.048 1.094.5594.56.9404 1.272 1.0947 2.048.1544.776.0752 1.581-.2276 2.311-.3027.731-.8154 1.356-1.4732 1.796-.6578.439-1.4312.674-2.2223.674-1.0609 0-2.0783-.422-2.8284-1.172-.7502-.75-1.1716-1.767-1.1716-2.828z" fill="#000"/></g></g></svg>