<svg fill="none" height="200" viewBox="0 0 200 200" width="200" xmlns="http://www.w3.org/2000/svg" xmlns:xlink="http://www.w3.org/1999/xlink"><linearGradient id="a" gradientUnits="userSpaceOnUse" x1="107.04" x2="107.04" y1="102.912" y2="22.2585"><stop offset="0" stop-color="#e05f51"/><stop offset="1" stop-color="#e05f51"/></linearGradient><linearGradient id="b" gradientUnits="userSpaceOnUse" x1="100" x2="100" y1="202.872" y2="135.333"><stop offset="0" stop-color="#e6864e"/><stop offset="1" stop-color="#e67240"/></linearGradient><clipPath id="c"><rect height="200" rx="100" transform="matrix(-1 0 0 1 200 0)" width="200"/></clipPath><mask id="d" height="68" maskUnits="userSpaceOnUse" width="160" x="20" y="135"><path d="m30 160.205c-6.3467 12.905-10 42.667-10 42.667h160s-3.655-29.765-10-42.667c-6.345-12.901-43.4-24.867-43.4-24.867-7.142 14.662-46.3387 14.662-53.1807-.005 0 0-37.0726 11.968-43.4193 24.872z" fill="url(#b)"/></mask><g clip-path="url(#c)"><path d="m121.334 125.856v.287c.079 6.079 5.19 10.65 15.333 13.713-12.222 8.889-24.445 16-36.667 16-12.2218 0-24.4444-7.111-36.6664-16 10.0742-3.067 15.1853-7.644 15.3333-13.733 0-1.086-.008-2.627-.0153-5.521 0-.46-.0011-.93-.0034-1.412-.7286.103-.6666.037 0-.148-.02-7.613-.0526-17.849-.098-28.2527-9.5546-12.3847-6.0446-26.904-3.0506-26.542 3.67.4473 35.4724-29.7313 41.5724-31.2787 6.1-1.5473 21.595 3.448 24.262 17.3647 2.666 13.9167 3.781 48.9953-6.334 62.9997-2.878 3.986-7.411 5.545-13.6 4.677-.008 2.913-.026 4.547-.066 7.846z" fill="#ffd4b3"/><path d="m121.333 118c-14.666-1.667-23.9995-8-23.9995-8s10.0935 13.411 23.9995 16z" fill="#ffbe94"/><path d="m73.6668 91c-4.5933-11.0467-23-33.5447-7.1333-47.5447 5.3333-26 34.7995-23.122 54.4665-17.122 13.218 4.0327 23.2 12 25.333 6 13.334 11.122 6.656 22-2.133 25.122-7.977 2.8333-21.467 5.6667-44.4038 3-4.0974-.4767-3.2394 12.072-5.4287 13.4287-3.2847 2.0353-5.834-10.762-14.8394-6.9194-9.0053 3.8427-3.6613 21.66 6.0054 21.66 3.3333 0 5 9.1647-4 13.4984-6.5333 3.21-4.882-3.945-7.8667-11.123z" fill="url(#a)"/><path d="m30 160.205c-6.3467 12.905-10 42.667-10 42.667h160s-3.655-29.765-10-42.667c-6.345-12.901-43.4-24.867-43.4-24.867-7.142 14.662-46.3387 14.662-53.1807-.005 0 0-37.0726 11.968-43.4193 24.872z" fill="#000"/><g mask="url(#d)"><path d="m186.667 189.333v-5.333h-173.3338v5.333zm0-13.333v-5.333h-173.3338v5.333zm0-13.333v-5.334h-173.3338v5.334z" fill="#000"/></g></g></svg>