<svg fill="none" height="200" viewBox="0 0 200 200" width="200" xmlns="http://www.w3.org/2000/svg" xmlns:xlink="http://www.w3.org/1999/xlink"><clipPath id="a"><rect height="200" rx="100" transform="matrix(-1 0 0 1 200 0)" width="200"/></clipPath><g clip-path="url(#a)"><path d="m51.6668 106.333c-5.408-17.9603-8.7414-48.6663 14-69.6663 17.38-16.0494 64.3332-17.6667 80.6662 17.3333 2.727 5.8427-1 15-8.333 14.6667-2.882-.1334-4.667 9-6.333 14.6666 2.333 22.9997 23.121 23.4247 33.666 40.9997 13 21.667-3 53.667-41.333 53.667-38.3333 0-60.3079-31.73-72.3332-71.667z" fill="#f6b704"/><path d="m38.667 158.667c-4.8887 9.333-7.3334 43.333-7.3334 43.333h137.3334s-2.445-34-7.333-43.333c-7.334-14-61.334-32-61.334-32s-53.9997 18-61.333 32z" fill="#000"/><path d="m84.0005 134.667s8.5106 4.666 16.3395 4.666c7.83 0 15.66-4.666 15.66-4.666v-14.667c1.685.266 3.391.367 5.095.303 15.992-.002 22.022-23.2957 18.905-51.6364-2 0-6.666 0-13.333-9.3333 1.667 13-17.667 11-25 .6666 3.667 12.3334-5.9999 20.6667-14.3332 15.6667-16.3407-9.8047-20.014 20.084-3.3333 20.3333z" fill="#532e15"/><path d="m99.9778 138.65c-4.818-.218-15.978-2.578-15.978-7.677v-4.306c-1.2227 0-4.7233 2.888-6.524 5.333-7.1173 9.667.7773 18.333 7.216 18.333 8.124 0 13.508-6.788 15.308-10.053 1.8002 3.267 7.1842 10.053 15.3082 10.053 6.438 0 14.333-8.666 7.216-18.333-1.801-2.445-5.302-5.333-6.524-5.333v4.306c0 5.099-11.462 7.459-16.0222 7.677z" fill="#fff"/></g></svg>