<svg fill="none" height="200" viewBox="0 0 200 200" width="200" xmlns="http://www.w3.org/2000/svg" xmlns:xlink="http://www.w3.org/1999/xlink"><linearGradient id="a"><stop offset="0"/><stop offset="1"/></linearGradient><linearGradient id="b" gradientUnits="userSpaceOnUse" x1="107.04" x2="107.04" xlink:href="#a" y1="102.912" y2="22.2585"/><linearGradient id="c" gradientUnits="userSpaceOnUse" x1="100" x2="100" xlink:href="#a" y1="202.872" y2="135.333"/><linearGradient id="d" gradientUnits="userSpaceOnUse" x1="100" x2="100" y1="202.872" y2="135.333"><stop offset="0" stop-color="#e6864e"/><stop offset="1" stop-color="#e67240"/></linearGradient><linearGradient id="e" gradientUnits="userSpaceOnUse" x1="100" x2="100" xlink:href="#a" y1="157.333" y2="189.333"/><clipPath id="f"><rect height="200" rx="100" transform="matrix(-1 0 0 1 200 0)" width="200"/></clipPath><mask id="g" height="68" maskUnits="userSpaceOnUse" width="160" x="20" y="135"><path d="m30 160.205c-6.3467 12.905-10 42.667-10 42.667h160s-3.655-29.765-10-42.667c-6.345-12.901-43.4-24.867-43.4-24.867-7.142 14.662-46.3387 14.662-53.1807-.005 0 0-37.0726 11.968-43.4193 24.872z" fill="url(#d)"/></mask><g clip-path="url(#f)"><path d="m121.333 125.856v.287c.079 6.079 5.19 10.65 15.333 13.713-12.222 8.889-24.444 16-36.6662 16-12.222 0-24.4447-7.111-36.6667-16 10.0742-3.067 15.1853-7.644 15.3333-13.733 0-1.086-.008-2.627-.0153-5.521 0-.46-.0011-.93-.0033-1.412-.7287.103-.6667.037 0-.148-.02-7.613-.0527-17.849-.098-28.2527-9.5547-12.3847-6.0447-26.904-3.0507-26.542 3.67.4473 35.4719-29.7313 41.5719-31.2787 6.1-1.5473 21.595 3.448 24.262 17.3647s3.781 48.9953-6.333 62.9997c-2.878 3.986-7.412 5.545-13.6 4.677-.009 2.913-.026 4.547-.067 7.846z" fill="#532e15"/><path d="m73.6668 91c-4.5933-11.0467-23-33.5447-7.1333-47.5447 5.3333-26 34.7995-23.122 54.4665-17.122 13.218 4.0327 23.2 12 25.333 6 13.334 11.122 6.656 22-2.133 25.122-7.977 2.8333-21.467 5.6667-44.4038 3-4.0974-.4767-3.2394 12.072-5.4287 13.4287-3.2847 2.0353-5.834-10.762-14.8394-6.9194-9.0053 3.8427-3.6613 21.66 6.0054 21.66 3.3333 0 5 9.1647-4 13.4984-6.5333 3.21-4.882-3.945-7.8667-11.123z" fill="url(#b)"/><path d="m30 160.205c-6.3467 12.905-10 42.667-10 42.667h160s-3.655-29.765-10-42.667c-6.345-12.901-43.4-24.867-43.4-24.867-7.142 14.662-46.3387 14.662-53.1807-.005 0 0-37.0726 11.968-43.4193 24.872z" fill="url(#c)"/><g mask="url(#g)"><path d="m186.667 189.333v-5.333h-173.3334v5.333zm0-13.333v-5.333h-173.3334v5.333zm0-13.333v-5.334h-173.3334v5.334z" fill="url(#e)"/></g></g></svg>