<svg width="200" height="200" viewBox="0 0 200 200" fill="none" xmlns="http://www.w3.org/2000/svg">
<g clip-path="url(#clip0_253_3494)">
<path d="M51.6668 106.333C46.2588 88.3727 42.9254 57.6667 65.6668 36.6667C83.0468 20.6173 130 19 146.333 54C149.06 59.8427 145.333 69 138 68.6667C135.118 68.5333 133.333 77.6667 131.667 83.3333C134 106.333 154.788 106.758 165.333 124.333C178.333 146 162.333 178 124 178C85.6667 178 63.6921 146.27 51.6668 106.333Z" fill="#F6B704"/>
<path d="M38.667 158.667C33.7783 168 31.3336 202 31.3336 202H168.667C168.667 202 166.222 168 161.334 158.667C154 144.667 100 126.667 100 126.667C100 126.667 46.0003 144.667 38.667 158.667Z" fill="black"/>
<path d="M84.0005 134.667C84.0005 134.667 92.5111 139.333 100.34 139.333C108.17 139.333 116 134.667 116 134.667V120C117.685 120.266 119.391 120.367 121.095 120.303C137.087 120.301 143.117 97.0073 140 68.6666C138 68.6666 133.334 68.6666 126.667 59.3333C128.334 72.3333 109 70.3333 101.667 59.9999C105.334 72.3333 95.6671 80.6666 87.3338 75.6666C70.9931 65.8619 67.3198 95.7506 84.0005 95.9999V134.667Z" fill="#532E15"/>
<g style="mix-blend-mode:multiply">
<path d="M116 120C107.73 118.477 99.8169 115.425 92.6667 111C92.6667 111 101 125.333 116 125.333V120Z" fill="#FFB597"/>
</g>
<path d="M99.9778 138.65C95.1598 138.432 83.9998 136.072 83.9998 130.973V126.667C82.7771 126.667 79.2765 129.555 77.4758 132C70.3585 141.667 78.2531 150.333 84.6918 150.333C92.8158 150.333 98.1998 143.545 99.9998 140.28C101.8 143.547 107.184 150.333 115.308 150.333C121.746 150.333 129.641 141.667 122.524 132C120.723 129.555 117.222 126.667 116 126.667V130.973C116 136.072 104.538 138.432 99.9778 138.65Z" fill="white"/>
</g>
<defs>
<clipPath id="clip0_253_3494">
<rect width="200" height="200" rx="100" transform="matrix(-1 0 0 1 200 0)" fill="white"/>
</clipPath>
</defs>
</svg>
