<svg fill="none" height="200" viewBox="0 0 200 200" width="200" xmlns="http://www.w3.org/2000/svg" xmlns:xlink="http://www.w3.org/1999/xlink"><linearGradient id="a" gradientUnits="userSpaceOnUse" x1="105.232" x2="105.232" y1="120.667" y2="21.3296"><stop offset="0" stop-color="#f6b704"/><stop offset="1" stop-color="#f6b704"/></linearGradient><clipPath id="b"><rect height="200" rx="100" width="200"/></clipPath><g clip-path="url(#b)"><path d="m121.333 117.333v15c0 2.889-42.6665 1.918-42.6665-2.248 0-3.92.08-21.684 0-39.9597-9.5547-12.3846-9.5547-20.1253-2-28.1253s61.3335-12 61.3335-12 4.035 38.8067 4.667 49.3333c.254 4.2337 3 17.9997-7.667 17.9997z" fill="#532e15"/><path d="m170 162.205c4.231 8.603 7.564 22.825 10 42.666h-160c2.4364-19.843 5.7698-34.065 10-42.666 4.216-8.574 43.3333-25.073 43.3333-25.073s.7787-7.542 2.6667-8.623c1.888-1.082 45.751-1.081 48 0 2.249 1.08 2.667 8.619 2.667 8.619s39.125 16.521 43.333 25.077z" fill="#000"/><path d="m87.3463 70.1373c-2.12-1.8207-4.696-3.0467-8.3373-1.1547-8.6327 4.482-2.9033 21.774 6.7573 21.4367 3.3334-.116 1.8054 6.5267-7.1 10.9137 0-6.9997-10.6666-24.333-11.6-40.1144-10.7333-3.9966-8.0666-19.988-.698-19.988-1.176-14.6607 22.298-22.2327 31.3874-13.82 9.2443-11.0793 32.5773-5.4127 33.9863 4.1993 16.044-8.5646 26.591 16.0547 11.568 25.6121-6.182 3.9333-20.644 5.43-41.519 5.43-10.0173 0-4.2567 23.4466-1.125 31.0146 4 9.6664 26.334 11.0004 33.334 10.0004 5.466-.781 8.333-3 8.666-4.3337 5 13.3337-1.333 21.3337-11.333 21.3337-17 0-34-5-36.6667-17.334-2.1226-9.815-2.006-25.6557-7.32-33.1957z" fill="url(#a)"/></g></svg>