<svg fill="none" height="200" viewBox="0 0 200 200" width="200" xmlns="http://www.w3.org/2000/svg" xmlns:xlink="http://www.w3.org/1999/xlink"><clipPath id="a"><rect height="200" rx="100" width="200"/></clipPath><g clip-path="url(#a)"><path d="m121.333 116v16.333c0 2.889-42.6663 1.918-42.6663-2.248 0-3.92.08-21.684 0-39.9597-9.5546-12.3847-7.5545-34.6254.0001-42.6254 20.3332-23.4999 56.3332.0001 59.3332 9 3 9 4.035 32.3068 4.667 42.8335.254 4.2336 3 17.9996-7.667 17.9996z" fill="#ffd4b3"/><path d="m170 162.205c4.231 8.603 7.564 22.825 10 42.666h-160c2.4364-19.843 5.7698-34.065 10-42.666 4.216-8.574 43.3333-25.073 43.3333-25.073s.7787-7.542 2.6667-8.623c1.888-1.082 45.751-1.081 48 0 2.249 1.08 2.667 8.619 2.667 8.619s39.125 16.521 43.333 25.077z" fill="#000"/></g></svg>