<svg width="160" height="181" viewBox="0 0 160 181" fill="none" xmlns="http://www.w3.org/2000/svg">
<path d="M101.333 103.856V104.143C101.412 110.222 106.523 114.793 116.666 117.856C104.444 126.745 92.2218 133.856 79.9998 133.856C67.7778 133.856 55.5551 126.745 43.3331 117.856C53.4073 114.789 58.5184 110.212 58.6664 104.123C58.6664 103.037 58.6584 101.496 58.6511 98.602C58.6511 98.1424 58.65 97.6717 58.6478 97.19C57.9191 97.2926 57.9811 97.2273 58.6478 97.042C58.6278 89.4293 58.5951 79.1926 58.5498 68.7893C48.9951 56.4046 52.5051 41.8853 55.4991 42.2473C59.1691 42.6946 90.9711 12.516 97.0711 10.9686C103.171 9.42131 118.666 14.4166 121.333 28.3333C124 42.25 125.114 77.3286 115 91.3333C112.122 95.3186 107.588 96.8775 101.4 96.01C101.391 98.9226 101.374 100.557 101.333 103.856Z" fill="#532E15"/>
<g style="mix-blend-mode:multiply">
<path d="M101.333 96C86.6663 94.3333 77.333 88 77.333 88C77.333 88 87.4263 101.411 101.333 104V96Z" fill="#FFDBC9"/>
</g>
<path d="M53.6668 69C49.0735 57.9533 30.6668 35.4553 46.5335 21.4553C51.8668 -4.5447 81.3335 -1.6667 101 4.3333C114.218 8.36597 124.2 16.3333 126.333 10.3333C139.667 21.4553 132.989 32.3333 124.2 35.4553C116.223 38.2886 102.733 41.122 79.7962 38.4553C75.6988 37.9786 76.5568 50.5273 74.3675 51.884C71.0828 53.9193 68.5335 41.122 59.5281 44.9646C50.5228 48.8073 55.8668 66.6246 65.5335 66.6246C68.8668 66.6246 70.5335 75.7893 61.5335 80.1226C55.0002 83.3333 56.6515 76.178 53.6668 69Z" fill="url(#paint0_linear_253_3183)"/>
<path d="M10 138.205C3.65334 151.11 0 180.872 0 180.872H160C160 180.872 156.345 151.107 150 138.205C143.655 125.304 106.6 113.338 106.6 113.338C99.458 128 60.2613 128 53.4193 113.333C53.4193 113.333 16.3467 125.301 10 138.205Z" fill="black"/>
<mask id="mask0_253_3183" style="mask-type:alpha" maskUnits="userSpaceOnUse" x="0" y="113" width="160" height="68">
<path d="M10 138.205C3.65334 151.11 0 180.872 0 180.872H160C160 180.872 156.345 151.107 150 138.205C143.655 125.304 106.6 113.338 106.6 113.338C99.458 128 60.2613 128 53.4193 113.333C53.4193 113.333 16.3467 125.301 10 138.205Z" fill="url(#paint1_linear_253_3183)"/>
</mask>
<g mask="url(#mask0_253_3183)">
<path d="M166.667 167.333V162H-6.66635V167.333H166.667ZM166.667 154V148.667H-6.66635V154H166.667ZM166.667 140.667V135.333H-6.66635V140.667H166.667Z" fill="black"/>
</g>
<defs>
<linearGradient id="paint0_linear_253_3183" x1="87.0399" y1="80.9122" x2="87.0399" y2="0.258545" gradientUnits="userSpaceOnUse">
<stop/>
<stop offset="1"/>
</linearGradient>
<linearGradient id="paint1_linear_253_3183" x1="80" y1="180.872" x2="80" y2="113.333" gradientUnits="userSpaceOnUse">
<stop stop-color="#E6864E"/>
<stop offset="1" stop-color="#E67240"/>
</linearGradient>
</defs>
</svg>
