<svg fill="none" height="181" viewBox="0 0 160 181" width="160" xmlns="http://www.w3.org/2000/svg" xmlns:xlink="http://www.w3.org/1999/xlink"><linearGradient id="a" gradientUnits="userSpaceOnUse" x1="87.0399" x2="87.0399" y1="80.9122" y2=".258545"><stop offset="0"/><stop offset="1"/></linearGradient><linearGradient id="b" gradientUnits="userSpaceOnUse" x1="80" x2="80" y1="180.872" y2="113.333"><stop offset="0" stop-color="#e6864e"/><stop offset="1" stop-color="#e67240"/></linearGradient><mask id="c" height="68" maskUnits="userSpaceOnUse" width="160" x="0" y="113"><path d="m10 138.205c-6.34666 12.905-10 42.667-10 42.667h160s-3.655-29.765-10-42.667c-6.345-12.901-43.4-24.867-43.4-24.867-7.142 14.662-46.3387 14.662-53.1807-.005 0 0-37.0726 11.968-43.4193 24.872z" fill="url(#b)"/></mask><path d="m101.334 103.856v.287c.079 6.079 5.19 10.65 15.333 13.713-12.222 8.889-24.4448 16-36.6668 16s-24.4446-7.111-36.6666-16c10.0742-3.067 15.1853-7.644 15.3333-13.733 0-1.086-.008-2.627-.0153-5.521 0-.4596-.0011-.9303-.0034-1.412-.7286.1026-.6666.0373 0-.148-.02-7.6127-.0526-17.8494-.098-28.2527-9.5546-12.3847-6.0446-26.904-3.0506-26.542 3.67.4473 35.472-29.7313 41.572-31.2787 6.1004-1.54729 21.5954 3.448 24.2624 17.3647 2.666 13.9167 3.781 48.9953-6.334 63-2.878 3.9853-7.411 5.5442-13.6 4.6767-.008 2.9126-.026 4.547-.066 7.846z" fill="#d39c72"/><path d="m101.333 96c-14.6662-1.6667-23.9995-8-23.9995-8s10.0933 13.411 23.9995 16z" fill="#ffdbc9"/><path d="m53.6668 69c-4.5933-11.0467-23-33.5447-7.1333-47.5447 5.3333-26 34.8-23.122 54.4665-17.122 13.218 4.03267 23.2 12 25.333 6 13.334 11.122 6.656 22-2.133 25.122-7.977 2.8333-21.467 5.6667-44.4038 3-4.0974-.4767-3.2394 12.072-5.4287 13.4287-3.2847 2.0353-5.834-10.762-14.8394-6.9194-9.0053 3.8427-3.6613 21.66 6.0054 21.66 3.3333 0 5 9.1647-4 13.498-6.5333 3.2107-4.882-3.9446-7.8667-11.1226z" fill="url(#a)"/><path d="m10 138.205c-6.34666 12.905-10 42.667-10 42.667h160s-3.655-29.765-10-42.667c-6.345-12.901-43.4-24.867-43.4-24.867-7.142 14.662-46.3387 14.662-53.1807-.005 0 0-37.0726 11.968-43.4193 24.872z" fill="#000"/><g mask="url(#c)"><path d="m166.667 167.333v-5.333h-173.33384v5.333zm0-13.333v-5.333h-173.33384v5.333zm0-13.333v-5.334h-173.33384v5.334z" fill="#000"/></g></svg>